SplineFontDB: 3.0
FontName: Bevan
FullName: Bevan
FamilyName: Bevan
Weight: All
Copyright: Copyright (c) 2011 by vernon adams. All rights reserved.
Version: 1.000
FONDName: Bevan
ItalicAngle: 0
UnderlinePosition: -307
UnderlineWidth: 102
Ascent: 1638
Descent: 410
UFOAscent: 1640
UFODescent: -398
LayerCount: 2
Layer: 0 1 "Back"  1
Layer: 1 1 "Fore"  0
FSType: 4
OS2Version: 0
OS2_WeightWidthSlopeOnly: 0
OS2_UseTypoMetrics: 0
CreationTime: 1516386040
ModificationTime: 1516386080
PfmFamily: 0
TTFWeight: 0
TTFWidth: 1
LineGap: 68
VLineGap: 0
Panose: 2 0 0 0 0 0 0 0 0 0
OS2TypoAscent: 1640
OS2TypoAOffset: 0
OS2TypoDescent: -398
OS2TypoDOffset: 0
OS2TypoLinegap: 134
OS2WinAscent: 2270
OS2WinAOffset: 0
OS2WinDescent: -485
OS2WinDOffset: 0
HheadAscent: 2270
HheadAOffset: 0
HheadDescent: -485
HheadDOffset: 0
OS2SubXSize: 1434
OS2SubYSize: 1331
OS2SubXOff: 0
OS2SubYOff: 287
OS2SupXSize: 1434
OS2SupYSize: 1331
OS2SupXOff: 0
OS2SupYOff: 977
OS2StrikeYSize: 102
OS2StrikeYPos: 512
OS2Vendor: 'newt'
OS2CodePages: 20000001.00000000
OS2UnicodeRanges: 800000af.5000204b.00000000.00000000
Lookup: 258 0 0 "'kern' Horizontal Kerning lookup 0"  {"'kern' Horizontal Kerning lookup 0 subtable"  } ['kern' ('DFLT' <'dflt' > ) ]
Lookup: 258 0 0 "'kern' Horizontal Kerning in Latin lookup 0"  {"'kern' Horizontal Kerning in Latin lookup 0 subtable"  } ['kern' ('latn' <'dflt' > ) ]
DEI: 91125

StartChar: A
Encoding: 65 65 1
Width: 1643
VWidth: 0
Flags: WO
LayerCount: 2
Fore
SplineSet
1185 1623 m 1,0,-1
 -519 1623 l 1,1,-1
 -492 1268.7 l 1,2,-1
 414 1268.7 l 1,3,-1
 231 591 l 2,4,5
 201.374 481.285 201.374 481.285 193 462 c 0,6,7
 152.126 367.866 152.126 367.866 82 367 c 0,8,9
 -422.175 366.375 -422.175 366.375 -567 359 c 1,10,-1
 -488 0 l 1,11,-1
 682 0 l 1,12,-1
 682 359 l 1,13,-1
 598 359 l 2,14,15
 577 359 577 359 566 395 c 128,-1,16
 555 431 555 431 555 459 c 1,17,18
 556 480 556 480 557 491 c 128,-1,19
 558 502 558 502 565 512.5 c 128,-1,20
 572 523 572 523 585 523 c 2,21,-1
 860 523 l 2,22,23
 927 523 927 523 927 359 c 1,24,-1
 807 359 l 1,25,-1
 808 0 l 1,26,-1
 1634 0 l 1,27,-1
 1634 359 l 1,28,-1
 1548 359 l 2,29,30
 1533 359 1533 359 1522 371.5 c 128,-1,31
 1511 384 1511 384 1505.5 400 c 0,32,33
 1500.39 414.879 1500.39 414.879 1492 447 c 2,34,-1
 1185 1623 l 1,0,-1
612 773 m 1,35,-1
 724 1281 l 1,36,-1
 841 773 l 1,37,-1
 612 773 l 1,35,-1
EndSplineSet
EndChar

StartChar: AE
Encoding: 198 198 2
Width: 2138
VWidth: 0
Flags: W
LayerCount: 2
Fore
SplineSet
2015 970 m 1
 2015 1623 l 1
 445 1623 l 1
 374 1274 l 1
 586 1274 l 1
 264 608 l 2
 259 597 259 597 245.5 565.5 c 0
 232 534 232 534 226.5 522.5 c 0
 221 511 221 511 207.5 485 c 0
 194 459 194 459 185 448 c 0
 176 437 176 437 160 418 c 0
 144 399 144 399 128 390.5 c 0
 112 382 112 382 91 372 c 0
 70 362 70 362 45 358 c 0
 20 354 20 354 -10 354 c 1
 -10 -1 l 1
 671 0 l 1
 671 376 l 1
 587 376 l 2
 566 376 566 376 561.5 417.5 c 0
 557 459 557 459 563 476 c 1
 568 497 568 497 571 508 c 0
 574 519 574 519 583 529.5 c 0
 592 540 592 540 605 540 c 2
 880 540 l 2
 948 540 948 540 916 376 c 1
 796 376 l 1
 797 0 l 1
 2026 0 l 1
 2026 687 l 1
 1753 687 l 1
 1690 420 l 1
 1677 350 l 1
 1458 350 l 1
 1458 636 l 1
 1663 636 l 1
 1663 988 l 1
 1458 988 l 1
 1458 1271 l 1
 1671 1271 l 1
 1747 969 l 1
 2015 970 l 1
669 771 m 1
 909 1292 l 1
 908 771 l 1
 669 771 l 1
EndSplineSet
EndChar

StartChar: Aacute
Encoding: 193 193 3
Width: 1643
VWidth: 0
Flags: W
LayerCount: 2
Fore
SplineSet
1185 1623 m 1
 191 1623 l 1
 191 1270 l 1
 403 1270 l 1
 231 591 l 2
 204 486 204 486 193 462 c 0
 160 386 160 386 82 367 c 0
 48 359 48 359 4 359 c 1
 4 0 l 1
 682 0 l 1
 682 359 l 1
 598 359 l 2
 577 359 577 359 566 395 c 0
 555 431 555 431 555 459 c 1
 556 480 556 480 557 491 c 0
 558 502 558 502 565 512.5 c 0
 572 523 572 523 585 523 c 2
 860 523 l 2
 927 523 927 523 927 359 c 1
 807 359 l 1
 808 0 l 1
 1634 0 l 1
 1634 359 l 1
 1548 359 l 2
 1533 359 1533 359 1522 371.5 c 0
 1511 384 1511 384 1505.5 400 c 0
 1500 416 1500 416 1492 447 c 2
 1185 1623 l 1
612 773 m 1
 724 1281 l 1
 841 773 l 1
 612 773 l 1
938 2270 m 1
 464 1833 l 1
 568 1692 l 1
 1122 2005 l 1
 938 2270 l 1
EndSplineSet
EndChar

StartChar: Acircumflex
Encoding: 194 194 4
Width: 1643
VWidth: 0
Flags: W
LayerCount: 2
Fore
SplineSet
1185 1623 m 1
 191 1623 l 1
 191 1270 l 1
 403 1270 l 1
 231 591 l 2
 204 486 204 486 193 462 c 0
 160 386 160 386 82 367 c 0
 48 359 48 359 4 359 c 1
 4 0 l 1
 682 0 l 1
 682 359 l 1
 598 359 l 2
 577 359 577 359 566 395 c 0
 555 431 555 431 555 459 c 1
 556 480 556 480 557 491 c 0
 558 502 558 502 565 512.5 c 0
 572 523 572 523 585 523 c 2
 860 523 l 2
 927 523 927 523 927 359 c 1
 807 359 l 1
 808 0 l 1
 1634 0 l 1
 1634 359 l 1
 1548 359 l 2
 1533 359 1533 359 1522 371.5 c 0
 1511 384 1511 384 1505.5 400 c 0
 1500 416 1500 416 1492 447 c 2
 1185 1623 l 1
612 773 m 1
 724 1281 l 1
 841 773 l 1
 612 773 l 1
557 2163 m 1
 284 1786 l 1
 438 1685 l 1
 693 1930 l 1
 948 1685 l 1
 1102 1786 l 1
 828 2162 l 1
 557 2163 l 1
EndSplineSet
EndChar

StartChar: Adieresis
Encoding: 196 196 5
Width: 1643
VWidth: 0
Flags: W
LayerCount: 2
Fore
SplineSet
1185 1623 m 1
 191 1623 l 1
 191 1270 l 1
 403 1270 l 1
 231 591 l 2
 204 486 204 486 193 462 c 0
 160 386 160 386 82 367 c 0
 48 359 48 359 4 359 c 1
 4 0 l 1
 682 0 l 1
 682 359 l 1
 598 359 l 2
 577 359 577 359 566 395 c 0
 555 431 555 431 555 459 c 1
 556 480 556 480 557 491 c 0
 558 502 558 502 565 512.5 c 0
 572 523 572 523 585 523 c 2
 860 523 l 2
 927 523 927 523 927 359 c 1
 807 359 l 1
 808 0 l 1
 1634 0 l 1
 1634 359 l 1
 1548 359 l 2
 1533 359 1533 359 1522 371.5 c 0
 1511 384 1511 384 1505.5 400 c 0
 1500 416 1500 416 1492 447 c 2
 1185 1623 l 1
612 773 m 1
 724 1281 l 1
 841 773 l 1
 612 773 l 1
711 1904 m 0
 711 1796 711 1796 644.5 1735 c 0
 578 1674 578 1674 487 1674 c 0
 394 1674 394 1674 326.5 1735.5 c 0
 259 1797 259 1797 259 1907 c 0
 259 2014 259 2014 326 2074 c 0
 393 2134 393 2134 485 2134 c 0
 577 2134 577 2134 644 2073.5 c 0
 711 2013 711 2013 711 1904 c 0
1328 1904 m 0
 1328 1796 1328 1796 1261.5 1735 c 0
 1195 1674 1195 1674 1104 1674 c 0
 1011 1674 1011 1674 943.5 1735.5 c 0
 876 1797 876 1797 876 1907 c 0
 876 2014 876 2014 943 2074 c 0
 1010 2134 1010 2134 1102 2134 c 0
 1194 2134 1194 2134 1261 2073.5 c 0
 1328 2013 1328 2013 1328 1904 c 0
EndSplineSet
EndChar

StartChar: Agrave
Encoding: 192 192 6
Width: 1643
VWidth: 0
Flags: W
LayerCount: 2
Fore
SplineSet
1185 1623 m 1
 191 1623 l 1
 191 1270 l 1
 403 1270 l 1
 231 591 l 2
 204 486 204 486 193 462 c 0
 160 386 160 386 82 367 c 0
 48 359 48 359 4 359 c 1
 4 0 l 1
 682 0 l 1
 682 359 l 1
 598 359 l 2
 577 359 577 359 566 395 c 0
 555 431 555 431 555 459 c 1
 556 480 556 480 557 491 c 0
 558 502 558 502 565 512.5 c 0
 572 523 572 523 585 523 c 2
 860 523 l 2
 927 523 927 523 927 359 c 1
 807 359 l 1
 808 0 l 1
 1634 0 l 1
 1634 359 l 1
 1548 359 l 2
 1533 359 1533 359 1522 371.5 c 0
 1511 384 1511 384 1505.5 400 c 0
 1500 416 1500 416 1492 447 c 2
 1185 1623 l 1
612 773 m 1
 724 1281 l 1
 841 773 l 1
 612 773 l 1
648 2270 m 1
 1122 1833 l 1
 1018 1692 l 1
 464 2005 l 1
 648 2270 l 1
EndSplineSet
EndChar

StartChar: Aring
Encoding: 197 197 7
Width: 1643
VWidth: 0
Flags: W
LayerCount: 2
Fore
SplineSet
1185 1623 m 1
 191 1623 l 1
 191 1270 l 1
 403 1270 l 1
 231 591 l 2
 204 486 204 486 193 462 c 0
 160 386 160 386 82 367 c 0
 48 359 48 359 4 359 c 1
 4 0 l 1
 682 0 l 1
 682 359 l 1
 598 359 l 2
 577 359 577 359 566 395 c 0
 555 431 555 431 555 459 c 1
 556 480 556 480 557 491 c 0
 558 502 558 502 565 512.5 c 0
 572 523 572 523 585 523 c 2
 860 523 l 2
 927 523 927 523 927 359 c 1
 807 359 l 1
 808 0 l 1
 1634 0 l 1
 1634 359 l 1
 1548 359 l 2
 1533 359 1533 359 1522 371.5 c 0
 1511 384 1511 384 1505.5 400 c 0
 1500 416 1500 416 1492 447 c 2
 1185 1623 l 1
612 773 m 1
 724 1281 l 1
 841 773 l 1
 612 773 l 1
789 1802 m 0
 714 1802 714 1802 671 1846 c 0
 628 1890 628 1890 628 1950 c 0
 628 2009 628 2009 670.5 2052 c 0
 713 2095 713 2095 789 2095 c 0
 867 2095 867 2095 910.5 2052 c 0
 954 2009 954 2009 954 1950 c 0
 954 1890 954 1890 910 1846 c 0
 866 1802 866 1802 789 1802 c 0
789 1700 m 0
 920 1700 920 1700 994.5 1775 c 0
 1069 1850 1069 1850 1069 1951 c 0
 1069 2051 1069 2051 995.5 2123 c 0
 922 2195 922 2195 789 2195 c 0
 660 2195 660 2195 589 2122.5 c 0
 518 2050 518 2050 518 1951 c 0
 518 1850 518 1850 590 1775 c 0
 662 1700 662 1700 789 1700 c 0
EndSplineSet
EndChar

StartChar: Atilde
Encoding: 195 195 8
Width: 1643
VWidth: 0
Flags: W
LayerCount: 2
Fore
SplineSet
1185 1623 m 1
 191 1623 l 1
 191 1270 l 1
 403 1270 l 1
 231 591 l 2
 204 486 204 486 193 462 c 0
 160 386 160 386 82 367 c 0
 48 359 48 359 4 359 c 1
 4 0 l 1
 682 0 l 1
 682 359 l 1
 598 359 l 2
 577 359 577 359 566 395 c 0
 555 431 555 431 555 459 c 1
 556 480 556 480 557 491 c 0
 558 502 558 502 565 512.5 c 0
 572 523 572 523 585 523 c 2
 860 523 l 2
 927 523 927 523 927 359 c 1
 807 359 l 1
 808 0 l 1
 1634 0 l 1
 1634 359 l 1
 1548 359 l 2
 1533 359 1533 359 1522 371.5 c 0
 1511 384 1511 384 1505.5 400 c 0
 1500 416 1500 416 1492 447 c 2
 1185 1623 l 1
612 773 m 1
 724 1281 l 1
 841 773 l 1
 612 773 l 1
967 2085 m 0
 1011 2085 1011 2085 1047 2066 c 0
 1083 2047 1083 2047 1109 2012.5 c 0
 1135 1978 1135 1978 1154.5 1944 c 0
 1174 1910 1174 1910 1197.5 1865 c 0
 1221 1820 1221 1820 1239 1794 c 1
 1126 1720 l 1
 1053 1790 1053 1790 1025.5 1809 c 0
 998 1828 998 1828 979 1828 c 0
 934 1828 934 1828 872 1798 c 0
 810 1768 810 1768 743.5 1737.5 c 0
 677 1707 677 1707 622 1707 c 0
 577 1707 577 1707 541 1725.5 c 0
 505 1744 505 1744 478.5 1778.5 c 0
 452 1813 452 1813 433 1846.5 c 0
 414 1880 414 1880 390 1925.5 c 0
 366 1971 366 1971 348 1997 c 1
 462 2072 l 1
 538 1999 538 1999 566 1979.5 c 0
 594 1960 594 1960 612 1960 c 0
 648 1960 648 1960 695 1979.5 c 0
 742 1999 742 1999 781 2022.5 c 0
 820 2046 820 2046 871 2065.5 c 0
 922 2085 922 2085 967 2085 c 0
EndSplineSet
EndChar

StartChar: B
Encoding: 66 66 9
Width: 1666
VWidth: 0
Flags: W
LayerCount: 2
Fore
SplineSet
89 0 m 1
 1031 0 l 2
 1160 0 1160 0 1263.5 23 c 0
 1367 46 1367 46 1447.5 94.5 c 0
 1528 143 1528 143 1572 225.5 c 0
 1616 308 1616 308 1616 420 c 0
 1616 589 1616 589 1534 697 c 0
 1452 805 1452 805 1302 848 c 1
 1302 850 l 1
 1411 891 1411 891 1479 985.5 c 0
 1547 1080 1547 1080 1547 1204 c 0
 1547 1304 1547 1304 1517 1378 c 0
 1487 1452 1487 1452 1434.5 1499 c 0
 1382 1546 1382 1546 1299.5 1574 c 0
 1217 1602 1217 1602 1124.5 1612.5 c 0
 1032 1623 1032 1623 910 1623 c 2
 96 1622 l 1
 96 1270 l 1
 262 1270 l 1
 261 359 l 1
 89 359 l 1
 89 0 l 1
863 700 m 0
 892 700 892 700 915 697.5 c 0
 938 695 938 695 966.5 684.5 c 0
 995 674 995 674 1014.5 656 c 0
 1034 638 1034 638 1047.5 605 c 0
 1061 572 1061 572 1061 527 c 0
 1061 502 1061 502 1057.5 481 c 0
 1054 460 1054 460 1047.5 444.5 c 0
 1041 429 1041 429 1032 416 c 0
 1023 403 1023 403 1011.5 394.5 c 0
 1000 386 1000 386 986 379.5 c 0
 972 373 972 373 956.5 369.5 c 0
 941 366 941 366 924 363.5 c 0
 907 361 907 361 888.5 360 c 0
 870 359 870 359 850.5 358.5 c 0
 831 358 831 358 811 359 c 0
 796 359 796 359 789 359 c 1
 789 699 l 1
 852 700 852 700 863 700 c 0
789 1270 m 1
 915 1270 l 2
 971 1270 971 1270 1012 1234 c 0
 1053 1198 1053 1198 1053 1131 c 0
 1053 1076 1053 1076 1036.5 1040.5 c 0
 1020 1005 1020 1005 986 988.5 c 0
 952 972 952 972 917.5 966.5 c 0
 883 961 883 961 830 961 c 2
 789 961 l 1
 789 1270 l 1
EndSplineSet
EndChar

StartChar: C
Encoding: 67 67 10
Width: 1538
VWidth: 0
Flags: W
LayerCount: 2
Fore
SplineSet
1456 612 m 1
 1155 612 l 1
 1151 538 1151 538 1147 518 c 0
 1132 438 1132 438 1070.5 390.5 c 0
 1009 343 1009 343 928 343 c 0
 867 343 867 343 821 365 c 0
 775 387 775 387 749.5 424 c 0
 724 461 724 461 706.5 509 c 0
 689 557 689 557 685 609 c 0
 681 661 681 661 678 713.5 c 0
 675 766 675 766 678 811 c 1
 678 841 678 841 678 855 c 0
 678 902 678 902 679 935 c 0
 680 968 680 968 685 1017 c 0
 690 1066 690 1066 699 1100.5 c 0
 708 1135 708 1135 726 1173 c 0
 744 1211 744 1211 768.5 1235 c 0
 793 1259 793 1259 830.5 1274.5 c 0
 868 1290 868 1290 915 1290 c 0
 978 1290 978 1290 1026 1262.5 c 0
 1074 1235 1074 1235 1100 1190 c 0
 1126 1145 1126 1145 1138 1094.5 c 0
 1150 1044 1150 1044 1149 991 c 1
 1447 991 l 1
 1446 1623 l 1
 1135 1623 l 1
 1101 1552 l 1
 1056 1595 1056 1595 988.5 1618.5 c 0
 921 1642 921 1642 868 1647 c 0
 815 1652 815 1652 741 1652 c 0
 600 1652 600 1652 484 1603 c 0
 368 1554 368 1554 290 1472 c 0
 212 1390 212 1390 158.5 1279.5 c 0
 105 1169 105 1169 81 1050 c 0
 57 931 57 931 57 804 c 0
 57 552 57 552 142.5 366.5 c 0
 228 181 228 181 402.5 76 c 0
 577 -29 577 -29 825 -29 c 0
 929 -29 929 -29 1032.5 -5 c 0
 1136 19 1136 19 1209 52.5 c 0
 1282 86 1282 86 1340 120 c 0
 1398 154 1398 154 1427 178 c 2
 1456 202 l 1
 1456 612 l 1
EndSplineSet
EndChar

StartChar: Ccedilla
Encoding: 199 199 11
Width: 1542
VWidth: 0
Flags: W
LayerCount: 2
Fore
SplineSet
1458 612 m 1
 1157 612 l 1
 1153 538 1153 538 1149 518 c 0
 1134 438 1134 438 1072.5 390.5 c 0
 1011 343 1011 343 930 343 c 0
 869 343 869 343 823 365 c 0
 777 387 777 387 751.5 424 c 0
 726 461 726 461 708.5 509 c 0
 691 557 691 557 687 609 c 0
 683 661 683 661 680 713.5 c 0
 677 766 677 766 680 811 c 1
 680 841 680 841 680 855 c 0
 680 902 680 902 681 935 c 0
 682 968 682 968 687 1017 c 0
 692 1066 692 1066 701 1100.5 c 0
 710 1135 710 1135 728 1173 c 0
 746 1211 746 1211 770.5 1235 c 0
 795 1259 795 1259 832.5 1274.5 c 0
 870 1290 870 1290 917 1290 c 0
 980 1290 980 1290 1028 1262.5 c 0
 1076 1235 1076 1235 1102 1190 c 0
 1128 1145 1128 1145 1140 1094.5 c 0
 1152 1044 1152 1044 1151 991 c 1
 1449 991 l 1
 1448 1623 l 1
 1137 1623 l 1
 1103 1552 l 1
 1058 1595 1058 1595 990.5 1618.5 c 0
 923 1642 923 1642 870 1647 c 0
 817 1652 817 1652 743 1652 c 0
 602 1652 602 1652 486 1603 c 0
 370 1554 370 1554 292 1472 c 0
 214 1390 214 1390 160.5 1279.5 c 0
 107 1169 107 1169 83 1050 c 0
 59 931 59 931 59 804 c 0
 59 552 59 552 144.5 366.5 c 0
 230 181 230 181 404.5 76 c 0
 579 -29 579 -29 827 -29 c 0
 931 -29 931 -29 1034.5 -5 c 0
 1138 19 1138 19 1211 52.5 c 0
 1284 86 1284 86 1342 120 c 0
 1400 154 1400 154 1429 178 c 2
 1458 202 l 1
 1458 612 l 1
709 -119 m 1
 755 -145 755 -145 787 -188 c 0
 819 -231 819 -231 819 -271 c 0
 819 -315 819 -315 774 -343 c 0
 729 -371 729 -371 632 -372 c 1
 632 -485 l 1
 653 -485 l 2
 805 -485 805 -485 913.5 -426 c 0
 1022 -367 1022 -367 1022 -285 c 0
 1022 -196 1022 -196 889 -119 c 1
 889 0 l 1
 709 0 l 1
 709 -119 l 1
EndSplineSet
EndChar

StartChar: D
Encoding: 68 68 12
Width: 1801
VWidth: 0
Flags: W
LayerCount: 2
Fore
SplineSet
98 0 m 1
 900 0 l 2
 1102 0 1102 0 1265 67 c 0
 1428 134 1428 134 1531 247.5 c 0
 1634 361 1634 361 1689 507 c 0
 1744 653 1744 653 1744 816 c 0
 1744 1212 1744 1212 1539 1417.5 c 0
 1334 1623 1334 1623 922 1623 c 2
 92 1623 l 1
 92 1271 l 1
 261 1271 l 1
 261 359 l 1
 98 359 l 1
 98 0 l 1
808 359 m 1
 808 1271 l 1
 855 1271 l 2
 929 1271 929 1271 984 1242.5 c 0
 1039 1214 1039 1214 1070 1170.5 c 0
 1101 1127 1101 1127 1119.5 1064 c 0
 1138 1001 1138 1001 1144 943.5 c 0
 1150 886 1150 886 1150 817 c 0
 1150 750 1150 750 1142.5 690 c 0
 1135 630 1135 630 1114 567.5 c 0
 1093 505 1093 505 1060 460.5 c 0
 1027 416 1027 416 971.5 387.5 c 0
 916 359 916 359 843 359 c 2
 808 359 l 1
EndSplineSet
EndChar

StartChar: E
Encoding: 69 69 13
Width: 1490
VWidth: 0
Flags: W
LayerCount: 2
Fore
SplineSet
1367 969 m 1
 1367 1623 l 1
 99 1623 l 1
 99 1270 l 1
 257 1270 l 1
 257 359 l 1
 99 359 l 1
 99 0 l 1
 1378 0 l 1
 1378 687 l 1
 1105 687 l 1
 1042 420 l 1
 1029 359 l 1
 810 359 l 1
 810 636 l 1
 1015 636 l 1
 1015 988 l 1
 810 988 l 1
 810 1270 l 1
 1023 1270 l 1
 1099 968 l 1
 1367 969 l 1
EndSplineSet
EndChar

StartChar: Eacute
Encoding: 201 201 14
Width: 1490
VWidth: 0
Flags: W
LayerCount: 2
Fore
SplineSet
1367 969 m 1
 1367 1623 l 1
 99 1623 l 1
 99 1270 l 1
 257 1270 l 1
 257 359 l 1
 99 359 l 1
 99 0 l 1
 1378 0 l 1
 1378 687 l 1
 1105 687 l 1
 1042 420 l 1
 1029 359 l 1
 810 359 l 1
 810 636 l 1
 1015 636 l 1
 1015 988 l 1
 810 988 l 1
 810 1270 l 1
 1023 1270 l 1
 1099 968 l 1
 1367 969 l 1
881 2270 m 1
 407 1833 l 1
 511 1692 l 1
 1065 2005 l 1
 881 2270 l 1
EndSplineSet
EndChar

StartChar: Ecircumflex
Encoding: 202 202 15
Width: 1490
VWidth: 0
Flags: W
LayerCount: 2
Fore
SplineSet
1367 969 m 1
 1367 1623 l 1
 99 1623 l 1
 99 1270 l 1
 257 1270 l 1
 257 359 l 1
 99 359 l 1
 99 0 l 1
 1378 0 l 1
 1378 687 l 1
 1105 687 l 1
 1042 420 l 1
 1029 359 l 1
 810 359 l 1
 810 636 l 1
 1015 636 l 1
 1015 988 l 1
 810 988 l 1
 810 1270 l 1
 1023 1270 l 1
 1099 968 l 1
 1367 969 l 1
600 2163 m 1
 327 1786 l 1
 481 1685 l 1
 736 1930 l 1
 991 1685 l 1
 1145 1786 l 1
 871 2162 l 1
 600 2163 l 1
EndSplineSet
EndChar

StartChar: Edieresis
Encoding: 203 203 16
Width: 1490
VWidth: 0
Flags: W
LayerCount: 2
Fore
SplineSet
1367 969 m 1
 1367 1623 l 1
 99 1623 l 1
 99 1270 l 1
 257 1270 l 1
 257 359 l 1
 99 359 l 1
 99 0 l 1
 1378 0 l 1
 1378 687 l 1
 1105 687 l 1
 1042 420 l 1
 1029 359 l 1
 810 359 l 1
 810 636 l 1
 1015 636 l 1
 1015 988 l 1
 810 988 l 1
 810 1270 l 1
 1023 1270 l 1
 1099 968 l 1
 1367 969 l 1
654 1904 m 0
 654 1796 654 1796 587.5 1735 c 0
 521 1674 521 1674 430 1674 c 0
 337 1674 337 1674 269.5 1735.5 c 0
 202 1797 202 1797 202 1907 c 0
 202 2014 202 2014 269 2074 c 0
 336 2134 336 2134 428 2134 c 0
 520 2134 520 2134 587 2073.5 c 0
 654 2013 654 2013 654 1904 c 0
1271 1904 m 0
 1271 1796 1271 1796 1204.5 1735 c 0
 1138 1674 1138 1674 1047 1674 c 0
 954 1674 954 1674 886.5 1735.5 c 0
 819 1797 819 1797 819 1907 c 0
 819 2014 819 2014 886 2074 c 0
 953 2134 953 2134 1045 2134 c 0
 1137 2134 1137 2134 1204 2073.5 c 0
 1271 2013 1271 2013 1271 1904 c 0
EndSplineSet
EndChar

StartChar: Egrave
Encoding: 200 200 17
Width: 1490
VWidth: 0
Flags: W
LayerCount: 2
Fore
SplineSet
1367 969 m 1
 1367 1623 l 1
 99 1623 l 1
 99 1270 l 1
 257 1270 l 1
 257 359 l 1
 99 359 l 1
 99 0 l 1
 1378 0 l 1
 1378 687 l 1
 1105 687 l 1
 1042 420 l 1
 1029 359 l 1
 810 359 l 1
 810 636 l 1
 1015 636 l 1
 1015 988 l 1
 810 988 l 1
 810 1270 l 1
 1023 1270 l 1
 1099 968 l 1
 1367 969 l 1
591 2270 m 1
 1065 1833 l 1
 961 1692 l 1
 407 2005 l 1
 591 2270 l 1
EndSplineSet
EndChar

StartChar: Eth
Encoding: 208 208 18
Width: 1802
VWidth: 0
Flags: W
LayerCount: 2
Fore
SplineSet
132 952 m 1
 132 653 l 1
 262 653 l 1
 262 351 l 1
 99 351 l 1
 99 0 l 1
 901 0 l 2
 1103 0 1103 0 1266 67 c 0
 1429 134 1429 134 1532 247.5 c 0
 1635 361 1635 361 1690 507 c 0
 1745 653 1745 653 1745 816 c 0
 1745 1212 1745 1212 1540 1417.5 c 0
 1335 1623 1335 1623 923 1623 c 2
 93 1623 l 1
 93 1271 l 1
 262 1271 l 1
 262 952 l 1
 132 952 l 1
813 351 m 1
 810 653 l 1
 895 653 l 1
 895 952 l 1
 809 952 l 1
 809 1000 809 1000 809 1053.5 c 0
 809 1107 809 1107 809 1172 c 0
 809 1237 809 1237 809 1271 c 1
 856 1271 l 2
 930 1271 930 1271 985 1242.5 c 0
 1040 1214 1040 1214 1071 1170.5 c 0
 1102 1127 1102 1127 1120.5 1064 c 0
 1139 1001 1139 1001 1145 943.5 c 0
 1151 886 1151 886 1151 817 c 0
 1151 750 1151 750 1143.5 689.5 c 0
 1136 629 1136 629 1115 565 c 0
 1094 501 1094 501 1061 455.5 c 0
 1028 410 1028 410 972.5 380.5 c 0
 917 351 917 351 844 351 c 2
 813 351 l 1
EndSplineSet
EndChar

StartChar: Euro
Encoding: 8364 8364 19
Width: 1608
VWidth: 0
Flags: W
LayerCount: 2
Fore
SplineSet
65 1091 m 1
 65 867 l 1
 153 867 l 1
 152 846 152 846 152 804 c 0
 152 762 152 762 153 741 c 1
 65 741 l 1
 65 517 l 1
 185 517 l 1
 213 402 213 402 263.5 308 c 0
 314 214 314 214 389 139.5 c 0
 464 65 464 65 570.5 23.5 c 0
 677 -18 677 -18 806 -18 c 0
 880 -18 880 -18 933 -13 c 0
 986 -8 986 -8 1053.5 15.5 c 0
 1121 39 1121 39 1166 82 c 1
 1200 11 l 1
 1511 11 l 1
 1512 643 l 1
 1214 643 l 1
 1215 590 1215 590 1203 539.5 c 0
 1191 489 1191 489 1165 444 c 0
 1139 399 1139 399 1091 371.5 c 0
 1043 344 1043 344 980 344 c 0
 846 344 846 344 800 517 c 1
 980 517 l 1
 980 741 l 1
 773 741 l 1
 773 804 l 1
 773 867 l 1
 980 867 l 1
 980 1091 l 1
 797 1091 l 1
 843 1290 843 1290 980 1290 c 0
 1043 1290 1043 1290 1091 1262.5 c 0
 1139 1235 1139 1235 1165 1190 c 0
 1191 1145 1191 1145 1203 1094.5 c 0
 1215 1044 1215 1044 1214 991 c 1
 1512 991 l 1
 1511 1623 l 1
 1200 1623 l 1
 1166 1552 l 1
 1121 1595 1121 1595 1053.5 1618.5 c 0
 986 1642 986 1642 933 1647 c 0
 880 1652 880 1652 806 1652 c 0
 702 1652 702 1652 612 1622.5 c 0
 522 1593 522 1593 454 1542 c 0
 386 1491 386 1491 332 1419.5 c 0
 278 1348 278 1348 242 1266.5 c 0
 206 1185 206 1185 184 1091 c 1
 65 1091 l 1
EndSplineSet
EndChar

StartChar: F
Encoding: 70 70 20
Width: 1407
VWidth: 0
Flags: W
LayerCount: 2
Fore
SplineSet
1025 999 m 1
 823 999 l 1
 823 1270 l 1
 1027 1270 l 1
 1091 959 l 1
 1375 959 l 1
 1375 1623 l 1
 100 1623 l 1
 100 1270 l 1
 258 1270 l 1
 258 359 l 1
 100 359 l 1
 100 0 l 1
 977 0 l 1
 977 359 l 1
 823 359 l 1
 823 643 l 1
 1025 643 l 1
 1025 999 l 1
EndSplineSet
EndChar

StartChar: G
Encoding: 71 71 21
Width: 1720
VWidth: 0
Flags: W
LayerCount: 2
Fore
SplineSet
1344 0 m 1
 1620 0 l 1
 1620 862 l 1
 995 862 l 1
 995 558 l 1
 1155 557 l 1
 1163 528 1163 528 1163 476 c 0
 1163 403 1163 403 1106 360.5 c 0
 1049 318 1049 318 973 318 c 0
 658 318 658 318 658 759 c 0
 658 822 658 822 662 874.5 c 0
 666 927 666 927 677 990.5 c 0
 688 1054 688 1054 710.5 1102.5 c 0
 733 1151 733 1151 767 1193 c 0
 801 1235 801 1235 855 1257.5 c 0
 909 1280 909 1280 979 1280 c 0
 1042 1280 1042 1280 1089.5 1261.5 c 0
 1137 1243 1137 1243 1165.5 1214.5 c 0
 1194 1186 1194 1186 1214 1139 c 0
 1234 1092 1234 1092 1243.5 1049 c 0
 1253 1006 1253 1006 1260 945 c 1
 1548 945 l 1
 1548 1623 l 1
 1233 1623 l 1
 1189 1561 l 1
 1061 1652 1061 1652 856 1652 c 0
 665 1652 665 1652 510.5 1584 c 0
 356 1516 356 1516 257 1398 c 0
 158 1280 158 1280 105.5 1125 c 0
 53 970 53 970 53 792 c 0
 53 638 53 638 95.5 506 c 0
 138 374 138 374 215 276.5 c 0
 292 179 292 179 398 110 c 0
 504 41 504 41 633 6 c 0
 762 -29 762 -29 907 -29 c 0
 1157 -29 1157 -29 1302 101 c 1
 1344 0 l 1
EndSplineSet
EndChar

StartChar: H
Encoding: 72 72 22
Width: 1908
VWidth: 0
Flags: W
LayerCount: 2
Fore
SplineSet
105 0 m 1
 914 0 l 1
 915 359 l 1
 819 359 l 1
 819 635 l 1
 1088 635 l 1
 1088 359 l 1
 1004 359 l 1
 1004 0 l 1
 1804 0 l 1
 1804 359 l 1
 1657 359 l 1
 1657 1270 l 1
 1798 1270 l 1
 1798 1623 l 1
 1000 1623 l 1
 1000 1270 l 1
 1088 1270 l 1
 1088 986 l 1
 819 986 l 1
 819 1270 l 1
 914 1270 l 1
 914 1623 l 1
 105 1623 l 1
 105 1270 l 1
 252 1270 l 1
 252 359 l 1
 105 359 l 1
 105 0 l 1
EndSplineSet
EndChar

StartChar: I
Encoding: 73 73 23
Width: 1076
VWidth: 0
Flags: W
LayerCount: 2
Fore
SplineSet
972 1623 m 1
 108 1623 l 1
 108 1270 l 1
 251 1270 l 1
 251 359 l 1
 104 359 l 1
 104 0 l 1
 966 0 l 1
 966 359 l 1
 825 359 l 1
 825 1270 l 1
 972 1270 l 1
 972 1623 l 1
EndSplineSet
EndChar

StartChar: Iacute
Encoding: 205 205 24
Width: 1076
VWidth: 0
Flags: W
LayerCount: 2
Fore
SplineSet
972 1623 m 1
 108 1623 l 1
 108 1270 l 1
 251 1270 l 1
 251 359 l 1
 104 359 l 1
 104 0 l 1
 966 0 l 1
 966 359 l 1
 825 359 l 1
 825 1270 l 1
 972 1270 l 1
 972 1623 l 1
685 2270 m 1
 211 1833 l 1
 315 1692 l 1
 869 2005 l 1
 685 2270 l 1
EndSplineSet
EndChar

StartChar: Icircumflex
Encoding: 206 206 25
Width: 1076
VWidth: 0
Flags: W
LayerCount: 2
Fore
SplineSet
972 1623 m 1
 108 1623 l 1
 108 1270 l 1
 251 1270 l 1
 251 359 l 1
 104 359 l 1
 104 0 l 1
 966 0 l 1
 966 359 l 1
 825 359 l 1
 825 1270 l 1
 972 1270 l 1
 972 1623 l 1
404 2163 m 1
 131 1786 l 1
 285 1685 l 1
 540 1930 l 1
 795 1685 l 1
 949 1786 l 1
 675 2162 l 1
 404 2163 l 1
EndSplineSet
EndChar

StartChar: Idieresis
Encoding: 207 207 26
Width: 1076
VWidth: 0
Flags: W
LayerCount: 2
Fore
SplineSet
972 1623 m 1
 108 1623 l 1
 108 1270 l 1
 251 1270 l 1
 251 359 l 1
 104 359 l 1
 104 0 l 1
 966 0 l 1
 966 359 l 1
 825 359 l 1
 825 1270 l 1
 972 1270 l 1
 972 1623 l 1
458 1904 m 0
 458 1796 458 1796 391.5 1735 c 0
 325 1674 325 1674 234 1674 c 0
 141 1674 141 1674 73.5 1735.5 c 0
 6 1797 6 1797 6 1907 c 0
 6 2014 6 2014 73 2074 c 0
 140 2134 140 2134 232 2134 c 0
 324 2134 324 2134 391 2073.5 c 0
 458 2013 458 2013 458 1904 c 0
1075 1904 m 0
 1075 1796 1075 1796 1008.5 1735 c 0
 942 1674 942 1674 851 1674 c 0
 758 1674 758 1674 690.5 1735.5 c 0
 623 1797 623 1797 623 1907 c 0
 623 2014 623 2014 690 2074 c 0
 757 2134 757 2134 849 2134 c 0
 941 2134 941 2134 1008 2073.5 c 0
 1075 2013 1075 2013 1075 1904 c 0
EndSplineSet
EndChar

StartChar: Igrave
Encoding: 204 204 27
Width: 1076
VWidth: 0
Flags: W
LayerCount: 2
Fore
SplineSet
972 1623 m 1
 108 1623 l 1
 108 1270 l 1
 251 1270 l 1
 251 359 l 1
 104 359 l 1
 104 0 l 1
 966 0 l 1
 966 359 l 1
 825 359 l 1
 825 1270 l 1
 972 1270 l 1
 972 1623 l 1
395 2270 m 1
 869 1833 l 1
 765 1692 l 1
 211 2005 l 1
 395 2270 l 1
EndSplineSet
EndChar

StartChar: J
Encoding: 74 74 28
Width: 1314
VWidth: 0
Flags: W
LayerCount: 2
Fore
SplineSet
30 -13 m 1
 300 -13 l 1
 337 79 l 1
 426 -30 426 -30 625 -30 c 0
 859 -30 859 -30 990 107.5 c 0
 1121 245 1121 245 1121 475 c 2
 1121 1270 l 1
 1268 1270 l 1
 1268 1623 l 1
 414 1623 l 1
 414 1270 l 1
 568 1270 l 1
 568 572 l 2
 568 462 568 462 541 413.5 c 0
 514 365 514 365 457 365 c 0
 432 365 432 365 411.5 376 c 0
 391 387 391 387 378.5 402 c 0
 366 417 366 417 357 443 c 0
 348 469 348 469 343.5 489 c 0
 339 509 339 509 337 541 c 0
 335 573 335 573 334.5 589 c 0
 334 605 334 605 334 633 c 1
 30 633 l 1
 30 -13 l 1
EndSplineSet
EndChar

StartChar: K
Encoding: 75 75 29
Width: 1799
VWidth: 0
Flags: W
LayerCount: 2
Fore
SplineSet
105 1270 m 1
 252 1270 l 1
 252 359 l 1
 105 359 l 1
 105 0 l 1
 932 0 l 1
 932 35 l 1
 926 359 l 1
 799 359 l 1
 799 640 l 1
 969 640 l 2
 1015 640 1015 640 1047 590 c 0
 1079 540 1079 540 1079 492 c 2
 1079 307 l 2
 1079 0 1079 0 1415 0 c 2
 1763 0 l 1
 1757 359 l 1
 1667 359 l 2
 1636 359 1636 359 1618 392.5 c 0
 1600 426 1600 426 1600 461 c 2
 1600 602 l 2
 1600 673 1600 673 1574.5 722.5 c 0
 1549 772 1549 772 1500.5 799 c 0
 1452 826 1452 826 1392 838 c 0
 1332 850 1332 850 1254 850 c 1
 1254 864 l 1
 1573 1270 l 1
 1710 1270 l 1
 1710 1623 l 1
 1086 1622 l 1
 1086 1270 l 1
 799 887 l 1
 799 1270 l 1
 926 1270 l 1
 926 1622 l 1
 105 1622 l 1
 105 1270 l 1
EndSplineSet
EndChar

StartChar: L
Encoding: 76 76 30
Width: 1421
VWidth: 0
Flags: W
LayerCount: 2
Fore
SplineSet
818 1270 m 1
 972 1270 l 1
 972 1622 l 1
 104 1622 l 1
 104 1270 l 1
 251 1270 l 1
 251 359 l 1
 108 359 l 1
 109 0 l 1
 1382 0 l 1
 1382 709 l 1
 1096 709 l 1
 1009 359 l 1
 818 359 l 1
 818 1270 l 1
EndSplineSet
EndChar

StartChar: Lslash
Encoding: 321 321 31
Width: 1422
VWidth: 0
Flags: W
LayerCount: 2
Fore
SplineSet
819 1270 m 1
 973 1270 l 1
 973 1622 l 1
 105 1622 l 1
 105 1270 l 1
 252 1270 l 1
 252 359 l 1
 109 359 l 1
 110 0 l 1
 1383 0 l 1
 1383 709 l 1
 1097 709 l 1
 1010 359 l 1
 819 359 l 1
 819 1270 l 1
74 656 m 1
 174 478 l 1
 1042 981 l 1
 943 1160 l 1
 74 656 l 1
EndSplineSet
EndChar

StartChar: M
Encoding: 77 77 32
Width: 2408
VWidth: 0
Flags: W
LayerCount: 2
Fore
SplineSet
589 999 m 1
 1005 0 l 1
 1286 0 l 1
 1628 977 l 1
 1628 359 l 1
 1505 359 l 1
 1505 0 l 1
 2308 0 l 1
 2308 359 l 1
 2154 359 l 1
 2154 1270 l 1
 2301 1270 l 1
 2301 1623 l 1
 1517 1623 l 1
 1241 856 l 1
 931 1623 l 1
 96 1623 l 1
 97 1270 l 1
 264 1270 l 1
 264 608 l 2
 264 574 264 574 264 557.5 c 0
 264 541 264 541 262.5 513.5 c 0
 261 486 261 486 258 473 c 0
 255 460 255 460 249.5 440 c 0
 244 420 244 420 236 410.5 c 0
 228 401 228 401 215.5 389 c 0
 203 377 203 377 187 372 c 0
 171 367 171 367 149 363 c 0
 127 359 127 359 100 359 c 1
 100 0 l 1
 751 0 l 1
 751 359 l 1
 724 359 724 359 702 362.5 c 0
 680 366 680 366 664 370.5 c 0
 648 375 648 375 636 385 c 0
 624 395 624 395 616 402 c 0
 608 409 608 409 602.5 424.5 c 0
 597 440 597 440 594.5 448.5 c 0
 592 457 592 457 590.5 476.5 c 0
 589 496 589 496 589 505 c 0
 589 514 589 514 589 535 c 2
 589 999 l 1
EndSplineSet
EndChar

StartChar: N
Encoding: 78 78 33
Width: 1874
VWidth: 0
Flags: W
LayerCount: 2
Fore
SplineSet
1814 1622 m 1
 1177 1623 l 1
 1177 1270 l 1
 1216 1271 1216 1271 1245 1266 c 0
 1274 1261 1274 1261 1290.5 1247.5 c 0
 1307 1234 1307 1234 1317 1221.5 c 0
 1327 1209 1327 1209 1330.5 1186.5 c 0
 1334 1164 1334 1164 1334.5 1152 c 0
 1335 1140 1335 1140 1335 1116 c 2
 1335 647 l 1
 839 1623 l 1
 104 1623 l 1
 104 1272 l 1
 261 1272 l 1
 261 550 l 2
 261 512 261 512 259 490 c 0
 257 468 257 468 248.5 439.5 c 0
 240 411 240 411 223.5 396 c 0
 207 381 207 381 175.5 370 c 0
 144 359 144 359 98 359 c 1
 98 0 l 1
 735 0 l 1
 735 359 l 1
 650 359 650 359 613.5 392 c 0
 577 425 577 425 577 507 c 2
 577 908 l 1
 1050 0 l 1
 1656 0 l 1
 1656 1118 l 2
 1656 1192 1656 1192 1692.5 1231 c 0
 1729 1270 1729 1270 1814 1270 c 1
 1814 1622 l 1
EndSplineSet
EndChar

StartChar: Ntilde
Encoding: 209 209 34
Width: 1873
VWidth: 0
Flags: W
LayerCount: 2
Fore
SplineSet
1814 1622 m 1
 1177 1623 l 1
 1177 1270 l 1
 1216 1271 1216 1271 1245 1266 c 0
 1274 1261 1274 1261 1290.5 1247.5 c 0
 1307 1234 1307 1234 1317 1221.5 c 0
 1327 1209 1327 1209 1330.5 1186.5 c 0
 1334 1164 1334 1164 1334.5 1152 c 0
 1335 1140 1335 1140 1335 1116 c 2
 1335 647 l 1
 839 1623 l 1
 104 1623 l 1
 104 1272 l 1
 261 1272 l 1
 261 550 l 2
 261 512 261 512 259 490 c 0
 257 468 257 468 248.5 439.5 c 0
 240 411 240 411 223.5 396 c 0
 207 381 207 381 175.5 370 c 0
 144 359 144 359 98 359 c 1
 98 0 l 1
 735 0 l 1
 735 359 l 1
 650 359 650 359 613.5 392 c 0
 577 425 577 425 577 507 c 2
 577 908 l 1
 1050 0 l 1
 1656 0 l 1
 1656 1118 l 2
 1656 1192 1656 1192 1692.5 1231 c 0
 1729 1270 1729 1270 1814 1270 c 1
 1814 1622 l 1
1082 2085 m 0
 1126 2085 1126 2085 1162 2066 c 0
 1198 2047 1198 2047 1224 2012.5 c 0
 1250 1978 1250 1978 1269.5 1944 c 0
 1289 1910 1289 1910 1312.5 1865 c 0
 1336 1820 1336 1820 1354 1794 c 1
 1241 1720 l 1
 1168 1790 1168 1790 1140.5 1809 c 0
 1113 1828 1113 1828 1094 1828 c 0
 1049 1828 1049 1828 987 1798 c 0
 925 1768 925 1768 858.5 1737.5 c 0
 792 1707 792 1707 737 1707 c 0
 692 1707 692 1707 656 1725.5 c 0
 620 1744 620 1744 593.5 1778.5 c 0
 567 1813 567 1813 548 1846.5 c 0
 529 1880 529 1880 505 1925.5 c 0
 481 1971 481 1971 463 1997 c 1
 577 2072 l 1
 653 1999 653 1999 681 1979.5 c 0
 709 1960 709 1960 727 1960 c 0
 763 1960 763 1960 810 1979.5 c 0
 857 1999 857 1999 896 2022.5 c 0
 935 2046 935 2046 986 2065.5 c 0
 1037 2085 1037 2085 1082 2085 c 0
EndSplineSet
EndChar

StartChar: O
Encoding: 79 79 35
Width: 1744
VWidth: 0
Flags: W
LayerCount: 2
Fore
SplineSet
1692 808 m 0
 1692 573 1692 573 1584.5 381 c 0
 1477 189 1477 189 1289 80 c 0
 1101 -29 1101 -29 872 -29 c 0
 643 -29 643 -29 455 80 c 0
 267 189 267 189 159.5 381 c 0
 52 573 52 573 52 808 c 0
 52 1066 52 1066 159.5 1259.5 c 0
 267 1453 267 1453 451.5 1553 c 0
 636 1653 636 1653 872 1653 c 0
 1108 1653 1108 1653 1292.5 1553 c 0
 1477 1453 1477 1453 1584.5 1259.5 c 0
 1692 1066 1692 1066 1692 808 c 0
872 319 m 0
 911 319 911 319 942 332 c 0
 973 345 973 345 994.5 368 c 0
 1016 391 1016 391 1032 422 c 0
 1048 453 1048 453 1057 489.5 c 0
 1066 526 1066 526 1072 565 c 0
 1078 604 1078 604 1079.5 643.5 c 0
 1081 683 1081 683 1082 721 c 0
 1083 759 1083 759 1082 793 c 0
 1082 813 1082 813 1082 823 c 0
 1082 834 1082 834 1082 858 c 0
 1081 894 1081 894 1082 934 c 0
 1083 974 1083 974 1078.5 1016.5 c 0
 1074 1059 1074 1059 1067.5 1099 c 0
 1061 1139 1061 1139 1045 1175 c 0
 1029 1211 1029 1211 1007.5 1238 c 0
 986 1265 986 1265 951 1280.5 c 0
 916 1296 916 1296 872 1296 c 0
 833 1296 833 1296 801.5 1284 c 0
 770 1272 770 1272 749 1250.5 c 0
 728 1229 728 1229 711.5 1200.5 c 0
 695 1172 695 1172 686.5 1138.5 c 0
 678 1105 678 1105 671.5 1068.5 c 0
 665 1032 665 1032 664 995.5 c 0
 663 959 663 959 661.5 924 c 0
 660 889 660 889 662 858 c 1
 662 834 662 834 662 823 c 0
 662 813 662 813 662 793 c 0
 663 763 663 763 662 730 c 0
 661 697 661 697 663.5 661.5 c 0
 666 626 666 626 669 591 c 0
 672 556 672 556 679.5 522 c 0
 687 488 687 488 697 458 c 0
 707 428 707 428 723 402.5 c 0
 739 377 739 377 759.5 358.5 c 0
 780 340 780 340 809 329.5 c 0
 838 319 838 319 872 319 c 0
EndSplineSet
EndChar

StartChar: OE
Encoding: 338 338 36
Width: 2329
VWidth: 0
Flags: W
LayerCount: 2
Fore
SplineSet
2216 0 m 1
 2216 687 l 1
 1943 687 l 1
 1880 420 l 1
 1867 350 l 1
 1648 350 l 1
 1648 636 l 1
 1853 636 l 1
 1853 988 l 1
 1648 988 l 1
 1648 1258 l 1
 1861 1258 l 1
 1937 956 l 1
 2205 957 l 1
 2205 1610 l 1
 890 1610 l 2
 644 1610 644 1610 453.5 1506.5 c 0
 263 1403 263 1403 159.5 1217 c 0
 56 1031 56 1031 56 793 c 0
 57 433 57 433 285.5 216.5 c 0
 514 0 514 0 896 0 c 2
 2216 0 l 1
673 755 m 0
 673 775 673 775 673 817 c 1
 670 870 670 870 672.5 923.5 c 0
 675 977 675 977 678.5 1026 c 0
 682 1075 682 1075 696.5 1117 c 0
 711 1159 711 1159 733 1190 c 0
 755 1221 755 1221 794 1239 c 0
 833 1257 833 1257 885 1257 c 2
 1095 1257 l 1
 1095 350 l 1
 896 350 l 2
 852 350 852 350 817.5 362 c 0
 783 374 783 374 760 393 c 0
 737 412 737 412 720.5 444.5 c 0
 704 477 704 477 695 508 c 0
 686 539 686 539 681 584.5 c 0
 676 630 676 630 674.5 666.5 c 0
 673 703 673 703 673 755 c 0
EndSplineSet
EndChar

StartChar: Oacute
Encoding: 211 211 37
Width: 1744
VWidth: 0
Flags: W
LayerCount: 2
Fore
SplineSet
1692 808 m 0
 1692 573 1692 573 1584.5 381 c 0
 1477 189 1477 189 1289 80 c 0
 1101 -29 1101 -29 872 -29 c 0
 643 -29 643 -29 455 80 c 0
 267 189 267 189 159.5 381 c 0
 52 573 52 573 52 808 c 0
 52 1066 52 1066 159.5 1259.5 c 0
 267 1453 267 1453 451.5 1553 c 0
 636 1653 636 1653 872 1653 c 0
 1108 1653 1108 1653 1292.5 1553 c 0
 1477 1453 1477 1453 1584.5 1259.5 c 0
 1692 1066 1692 1066 1692 808 c 0
872 319 m 0
 911 319 911 319 942 332 c 0
 973 345 973 345 994.5 368 c 0
 1016 391 1016 391 1032 422 c 0
 1048 453 1048 453 1057 489.5 c 0
 1066 526 1066 526 1072 565 c 0
 1078 604 1078 604 1079.5 643.5 c 0
 1081 683 1081 683 1082 721 c 0
 1083 759 1083 759 1082 793 c 0
 1082 813 1082 813 1082 823 c 0
 1082 834 1082 834 1082 858 c 0
 1081 894 1081 894 1082 934 c 0
 1083 974 1083 974 1078.5 1016.5 c 0
 1074 1059 1074 1059 1067.5 1099 c 0
 1061 1139 1061 1139 1045 1175 c 0
 1029 1211 1029 1211 1007.5 1238 c 0
 986 1265 986 1265 951 1280.5 c 0
 916 1296 916 1296 872 1296 c 0
 833 1296 833 1296 801.5 1284 c 0
 770 1272 770 1272 749 1250.5 c 0
 728 1229 728 1229 711.5 1200.5 c 0
 695 1172 695 1172 686.5 1138.5 c 0
 678 1105 678 1105 671.5 1068.5 c 0
 665 1032 665 1032 664 995.5 c 0
 663 959 663 959 661.5 924 c 0
 660 889 660 889 662 858 c 1
 662 834 662 834 662 823 c 0
 662 813 662 813 662 793 c 0
 663 763 663 763 662 730 c 0
 661 697 661 697 663.5 661.5 c 0
 666 626 666 626 669 591 c 0
 672 556 672 556 679.5 522 c 0
 687 488 687 488 697 458 c 0
 707 428 707 428 723 402.5 c 0
 739 377 739 377 759.5 358.5 c 0
 780 340 780 340 809 329.5 c 0
 838 319 838 319 872 319 c 0
1015 2270 m 1
 541 1833 l 1
 645 1692 l 1
 1199 2005 l 1
 1015 2270 l 1
EndSplineSet
EndChar

StartChar: Ocircumflex
Encoding: 212 212 38
Width: 1744
VWidth: 0
Flags: W
LayerCount: 2
Fore
SplineSet
1692 808 m 0
 1692 573 1692 573 1584.5 381 c 0
 1477 189 1477 189 1289 80 c 0
 1101 -29 1101 -29 872 -29 c 0
 643 -29 643 -29 455 80 c 0
 267 189 267 189 159.5 381 c 0
 52 573 52 573 52 808 c 0
 52 1066 52 1066 159.5 1259.5 c 0
 267 1453 267 1453 451.5 1553 c 0
 636 1653 636 1653 872 1653 c 0
 1108 1653 1108 1653 1292.5 1553 c 0
 1477 1453 1477 1453 1584.5 1259.5 c 0
 1692 1066 1692 1066 1692 808 c 0
872 319 m 0
 911 319 911 319 942 332 c 0
 973 345 973 345 994.5 368 c 0
 1016 391 1016 391 1032 422 c 0
 1048 453 1048 453 1057 489.5 c 0
 1066 526 1066 526 1072 565 c 0
 1078 604 1078 604 1079.5 643.5 c 0
 1081 683 1081 683 1082 721 c 0
 1083 759 1083 759 1082 793 c 0
 1082 813 1082 813 1082 823 c 0
 1082 834 1082 834 1082 858 c 0
 1081 894 1081 894 1082 934 c 0
 1083 974 1083 974 1078.5 1016.5 c 0
 1074 1059 1074 1059 1067.5 1099 c 0
 1061 1139 1061 1139 1045 1175 c 0
 1029 1211 1029 1211 1007.5 1238 c 0
 986 1265 986 1265 951 1280.5 c 0
 916 1296 916 1296 872 1296 c 0
 833 1296 833 1296 801.5 1284 c 0
 770 1272 770 1272 749 1250.5 c 0
 728 1229 728 1229 711.5 1200.5 c 0
 695 1172 695 1172 686.5 1138.5 c 0
 678 1105 678 1105 671.5 1068.5 c 0
 665 1032 665 1032 664 995.5 c 0
 663 959 663 959 661.5 924 c 0
 660 889 660 889 662 858 c 1
 662 834 662 834 662 823 c 0
 662 813 662 813 662 793 c 0
 663 763 663 763 662 730 c 0
 661 697 661 697 663.5 661.5 c 0
 666 626 666 626 669 591 c 0
 672 556 672 556 679.5 522 c 0
 687 488 687 488 697 458 c 0
 707 428 707 428 723 402.5 c 0
 739 377 739 377 759.5 358.5 c 0
 780 340 780 340 809 329.5 c 0
 838 319 838 319 872 319 c 0
734 2163 m 1
 461 1786 l 1
 615 1685 l 1
 870 1930 l 1
 1125 1685 l 1
 1279 1786 l 1
 1005 2162 l 1
 734 2163 l 1
EndSplineSet
EndChar

StartChar: Odieresis
Encoding: 214 214 39
Width: 1744
VWidth: 0
Flags: W
LayerCount: 2
Fore
SplineSet
1692 808 m 0
 1692 573 1692 573 1584.5 381 c 0
 1477 189 1477 189 1289 80 c 0
 1101 -29 1101 -29 872 -29 c 0
 643 -29 643 -29 455 80 c 0
 267 189 267 189 159.5 381 c 0
 52 573 52 573 52 808 c 0
 52 1066 52 1066 159.5 1259.5 c 0
 267 1453 267 1453 451.5 1553 c 0
 636 1653 636 1653 872 1653 c 0
 1108 1653 1108 1653 1292.5 1553 c 0
 1477 1453 1477 1453 1584.5 1259.5 c 0
 1692 1066 1692 1066 1692 808 c 0
872 319 m 0
 911 319 911 319 942 332 c 0
 973 345 973 345 994.5 368 c 0
 1016 391 1016 391 1032 422 c 0
 1048 453 1048 453 1057 489.5 c 0
 1066 526 1066 526 1072 565 c 0
 1078 604 1078 604 1079.5 643.5 c 0
 1081 683 1081 683 1082 721 c 0
 1083 759 1083 759 1082 793 c 0
 1082 813 1082 813 1082 823 c 0
 1082 834 1082 834 1082 858 c 0
 1081 894 1081 894 1082 934 c 0
 1083 974 1083 974 1078.5 1016.5 c 0
 1074 1059 1074 1059 1067.5 1099 c 0
 1061 1139 1061 1139 1045 1175 c 0
 1029 1211 1029 1211 1007.5 1238 c 0
 986 1265 986 1265 951 1280.5 c 0
 916 1296 916 1296 872 1296 c 0
 833 1296 833 1296 801.5 1284 c 0
 770 1272 770 1272 749 1250.5 c 0
 728 1229 728 1229 711.5 1200.5 c 0
 695 1172 695 1172 686.5 1138.5 c 0
 678 1105 678 1105 671.5 1068.5 c 0
 665 1032 665 1032 664 995.5 c 0
 663 959 663 959 661.5 924 c 0
 660 889 660 889 662 858 c 1
 662 834 662 834 662 823 c 0
 662 813 662 813 662 793 c 0
 663 763 663 763 662 730 c 0
 661 697 661 697 663.5 661.5 c 0
 666 626 666 626 669 591 c 0
 672 556 672 556 679.5 522 c 0
 687 488 687 488 697 458 c 0
 707 428 707 428 723 402.5 c 0
 739 377 739 377 759.5 358.5 c 0
 780 340 780 340 809 329.5 c 0
 838 319 838 319 872 319 c 0
788 1904 m 0
 788 1796 788 1796 721.5 1735 c 0
 655 1674 655 1674 564 1674 c 0
 471 1674 471 1674 403.5 1735.5 c 0
 336 1797 336 1797 336 1907 c 0
 336 2014 336 2014 403 2074 c 0
 470 2134 470 2134 562 2134 c 0
 654 2134 654 2134 721 2073.5 c 0
 788 2013 788 2013 788 1904 c 0
1405 1904 m 0
 1405 1796 1405 1796 1338.5 1735 c 0
 1272 1674 1272 1674 1181 1674 c 0
 1088 1674 1088 1674 1020.5 1735.5 c 0
 953 1797 953 1797 953 1907 c 0
 953 2014 953 2014 1020 2074 c 0
 1087 2134 1087 2134 1179 2134 c 0
 1271 2134 1271 2134 1338 2073.5 c 0
 1405 2013 1405 2013 1405 1904 c 0
EndSplineSet
EndChar

StartChar: Ograve
Encoding: 210 210 40
Width: 1744
VWidth: 0
Flags: W
LayerCount: 2
Fore
SplineSet
1692 808 m 0
 1692 573 1692 573 1584.5 381 c 0
 1477 189 1477 189 1289 80 c 0
 1101 -29 1101 -29 872 -29 c 0
 643 -29 643 -29 455 80 c 0
 267 189 267 189 159.5 381 c 0
 52 573 52 573 52 808 c 0
 52 1066 52 1066 159.5 1259.5 c 0
 267 1453 267 1453 451.5 1553 c 0
 636 1653 636 1653 872 1653 c 0
 1108 1653 1108 1653 1292.5 1553 c 0
 1477 1453 1477 1453 1584.5 1259.5 c 0
 1692 1066 1692 1066 1692 808 c 0
872 319 m 0
 911 319 911 319 942 332 c 0
 973 345 973 345 994.5 368 c 0
 1016 391 1016 391 1032 422 c 0
 1048 453 1048 453 1057 489.5 c 0
 1066 526 1066 526 1072 565 c 0
 1078 604 1078 604 1079.5 643.5 c 0
 1081 683 1081 683 1082 721 c 0
 1083 759 1083 759 1082 793 c 0
 1082 813 1082 813 1082 823 c 0
 1082 834 1082 834 1082 858 c 0
 1081 894 1081 894 1082 934 c 0
 1083 974 1083 974 1078.5 1016.5 c 0
 1074 1059 1074 1059 1067.5 1099 c 0
 1061 1139 1061 1139 1045 1175 c 0
 1029 1211 1029 1211 1007.5 1238 c 0
 986 1265 986 1265 951 1280.5 c 0
 916 1296 916 1296 872 1296 c 0
 833 1296 833 1296 801.5 1284 c 0
 770 1272 770 1272 749 1250.5 c 0
 728 1229 728 1229 711.5 1200.5 c 0
 695 1172 695 1172 686.5 1138.5 c 0
 678 1105 678 1105 671.5 1068.5 c 0
 665 1032 665 1032 664 995.5 c 0
 663 959 663 959 661.5 924 c 0
 660 889 660 889 662 858 c 1
 662 834 662 834 662 823 c 0
 662 813 662 813 662 793 c 0
 663 763 663 763 662 730 c 0
 661 697 661 697 663.5 661.5 c 0
 666 626 666 626 669 591 c 0
 672 556 672 556 679.5 522 c 0
 687 488 687 488 697 458 c 0
 707 428 707 428 723 402.5 c 0
 739 377 739 377 759.5 358.5 c 0
 780 340 780 340 809 329.5 c 0
 838 319 838 319 872 319 c 0
725 2270 m 1
 1199 1833 l 1
 1095 1692 l 1
 541 2005 l 1
 725 2270 l 1
EndSplineSet
EndChar

StartChar: Omega
Encoding: 937 937 41
Width: 1522
VWidth: 0
Flags: W
LayerCount: 2
Fore
SplineSet
1093 973 m 0
 1093 798 1093 798 1073 669 c 0
 1053 540 1053 540 1024 481 c 0
 995 422 995 422 966 388.5 c 0
 937 355 937 355 917 351 c 2
 897 347 l 1
 897 0 l 1
 1449 0 l 1
 1449 312 l 1
 1208 312 l 1
 1345 441 1345 441 1420 611.5 c 0
 1495 782 1495 782 1495 952 c 0
 1495 1065 1495 1065 1469.5 1167 c 0
 1444 1269 1444 1269 1389.5 1358.5 c 0
 1335 1448 1335 1448 1256 1513 c 0
 1177 1578 1177 1578 1063.5 1615.5 c 0
 950 1653 950 1653 813 1653 c 0
 676 1653 676 1653 562.5 1615.5 c 0
 449 1578 449 1578 370 1513 c 0
 291 1448 291 1448 236.5 1358.5 c 0
 182 1269 182 1269 156.5 1167 c 0
 131 1065 131 1065 131 952 c 0
 131 782 131 782 206 611.5 c 0
 281 441 281 441 418 312 c 1
 177 312 l 1
 177 0 l 1
 729 0 l 1
 729 347 l 1
 721 347 721 347 708 350.5 c 0
 695 354 695 354 661 388 c 0
 627 422 627 422 601 481 c 0
 575 540 575 540 554 669 c 0
 533 798 533 798 533 973 c 0
 533 1067 533 1067 547.5 1143.5 c 0
 562 1220 562 1220 593 1283.5 c 0
 624 1347 624 1347 680 1382.5 c 0
 736 1418 736 1418 813 1418 c 0
 890 1418 890 1418 946 1382.5 c 0
 1002 1347 1002 1347 1033 1283.5 c 0
 1064 1220 1064 1220 1078.5 1143.5 c 0
 1093 1067 1093 1067 1093 973 c 0
EndSplineSet
EndChar

StartChar: Oslash
Encoding: 216 216 42
Width: 1742
VWidth: 0
Flags: W
LayerCount: 2
Fore
SplineSet
567 -155 m 1
 605 12 l 1
 356 94 356 94 203.5 309.5 c 0
 51 525 51 525 51 808 c 0
 51 1066 51 1066 158.5 1259.5 c 0
 266 1453 266 1453 450.5 1553 c 0
 635 1653 635 1653 871 1653 c 0
 919 1653 919 1653 982 1646 c 1
 1019 1804 l 1
 1172 1774 l 1
 1136 1616 l 1
 1390 1541 1390 1541 1540.5 1329.5 c 0
 1691 1118 1691 1118 1691 808 c 0
 1691 573 1691 573 1583.5 381 c 0
 1476 189 1476 189 1288 80 c 0
 1100 -29 1100 -29 871 -29 c 0
 818 -29 818 -29 767 -23 c 1
 729 -194 l 1
 567 -155 l 1
871 1296 m 0
 832 1296 832 1296 800.5 1284 c 0
 769 1272 769 1272 748 1250.5 c 0
 727 1229 727 1229 710.5 1200.5 c 0
 694 1172 694 1172 685.5 1138.5 c 0
 677 1105 677 1105 670.5 1068.5 c 0
 664 1032 664 1032 663 995.5 c 0
 662 959 662 959 660.5 924 c 0
 659 889 659 889 661 858 c 1
 661 834 661 834 661 823 c 0
 661 822 661 822 661 776 c 0
 661 730 661 730 661 718 c 0
 661 706 661 706 662 664 c 0
 663 622 663 622 666 601 c 0
 669 580 669 580 673.5 546.5 c 0
 678 513 678 513 685.5 487 c 0
 693 461 693 461 703 438 c 1
 901 1294 l 1
 881 1296 881 1296 871 1296 c 0
871 319 m 0
 910 319 910 319 941 332 c 0
 972 345 972 345 993.5 368 c 0
 1015 391 1015 391 1031 422 c 0
 1047 453 1047 453 1056 489.5 c 0
 1065 526 1065 526 1071 565 c 0
 1077 604 1077 604 1078.5 643.5 c 0
 1080 683 1080 683 1081 721 c 0
 1082 759 1082 759 1081 793 c 0
 1081 813 1081 813 1081 823 c 0
 1081 830 1081 830 1081.5 867 c 0
 1082 904 1082 904 1081.5 920 c 0
 1081 936 1081 936 1080 971.5 c 0
 1079 1007 1079 1007 1076 1029.5 c 0
 1073 1052 1073 1052 1068.5 1082 c 0
 1064 1112 1064 1112 1056.5 1137.5 c 0
 1049 1163 1049 1163 1039 1185 c 1
 845 320 l 1
 853 319 853 319 871 319 c 0
EndSplineSet
EndChar

StartChar: Otilde
Encoding: 213 213 43
Width: 1744
VWidth: 0
Flags: W
LayerCount: 2
Fore
SplineSet
1692 808 m 0
 1692 573 1692 573 1584.5 381 c 0
 1477 189 1477 189 1289 80 c 0
 1101 -29 1101 -29 872 -29 c 0
 643 -29 643 -29 455 80 c 0
 267 189 267 189 159.5 381 c 0
 52 573 52 573 52 808 c 0
 52 1066 52 1066 159.5 1259.5 c 0
 267 1453 267 1453 451.5 1553 c 0
 636 1653 636 1653 872 1653 c 0
 1108 1653 1108 1653 1292.5 1553 c 0
 1477 1453 1477 1453 1584.5 1259.5 c 0
 1692 1066 1692 1066 1692 808 c 0
872 319 m 0
 911 319 911 319 942 332 c 0
 973 345 973 345 994.5 368 c 0
 1016 391 1016 391 1032 422 c 0
 1048 453 1048 453 1057 489.5 c 0
 1066 526 1066 526 1072 565 c 0
 1078 604 1078 604 1079.5 643.5 c 0
 1081 683 1081 683 1082 721 c 0
 1083 759 1083 759 1082 793 c 0
 1082 813 1082 813 1082 823 c 0
 1082 834 1082 834 1082 858 c 0
 1081 894 1081 894 1082 934 c 0
 1083 974 1083 974 1078.5 1016.5 c 0
 1074 1059 1074 1059 1067.5 1099 c 0
 1061 1139 1061 1139 1045 1175 c 0
 1029 1211 1029 1211 1007.5 1238 c 0
 986 1265 986 1265 951 1280.5 c 0
 916 1296 916 1296 872 1296 c 0
 833 1296 833 1296 801.5 1284 c 0
 770 1272 770 1272 749 1250.5 c 0
 728 1229 728 1229 711.5 1200.5 c 0
 695 1172 695 1172 686.5 1138.5 c 0
 678 1105 678 1105 671.5 1068.5 c 0
 665 1032 665 1032 664 995.5 c 0
 663 959 663 959 661.5 924 c 0
 660 889 660 889 662 858 c 1
 662 834 662 834 662 823 c 0
 662 813 662 813 662 793 c 0
 663 763 663 763 662 730 c 0
 661 697 661 697 663.5 661.5 c 0
 666 626 666 626 669 591 c 0
 672 556 672 556 679.5 522 c 0
 687 488 687 488 697 458 c 0
 707 428 707 428 723 402.5 c 0
 739 377 739 377 759.5 358.5 c 0
 780 340 780 340 809 329.5 c 0
 838 319 838 319 872 319 c 0
1044 2085 m 0
 1088 2085 1088 2085 1124 2066 c 0
 1160 2047 1160 2047 1186 2012.5 c 0
 1212 1978 1212 1978 1231.5 1944 c 0
 1251 1910 1251 1910 1274.5 1865 c 0
 1298 1820 1298 1820 1316 1794 c 1
 1203 1720 l 1
 1130 1790 1130 1790 1102.5 1809 c 0
 1075 1828 1075 1828 1056 1828 c 0
 1011 1828 1011 1828 949 1798 c 0
 887 1768 887 1768 820.5 1737.5 c 0
 754 1707 754 1707 699 1707 c 0
 654 1707 654 1707 618 1725.5 c 0
 582 1744 582 1744 555.5 1778.5 c 0
 529 1813 529 1813 510 1846.5 c 0
 491 1880 491 1880 467 1925.5 c 0
 443 1971 443 1971 425 1997 c 1
 539 2072 l 1
 615 1999 615 1999 643 1979.5 c 0
 671 1960 671 1960 689 1960 c 0
 725 1960 725 1960 772 1979.5 c 0
 819 1999 819 1999 858 2022.5 c 0
 897 2046 897 2046 948 2065.5 c 0
 999 2085 999 2085 1044 2085 c 0
EndSplineSet
EndChar

StartChar: P
Encoding: 80 80 44
Width: 1651
VWidth: 0
Flags: W
LayerCount: 2
Fore
SplineSet
99 0 m 1
 960 0 l 1
 960 359 l 1
 814 359 l 1
 814 569 l 1
 893 559 893 559 964 559 c 0
 1117 559 1117 559 1235.5 588 c 0
 1354 617 1354 617 1443.5 680 c 0
 1533 743 1533 743 1579.5 850.5 c 0
 1626 958 1626 958 1624 1106 c 0
 1623 1191 1623 1191 1607.5 1261 c 0
 1592 1331 1592 1331 1565 1381.5 c 0
 1538 1432 1538 1432 1500 1472 c 0
 1462 1512 1462 1512 1416 1537 c 0
 1370 1562 1370 1562 1316.5 1580 c 0
 1263 1598 1263 1598 1204 1605.5 c 0
 1145 1613 1145 1613 1082.5 1618.5 c 0
 1020 1624 1020 1624 955 1623 c 0
 890 1622 890 1622 825 1623 c 0
 809 1623 809 1623 800.5 1623 c 0
 792 1623 792 1623 779 1623 c 0
 766 1623 766 1623 755 1623 c 2
 104 1623 l 1
 104 1270 l 1
 255 1270 l 1
 255 359 l 1
 99 359 l 1
 99 0 l 1
814 1270 m 1
 898 1270 l 2
 976 1270 976 1270 1029 1228 c 0
 1082 1186 1082 1186 1082 1096 c 0
 1082 895 1082 895 855 895 c 2
 814 895 l 1
 814 1270 l 1
EndSplineSet
EndChar

StartChar: Q
Encoding: 81 81 45
Width: 1765
VWidth: 0
Flags: W
LayerCount: 2
Fore
SplineSet
893 -30 m 0
 933 -30 933 -30 1009 -22 c 1
 1260 0 l 1
 1744 0 l 1
 1744 359 l 1
 1581 359 l 1
 1702 562 1702 562 1702 807 c 0
 1702 1001 1702 1001 1640.5 1161 c 0
 1579 1321 1579 1321 1470.5 1428 c 0
 1362 1535 1362 1535 1212.5 1593.5 c 0
 1063 1652 1063 1652 887 1652 c 0
 641 1652 641 1652 450.5 1546 c 0
 260 1440 260 1440 156.5 1249.5 c 0
 53 1059 53 1059 53 815 c 0
 53 565 53 565 156 373.5 c 0
 259 182 259 182 450 76 c 0
 641 -30 641 -30 893 -30 c 0
670 777 m 0
 670 839 670 839 670 895.5 c 0
 670 952 670 952 674 1002.5 c 0
 678 1053 678 1053 685.5 1095 c 0
 693 1137 693 1137 708 1170.5 c 0
 723 1204 723 1204 746 1227 c 0
 769 1250 769 1250 803 1262.5 c 0
 837 1275 837 1275 882 1275 c 0
 933 1275 933 1275 970.5 1256.5 c 0
 1008 1238 1008 1238 1030 1198 c 0
 1052 1158 1052 1158 1065.5 1121.5 c 0
 1079 1085 1079 1085 1084.5 1022 c 0
 1090 959 1090 959 1091 923 c 0
 1092 887 1092 887 1092 822 c 0
 1092 807 1092 807 1092 775 c 1
 1095 732 1095 732 1092.5 683 c 0
 1090 634 1090 634 1087 585.5 c 0
 1084 537 1084 537 1070.5 492 c 0
 1057 447 1057 447 1036.5 413 c 0
 1016 379 1016 379 979 358.5 c 0
 942 338 942 338 893 338 c 0
 854 338 854 338 823 347 c 0
 792 356 792 356 769.5 375 c 0
 747 394 747 394 730.5 416 c 0
 714 438 714 438 703.5 472.5 c 0
 693 507 693 507 686 537.5 c 0
 679 568 679 568 676 613 c 0
 673 658 673 658 671.5 692 c 0
 670 726 670 726 670 777 c 0
EndSplineSet
EndChar

StartChar: R
Encoding: 82 82 46
Width: 1765
VWidth: 0
Flags: W
LayerCount: 2
Fore
SplineSet
912 359 m 1
 791 359 l 1
 791 694 l 1
 889 694 l 2
 949 694 949 694 987 677 c 0
 1025 660 1025 660 1043.5 624.5 c 0
 1062 589 1062 589 1068.5 549.5 c 0
 1075 510 1075 510 1075 451 c 2
 1075 256 l 2
 1075 215 1075 215 1083 180.5 c 0
 1091 146 1091 146 1103 121 c 0
 1115 96 1115 96 1136.5 76.5 c 0
 1158 57 1158 57 1177.5 44.5 c 0
 1197 32 1197 32 1228.5 23 c 0
 1260 14 1260 14 1283 9.5 c 0
 1306 5 1306 5 1343.5 3 c 0
 1381 1 1381 1 1403.5 0.5 c 0
 1426 0 1426 0 1465 0 c 2
 1727 0 l 1
 1727 359 l 1
 1671 359 1671 359 1637.5 365.5 c 0
 1604 372 1604 372 1588 387.5 c 0
 1572 403 1572 403 1567.5 420 c 0
 1563 437 1563 437 1563 466 c 2
 1563 559 l 2
 1563 651 1563 651 1499 712 c 0
 1435 773 1435 773 1286 807 c 1
 1458 839 1458 839 1551.5 932 c 0
 1645 1025 1645 1025 1645 1170 c 0
 1645 1293 1645 1293 1608 1381.5 c 0
 1571 1470 1571 1470 1499.5 1522.5 c 0
 1428 1575 1428 1575 1333.5 1599 c 0
 1239 1623 1239 1623 1116 1623 c 2
 101 1623 l 1
 101 1270 l 1
 256 1270 l 1
 256 359 l 1
 102 359 l 1
 102 -1 l 1
 648 0 648 0 912 0 c 1
 912 359 l 1
785 920 m 1
 785 1270 l 1
 906 1270 l 2
 995 1270 995 1270 1045.5 1222.5 c 0
 1096 1175 1096 1175 1096 1096 c 0
 1096 1046 1096 1046 1075 1010 c 0
 1054 974 1054 974 1017 955 c 0
 980 936 980 936 938.5 928 c 0
 897 920 897 920 846 920 c 2
 785 920 l 1
EndSplineSet
EndChar

StartChar: S
Encoding: 83 83 47
Width: 1329
VWidth: 0
Flags: W
LayerCount: 2
Fore
SplineSet
874 1623 m 1
 846 1575 846 1575 842 1563 c 1
 723 1653 723 1653 530 1653 c 0
 307 1653 307 1653 190.5 1512 c 0
 74 1371 74 1371 74 1133 c 0
 74 1067 74 1067 83.5 1010 c 0
 93 953 93 953 109 907 c 0
 125 861 125 861 151 820.5 c 0
 177 780 177 780 206 749 c 0
 235 718 235 718 275 690 c 0
 315 662 315 662 353.5 641.5 c 0
 392 621 392 621 443 601 c 0
 494 581 494 581 539 566.5 c 0
 584 552 584 552 643 535 c 0
 680 525 680 525 705 514 c 0
 730 503 730 503 752 478.5 c 0
 774 454 774 454 774 420 c 0
 774 379 774 379 741.5 356.5 c 0
 709 334 709 334 665 334 c 0
 592 334 592 334 525 389.5 c 0
 458 445 458 445 432 518 c 1
 110 518 l 1
 110 0 l 1
 433 0 l 1
 469 92 l 1
 547 26 547 26 618.5 -1.5 c 0
 690 -29 690 -29 798 -29 c 0
 903 -29 903 -29 994.5 16.5 c 0
 1086 62 1086 62 1147.5 137 c 0
 1209 212 1209 212 1243.5 309 c 0
 1278 406 1278 406 1276 508 c 0
 1274 612 1274 612 1247.5 696.5 c 0
 1221 781 1221 781 1178 837.5 c 0
 1135 894 1135 894 1080 937.5 c 0
 1025 981 1025 981 964.5 1007.5 c 0
 904 1034 904 1034 843.5 1055 c 0
 783 1076 783 1076 728.5 1091.5 c 0
 674 1107 674 1107 632 1123 c 0
 590 1139 590 1139 565.5 1161 c 0
 541 1183 541 1183 541 1213 c 0
 541 1259 541 1259 566 1282 c 0
 591 1305 591 1305 635 1305 c 0
 710 1305 710 1305 772 1245 c 0
 834 1185 834 1185 852 1107 c 1
 1159 1107 l 1
 1159 1623 l 1
 874 1623 l 1
EndSplineSet
EndChar

StartChar: Scaron
Encoding: 352 352 48
Width: 1329
VWidth: 0
Flags: W
LayerCount: 2
Fore
SplineSet
874 1623 m 1
 846 1575 846 1575 842 1563 c 1
 723 1653 723 1653 530 1653 c 0
 307 1653 307 1653 190.5 1512 c 0
 74 1371 74 1371 74 1133 c 0
 74 1067 74 1067 83.5 1010 c 0
 93 953 93 953 109 907 c 0
 125 861 125 861 151 820.5 c 0
 177 780 177 780 206 749 c 0
 235 718 235 718 275 690 c 0
 315 662 315 662 353.5 641.5 c 0
 392 621 392 621 443 601 c 0
 494 581 494 581 539 566.5 c 0
 584 552 584 552 643 535 c 0
 680 525 680 525 705 514 c 0
 730 503 730 503 752 478.5 c 0
 774 454 774 454 774 420 c 0
 774 379 774 379 741.5 356.5 c 0
 709 334 709 334 665 334 c 0
 592 334 592 334 525 389.5 c 0
 458 445 458 445 432 518 c 1
 110 518 l 1
 110 0 l 1
 433 0 l 1
 469 92 l 1
 547 26 547 26 618.5 -1.5 c 0
 690 -29 690 -29 798 -29 c 0
 903 -29 903 -29 994.5 16.5 c 0
 1086 62 1086 62 1147.5 137 c 0
 1209 212 1209 212 1243.5 309 c 0
 1278 406 1278 406 1276 508 c 0
 1274 612 1274 612 1247.5 696.5 c 0
 1221 781 1221 781 1178 837.5 c 0
 1135 894 1135 894 1080 937.5 c 0
 1025 981 1025 981 964.5 1007.5 c 0
 904 1034 904 1034 843.5 1055 c 0
 783 1076 783 1076 728.5 1091.5 c 0
 674 1107 674 1107 632 1123 c 0
 590 1139 590 1139 565.5 1161 c 0
 541 1183 541 1183 541 1213 c 0
 541 1259 541 1259 566 1282 c 0
 591 1305 591 1305 635 1305 c 0
 710 1305 710 1305 772 1245 c 0
 834 1185 834 1185 852 1107 c 1
 1159 1107 l 1
 1159 1623 l 1
 874 1623 l 1
535 1711 m 1
 262 2088 l 1
 416 2189 l 1
 671 1944 l 1
 926 2189 l 1
 1080 2088 l 1
 806 1712 l 1
 535 1711 l 1
EndSplineSet
EndChar

StartChar: Scommaaccent
Encoding: 536 536 49
Width: 1329
VWidth: 0
Flags: W
LayerCount: 2
Fore
SplineSet
874 1623 m 1
 846 1575 846 1575 842 1563 c 1
 723 1653 723 1653 530 1653 c 0
 307 1653 307 1653 190.5 1512 c 0
 74 1371 74 1371 74 1133 c 0
 74 1067 74 1067 83.5 1010 c 0
 93 953 93 953 109 907 c 0
 125 861 125 861 151 820.5 c 0
 177 780 177 780 206 749 c 0
 235 718 235 718 275 690 c 0
 315 662 315 662 353.5 641.5 c 0
 392 621 392 621 443 601 c 0
 494 581 494 581 539 566.5 c 0
 584 552 584 552 643 535 c 0
 680 525 680 525 705 514 c 0
 730 503 730 503 752 478.5 c 0
 774 454 774 454 774 420 c 0
 774 379 774 379 741.5 356.5 c 0
 709 334 709 334 665 334 c 0
 592 334 592 334 525 389.5 c 0
 458 445 458 445 432 518 c 1
 110 518 l 1
 110 0 l 1
 433 0 l 1
 469 92 l 1
 547 26 547 26 618.5 -1.5 c 0
 690 -29 690 -29 798 -29 c 0
 903 -29 903 -29 994.5 16.5 c 0
 1086 62 1086 62 1147.5 137 c 0
 1209 212 1209 212 1243.5 309 c 0
 1278 406 1278 406 1276 508 c 0
 1274 612 1274 612 1247.5 696.5 c 0
 1221 781 1221 781 1178 837.5 c 0
 1135 894 1135 894 1080 937.5 c 0
 1025 981 1025 981 964.5 1007.5 c 0
 904 1034 904 1034 843.5 1055 c 0
 783 1076 783 1076 728.5 1091.5 c 0
 674 1107 674 1107 632 1123 c 0
 590 1139 590 1139 565.5 1161 c 0
 541 1183 541 1183 541 1213 c 0
 541 1259 541 1259 566 1282 c 0
 591 1305 591 1305 635 1305 c 0
 710 1305 710 1305 772 1245 c 0
 834 1185 834 1185 852 1107 c 1
 1159 1107 l 1
 1159 1623 l 1
 874 1623 l 1
416 -899 m 1
 690 -899 690 -899 820 -769.5 c 0
 950 -640 950 -640 950 -362 c 0
 950 -240 950 -240 926 -85 c 1
 416 -85 l 1
 416 -451 l 1
 605 -451 l 1
 605 -493 605 -493 604 -515.5 c 0
 603 -538 603 -538 597.5 -568 c 0
 592 -598 592 -598 580 -614 c 0
 568 -630 568 -630 547.5 -645.5 c 0
 527 -661 527 -661 494 -667.5 c 0
 461 -674 461 -674 416 -674 c 1
 416 -899 l 1
EndSplineSet
EndChar

StartChar: T
Encoding: 84 84 50
Width: 1535
VWidth: 0
Flags: W
LayerCount: 2
Fore
SplineSet
1496 965 m 1
 1496 1622 l 1
 39 1622 l 1
 39 965 l 1
 320 965 l 1
 384 1270 l 1
 484 1270 l 1
 484 360 l 1
 320 360 l 1
 320 0 l 1
 1211 0 l 1
 1211 360 l 1
 1047 360 l 1
 1047 1270 l 1
 1153 1270 l 1
 1215 965 l 1
 1496 965 l 1
EndSplineSet
EndChar

StartChar: Tcommaaccent
Encoding: 354 354 51
Width: 1531
VWidth: 0
Flags: W
LayerCount: 2
Fore
SplineSet
1494 965 m 1
 1494 1622 l 1
 37 1622 l 1
 37 965 l 1
 318 965 l 1
 382 1270 l 1
 482 1270 l 1
 482 360 l 1
 318 360 l 1
 318 0 l 1
 1209 0 l 1
 1209 360 l 1
 1045 360 l 1
 1045 1270 l 1
 1151 1270 l 1
 1213 965 l 1
 1494 965 l 1
372 -899 m 1
 646 -899 646 -899 776 -769.5 c 0
 906 -640 906 -640 906 -362 c 0
 906 -239 906 -239 882 -85 c 1
 372 -85 l 1
 372 -451 l 1
 561 -451 l 1
 561 -493 561 -493 560 -515.5 c 0
 559 -538 559 -538 553.5 -568 c 0
 548 -598 548 -598 536 -614 c 0
 524 -630 524 -630 503.5 -645.5 c 0
 483 -661 483 -661 450 -667.5 c 0
 417 -674 417 -674 372 -674 c 1
 372 -899 l 1
EndSplineSet
EndChar

StartChar: Thorn
Encoding: 222 222 52
Width: 1638
VWidth: 0
Flags: W
LayerCount: 2
Fore
SplineSet
90 0 m 1
 951 0 l 1
 951 363 l 1
 805 363 l 1
 805 569 l 1
 884 559 884 559 955 559 c 0
 1107 559 1107 559 1225.5 587.5 c 0
 1344 616 1344 616 1432.5 675.5 c 0
 1521 735 1521 735 1568 833.5 c 0
 1615 932 1615 932 1615 1066 c 0
 1615 1139 1615 1139 1599.5 1200 c 0
 1584 1261 1584 1261 1558.5 1306.5 c 0
 1533 1352 1533 1352 1492 1388.5 c 0
 1451 1425 1451 1425 1407.5 1449.5 c 0
 1364 1474 1364 1474 1304.5 1492 c 0
 1245 1510 1245 1510 1190.5 1520 c 0
 1136 1530 1136 1530 1065 1535.5 c 0
 994 1541 994 1541 936 1542 c 0
 878 1543 878 1543 804 1543 c 1
 805 1843 l 1
 95 1843 l 1
 95 1488 l 1
 246 1488 l 1
 246 363 l 1
 90 363 l 1
 90 0 l 1
805 1208 m 1
 909 1208 l 2
 986 1208 986 1208 1039.5 1170 c 0
 1093 1132 1093 1132 1093 1056 c 0
 1093 970 1093 970 1034.5 932.5 c 0
 976 895 976 895 866 895 c 2
 805 895 l 1
 805 1208 l 1
EndSplineSet
EndChar

StartChar: U
Encoding: 85 85 53
Width: 1683
VWidth: 0
Flags: W
LayerCount: 2
Fore
SplineSet
1485 1270 m 1
 1639 1270 l 1
 1639 1622 l 1
 985 1622 l 1
 985 1270 l 1
 1149 1270 l 1
 1149 536 l 2
 1149 448 1149 448 1097 397 c 0
 1045 346 1045 346 953 346 c 0
 901 346 901 346 862.5 368 c 0
 824 390 824 390 803.5 427.5 c 0
 783 465 783 465 773.5 508 c 0
 764 551 764 551 764 600 c 2
 764 1270 l 1
 912 1270 l 1
 912 1622 l 1
 43 1622 l 1
 43 1270 l 1
 204 1270 l 1
 204 704 l 2
 204 616 204 616 211.5 541 c 0
 219 466 219 466 238.5 390 c 0
 258 314 258 314 289 253 c 0
 320 192 320 192 369 138 c 0
 418 84 418 84 482.5 48 c 0
 547 12 547 12 636 -8.5 c 0
 725 -29 725 -29 834 -29 c 0
 1005 -29 1005 -29 1153 39 c 0
 1301 107 1301 107 1393 234.5 c 0
 1485 362 1485 362 1485 520 c 2
 1485 1270 l 1
EndSplineSet
EndChar

StartChar: Uacute
Encoding: 218 218 54
Width: 1683
VWidth: 0
Flags: W
LayerCount: 2
Fore
SplineSet
1485 1270 m 1
 1639 1270 l 1
 1639 1622 l 1
 985 1622 l 1
 985 1270 l 1
 1149 1270 l 1
 1149 536 l 2
 1149 448 1149 448 1097 397 c 0
 1045 346 1045 346 953 346 c 0
 901 346 901 346 862.5 368 c 0
 824 390 824 390 803.5 427.5 c 0
 783 465 783 465 773.5 508 c 0
 764 551 764 551 764 600 c 2
 764 1270 l 1
 912 1270 l 1
 912 1622 l 1
 43 1622 l 1
 43 1270 l 1
 204 1270 l 1
 204 704 l 2
 204 616 204 616 211.5 541 c 0
 219 466 219 466 238.5 390 c 0
 258 314 258 314 289 253 c 0
 320 192 320 192 369 138 c 0
 418 84 418 84 482.5 48 c 0
 547 12 547 12 636 -8.5 c 0
 725 -29 725 -29 834 -29 c 0
 1005 -29 1005 -29 1153 39 c 0
 1301 107 1301 107 1393 234.5 c 0
 1485 362 1485 362 1485 520 c 2
 1485 1270 l 1
986 2270 m 1
 512 1833 l 1
 616 1692 l 1
 1170 2005 l 1
 986 2270 l 1
EndSplineSet
EndChar

StartChar: Ucircumflex
Encoding: 219 219 55
Width: 1683
VWidth: 0
Flags: W
LayerCount: 2
Fore
SplineSet
1485 1270 m 1
 1639 1270 l 1
 1639 1622 l 1
 985 1622 l 1
 985 1270 l 1
 1149 1270 l 1
 1149 536 l 2
 1149 448 1149 448 1097 397 c 0
 1045 346 1045 346 953 346 c 0
 901 346 901 346 862.5 368 c 0
 824 390 824 390 803.5 427.5 c 0
 783 465 783 465 773.5 508 c 0
 764 551 764 551 764 600 c 2
 764 1270 l 1
 912 1270 l 1
 912 1622 l 1
 43 1622 l 1
 43 1270 l 1
 204 1270 l 1
 204 704 l 2
 204 616 204 616 211.5 541 c 0
 219 466 219 466 238.5 390 c 0
 258 314 258 314 289 253 c 0
 320 192 320 192 369 138 c 0
 418 84 418 84 482.5 48 c 0
 547 12 547 12 636 -8.5 c 0
 725 -29 725 -29 834 -29 c 0
 1005 -29 1005 -29 1153 39 c 0
 1301 107 1301 107 1393 234.5 c 0
 1485 362 1485 362 1485 520 c 2
 1485 1270 l 1
705 2163 m 1
 432 1786 l 1
 586 1685 l 1
 841 1930 l 1
 1096 1685 l 1
 1250 1786 l 1
 976 2162 l 1
 705 2163 l 1
EndSplineSet
EndChar

StartChar: Udieresis
Encoding: 220 220 56
Width: 1683
VWidth: 0
Flags: W
LayerCount: 2
Fore
SplineSet
1485 1270 m 1
 1639 1270 l 1
 1639 1622 l 1
 985 1622 l 1
 985 1270 l 1
 1149 1270 l 1
 1149 536 l 2
 1149 448 1149 448 1097 397 c 0
 1045 346 1045 346 953 346 c 0
 901 346 901 346 862.5 368 c 0
 824 390 824 390 803.5 427.5 c 0
 783 465 783 465 773.5 508 c 0
 764 551 764 551 764 600 c 2
 764 1270 l 1
 912 1270 l 1
 912 1622 l 1
 43 1622 l 1
 43 1270 l 1
 204 1270 l 1
 204 704 l 2
 204 616 204 616 211.5 541 c 0
 219 466 219 466 238.5 390 c 0
 258 314 258 314 289 253 c 0
 320 192 320 192 369 138 c 0
 418 84 418 84 482.5 48 c 0
 547 12 547 12 636 -8.5 c 0
 725 -29 725 -29 834 -29 c 0
 1005 -29 1005 -29 1153 39 c 0
 1301 107 1301 107 1393 234.5 c 0
 1485 362 1485 362 1485 520 c 2
 1485 1270 l 1
758 1904 m 0
 758 1796 758 1796 691.5 1735 c 0
 625 1674 625 1674 534 1674 c 0
 441 1674 441 1674 373.5 1735.5 c 0
 306 1797 306 1797 306 1907 c 0
 306 2014 306 2014 373 2074 c 0
 440 2134 440 2134 532 2134 c 0
 624 2134 624 2134 691 2073.5 c 0
 758 2013 758 2013 758 1904 c 0
1375 1904 m 0
 1375 1796 1375 1796 1308.5 1735 c 0
 1242 1674 1242 1674 1151 1674 c 0
 1058 1674 1058 1674 990.5 1735.5 c 0
 923 1797 923 1797 923 1907 c 0
 923 2014 923 2014 990 2074 c 0
 1057 2134 1057 2134 1149 2134 c 0
 1241 2134 1241 2134 1308 2073.5 c 0
 1375 2013 1375 2013 1375 1904 c 0
EndSplineSet
EndChar

StartChar: Ugrave
Encoding: 217 217 57
Width: 1683
VWidth: 0
Flags: W
LayerCount: 2
Fore
SplineSet
1485 1270 m 1
 1639 1270 l 1
 1639 1622 l 1
 985 1622 l 1
 985 1270 l 1
 1149 1270 l 1
 1149 536 l 2
 1149 448 1149 448 1097 397 c 0
 1045 346 1045 346 953 346 c 0
 901 346 901 346 862.5 368 c 0
 824 390 824 390 803.5 427.5 c 0
 783 465 783 465 773.5 508 c 0
 764 551 764 551 764 600 c 2
 764 1270 l 1
 912 1270 l 1
 912 1622 l 1
 43 1622 l 1
 43 1270 l 1
 204 1270 l 1
 204 704 l 2
 204 616 204 616 211.5 541 c 0
 219 466 219 466 238.5 390 c 0
 258 314 258 314 289 253 c 0
 320 192 320 192 369 138 c 0
 418 84 418 84 482.5 48 c 0
 547 12 547 12 636 -8.5 c 0
 725 -29 725 -29 834 -29 c 0
 1005 -29 1005 -29 1153 39 c 0
 1301 107 1301 107 1393 234.5 c 0
 1485 362 1485 362 1485 520 c 2
 1485 1270 l 1
696 2270 m 1
 1170 1833 l 1
 1066 1692 l 1
 512 2005 l 1
 696 2270 l 1
EndSplineSet
EndChar

StartChar: V
Encoding: 86 86 58
Width: 1668
VWidth: 0
Flags: W
LayerCount: 2
Fore
SplineSet
743 1270 m 1
 859 1270 l 1
 859 1622 l 1
 -6 1622 l 1
 -6 1270 l 1
 160 1270 l 1
 521 0 l 1
 1105 0 l 1
 1459 1032 l 2
 1465 1049 1465 1049 1475.5 1081 c 0
 1486 1113 1486 1113 1490.5 1126 c 0
 1495 1139 1495 1139 1504.5 1163 c 0
 1514 1187 1514 1187 1521 1196.5 c 0
 1528 1206 1528 1206 1540 1222 c 0
 1552 1238 1552 1238 1564.5 1244 c 0
 1577 1250 1577 1250 1595 1257.5 c 0
 1613 1265 1613 1265 1635 1267.5 c 0
 1657 1270 1657 1270 1684 1270 c 1
 1684 1622 l 1
 990 1622 l 1
 990 1270 l 1
 1064 1270 1064 1270 1100.5 1246.5 c 0
 1137 1223 1137 1223 1138 1181 c 0
 1139 1139 1139 1139 1121 1081 c 2
 945 517 l 1
 743 1270 l 1
EndSplineSet
EndChar

StartChar: W
Encoding: 87 87 59
Width: 2460
VWidth: 0
Flags: W
LayerCount: 2
Fore
SplineSet
-4 1623 m 1
 -5 1270 l 1
 139 1270 l 1
 488 0 l 1
 1025 0 l 1
 1227 706 l 1
 1420 0 l 1
 1963 0 l 1
 2284 1148 l 2
 2304 1219 2304 1219 2346.5 1244.5 c 0
 2389 1270 2389 1270 2473 1270 c 1
 2473 1623 l 1
 1822 1623 l 1
 1822 1270 l 1
 1896 1270 1896 1270 1920 1257.5 c 0
 1944 1245 1944 1245 1932 1201 c 2
 1797 703 l 1
 1544 1623 l 1
 1135 1623 l 1
 875 672 l 1
 716 1270 l 1
 857 1270 l 1
 857 1623 l 1
 -4 1623 l 1
EndSplineSet
EndChar

StartChar: X
Encoding: 88 88 60
Width: 1863
VWidth: 0
Flags: W
LayerCount: 2
Fore
SplineSet
1798 1623 m 1
 1061 1623 l 1
 1061 1270 l 1
 1084 1270 1084 1270 1115.5 1257.5 c 0
 1147 1245 1147 1245 1147 1226 c 0
 1147 1210 1147 1210 1124.5 1169.5 c 0
 1102 1129 1102 1129 1079 1096 c 2
 1057 1064 l 1
 895 1270 l 1
 977 1270 l 1
 977 1623 l 1
 99 1623 l 1
 99 1270 l 1
 230 1270 l 1
 601 862 l 1
 314 493 l 1
 253 408 253 408 195.5 383.5 c 0
 138 359 138 359 8 359 c 1
 8 0 l 1
 836 0 l 1
 830 359 l 1
 746 359 l 2
 720 359 720 359 701 376 c 0
 682 393 682 393 682 420 c 0
 682 434 682 434 688.5 453.5 c 0
 695 473 695 473 703 483 c 2
 813 634 l 1
 1056 359 l 1
 930 359 l 1
 930 0 l 1
 1829 0 l 1
 1829 359 l 1
 1707 359 l 1
 1278 829 l 1
 1536 1180 l 2
 1574 1233 1574 1233 1640 1251.5 c 0
 1706 1270 1706 1270 1798 1270 c 1
 1798 1623 l 1
EndSplineSet
EndChar

StartChar: Y
Encoding: 89 89 61
Width: 1559
VWidth: 0
Flags: W
LayerCount: 2
Fore
SplineSet
1564 1622 m 1
 927 1622 l 1
 927 1270 l 1
 935 1270 935 1270 949.5 1270 c 0
 964 1270 964 1270 971 1270 c 0
 978 1270 978 1270 989 1270 c 0
 1000 1270 1000 1270 1005.5 1268.5 c 0
 1011 1267 1011 1267 1018.5 1265 c 0
 1026 1263 1026 1263 1029.5 1259 c 0
 1033 1255 1033 1255 1037 1250 c 0
 1041 1245 1041 1245 1042.5 1237.5 c 0
 1044 1230 1044 1230 1044 1221 c 0
 1044 1166 1044 1166 930 993 c 1
 909 1023 909 1023 838.5 1131.5 c 0
 768 1240 768 1240 746 1270 c 1
 837 1270 l 1
 837 1622 l 1
 -15 1622 l 1
 -15 1270 l 1
 97 1270 l 1
 518 672 l 1
 518 359 l 1
 363 359 l 1
 363 0 l 1
 1232 0 l 1
 1232 359 l 1
 1075 359 l 1
 1075 724 l 1
 1279 1095 l 2
 1303 1140 1303 1140 1314.5 1159.5 c 0
 1326 1179 1326 1179 1346 1206 c 0
 1366 1233 1366 1233 1384 1243.5 c 0
 1402 1254 1402 1254 1428.5 1262 c 0
 1455 1270 1455 1270 1490 1270 c 2
 1564 1270 l 1
 1564 1622 l 1
EndSplineSet
EndChar

StartChar: Yacute
Encoding: 221 221 62
Width: 1559
VWidth: 0
Flags: W
LayerCount: 2
Fore
SplineSet
1564 1622 m 1
 927 1622 l 1
 927 1270 l 1
 935 1270 935 1270 949.5 1270 c 0
 964 1270 964 1270 971 1270 c 0
 978 1270 978 1270 989 1270 c 0
 1000 1270 1000 1270 1005.5 1268.5 c 0
 1011 1267 1011 1267 1018.5 1265 c 0
 1026 1263 1026 1263 1029.5 1259 c 0
 1033 1255 1033 1255 1037 1250 c 0
 1041 1245 1041 1245 1042.5 1237.5 c 0
 1044 1230 1044 1230 1044 1221 c 0
 1044 1166 1044 1166 930 993 c 1
 909 1023 909 1023 838.5 1131.5 c 0
 768 1240 768 1240 746 1270 c 1
 837 1270 l 1
 837 1622 l 1
 -15 1622 l 1
 -15 1270 l 1
 97 1270 l 1
 518 672 l 1
 518 359 l 1
 363 359 l 1
 363 0 l 1
 1232 0 l 1
 1232 359 l 1
 1075 359 l 1
 1075 724 l 1
 1279 1095 l 2
 1303 1140 1303 1140 1314.5 1159.5 c 0
 1326 1179 1326 1179 1346 1206 c 0
 1366 1233 1366 1233 1384 1243.5 c 0
 1402 1254 1402 1254 1428.5 1262 c 0
 1455 1270 1455 1270 1490 1270 c 2
 1564 1270 l 1
 1564 1622 l 1
922 2270 m 1
 448 1833 l 1
 552 1692 l 1
 1106 2005 l 1
 922 2270 l 1
EndSplineSet
EndChar

StartChar: Ydieresis
Encoding: 376 376 63
Width: 1559
VWidth: 0
Flags: W
LayerCount: 2
Fore
SplineSet
1564 1622 m 1
 927 1622 l 1
 927 1270 l 1
 935 1270 935 1270 949.5 1270 c 0
 964 1270 964 1270 971 1270 c 0
 978 1270 978 1270 989 1270 c 0
 1000 1270 1000 1270 1005.5 1268.5 c 0
 1011 1267 1011 1267 1018.5 1265 c 0
 1026 1263 1026 1263 1029.5 1259 c 0
 1033 1255 1033 1255 1037 1250 c 0
 1041 1245 1041 1245 1042.5 1237.5 c 0
 1044 1230 1044 1230 1044 1221 c 0
 1044 1166 1044 1166 930 993 c 1
 909 1023 909 1023 838.5 1131.5 c 0
 768 1240 768 1240 746 1270 c 1
 837 1270 l 1
 837 1622 l 1
 -15 1622 l 1
 -15 1270 l 1
 97 1270 l 1
 518 672 l 1
 518 359 l 1
 363 359 l 1
 363 0 l 1
 1232 0 l 1
 1232 359 l 1
 1075 359 l 1
 1075 724 l 1
 1279 1095 l 2
 1303 1140 1303 1140 1314.5 1159.5 c 0
 1326 1179 1326 1179 1346 1206 c 0
 1366 1233 1366 1233 1384 1243.5 c 0
 1402 1254 1402 1254 1428.5 1262 c 0
 1455 1270 1455 1270 1490 1270 c 2
 1564 1270 l 1
 1564 1622 l 1
694 1904 m 0
 694 1796 694 1796 627.5 1735 c 0
 561 1674 561 1674 470 1674 c 0
 377 1674 377 1674 309.5 1735.5 c 0
 242 1797 242 1797 242 1907 c 0
 242 2014 242 2014 309 2074 c 0
 376 2134 376 2134 468 2134 c 0
 560 2134 560 2134 627 2073.5 c 0
 694 2013 694 2013 694 1904 c 0
1311 1904 m 0
 1311 1796 1311 1796 1244.5 1735 c 0
 1178 1674 1178 1674 1087 1674 c 0
 994 1674 994 1674 926.5 1735.5 c 0
 859 1797 859 1797 859 1907 c 0
 859 2014 859 2014 926 2074 c 0
 993 2134 993 2134 1085 2134 c 0
 1177 2134 1177 2134 1244 2073.5 c 0
 1311 2013 1311 2013 1311 1904 c 0
EndSplineSet
EndChar

StartChar: Z
Encoding: 90 90 64
Width: 1607
VWidth: 0
Flags: W
LayerCount: 2
Fore
SplineSet
1495 1622 m 1
 101 1622 l 1
 101 938 l 1
 389 938 l 1
 469 1270 l 1
 784 1270 l 1
 105 350 l 1
 106 0 l 1
 1515 0 l 1
 1516 705 l 1
 1234 705 l 1
 1127 359 l 1
 818 359 l 1
 1495 1293 l 1
 1495 1622 l 1
EndSplineSet
EndChar

StartChar: Zcaron
Encoding: 381 381 65
Width: 1607
VWidth: 0
Flags: W
LayerCount: 2
Fore
SplineSet
1495 1622 m 1
 101 1622 l 1
 101 938 l 1
 389 938 l 1
 469 1270 l 1
 784 1270 l 1
 105 350 l 1
 106 0 l 1
 1515 0 l 1
 1516 705 l 1
 1234 705 l 1
 1127 359 l 1
 818 359 l 1
 1495 1293 l 1
 1495 1622 l 1
669 1700 m 1
 396 2077 l 1
 550 2178 l 1
 805 1933 l 1
 1060 2178 l 1
 1214 2077 l 1
 940 1701 l 1
 669 1700 l 1
EndSplineSet
EndChar

StartChar: a
Encoding: 97 97 66
Width: 1294
VWidth: 0
Flags: W
LayerCount: 2
Fore
SplineSet
30 308 m 0
 30 159 30 159 143.5 70.5 c 0
 257 -18 257 -18 419 -18 c 0
 501 -18 501 -18 588 18 c 0
 675 54 675 54 725 119 c 1
 775 0 l 1
 1247 0 l 1
 1247 305 l 1
 1171 305 l 1
 1171 750 l 2
 1171 819 1171 819 1145.5 874.5 c 0
 1120 930 1120 930 1082.5 965 c 0
 1045 1000 1045 1000 988.5 1025.5 c 0
 932 1051 932 1051 883.5 1063.5 c 0
 835 1076 835 1076 772.5 1083 c 0
 710 1090 710 1090 677 1091 c 0
 644 1092 644 1092 603 1092 c 0
 496 1092 496 1092 375 1074.5 c 0
 254 1057 254 1057 187 1040 c 2
 120 1022 l 1
 120 708 l 1
 295 708 l 1
 367 803 367 803 510 803 c 0
 721 803 721 803 721 637 c 2
 721 592 l 1
 611 630 611 630 465 630 c 0
 382 630 382 630 305.5 609.5 c 0
 229 589 229 589 167 550 c 0
 105 511 105 511 67.5 448 c 0
 30 385 30 385 30 308 c 0
520 326 m 0
 520 369 520 369 551 403.5 c 0
 582 438 582 438 625 438 c 0
 647 438 647 438 671.5 433 c 0
 696 428 696 428 710 422 c 2
 724 417 l 1
 724 270 l 1
 720 265 720 265 712 257.5 c 0
 704 250 704 250 676 237 c 0
 648 224 648 224 616 224 c 0
 572 224 572 224 546 252.5 c 0
 520 281 520 281 520 326 c 0
EndSplineSet
EndChar

StartChar: aacute
Encoding: 225 225 67
Width: 1294
VWidth: 0
Flags: W
LayerCount: 2
Fore
SplineSet
30 308 m 0
 30 159 30 159 143.5 70.5 c 0
 257 -18 257 -18 419 -18 c 0
 501 -18 501 -18 588 18 c 0
 675 54 675 54 725 119 c 1
 775 0 l 1
 1247 0 l 1
 1247 305 l 1
 1171 305 l 1
 1171 750 l 2
 1171 819 1171 819 1145.5 874.5 c 0
 1120 930 1120 930 1082.5 965 c 0
 1045 1000 1045 1000 988.5 1025.5 c 0
 932 1051 932 1051 883.5 1063.5 c 0
 835 1076 835 1076 772.5 1083 c 0
 710 1090 710 1090 677 1091 c 0
 644 1092 644 1092 603 1092 c 0
 496 1092 496 1092 375 1074.5 c 0
 254 1057 254 1057 187 1040 c 2
 120 1022 l 1
 120 708 l 1
 295 708 l 1
 367 803 367 803 510 803 c 0
 721 803 721 803 721 637 c 2
 721 592 l 1
 611 630 611 630 465 630 c 0
 382 630 382 630 305.5 609.5 c 0
 229 589 229 589 167 550 c 0
 105 511 105 511 67.5 448 c 0
 30 385 30 385 30 308 c 0
520 326 m 0
 520 369 520 369 551 403.5 c 0
 582 438 582 438 625 438 c 0
 647 438 647 438 671.5 433 c 0
 696 428 696 428 710 422 c 2
 724 417 l 1
 724 270 l 1
 720 265 720 265 712 257.5 c 0
 704 250 704 250 676 237 c 0
 648 224 648 224 616 224 c 0
 572 224 572 224 546 252.5 c 0
 520 281 520 281 520 326 c 0
908 1708 m 1
 434 1271 l 1
 538 1130 l 1
 1092 1443 l 1
 908 1708 l 1
EndSplineSet
EndChar

StartChar: acircumflex
Encoding: 226 226 68
Width: 1294
VWidth: 0
Flags: W
LayerCount: 2
Fore
SplineSet
30 308 m 0
 30 159 30 159 143.5 70.5 c 0
 257 -18 257 -18 419 -18 c 0
 501 -18 501 -18 588 18 c 0
 675 54 675 54 725 119 c 1
 775 0 l 1
 1247 0 l 1
 1247 305 l 1
 1171 305 l 1
 1171 750 l 2
 1171 819 1171 819 1145.5 874.5 c 0
 1120 930 1120 930 1082.5 965 c 0
 1045 1000 1045 1000 988.5 1025.5 c 0
 932 1051 932 1051 883.5 1063.5 c 0
 835 1076 835 1076 772.5 1083 c 0
 710 1090 710 1090 677 1091 c 0
 644 1092 644 1092 603 1092 c 0
 496 1092 496 1092 375 1074.5 c 0
 254 1057 254 1057 187 1040 c 2
 120 1022 l 1
 120 708 l 1
 295 708 l 1
 367 803 367 803 510 803 c 0
 721 803 721 803 721 637 c 2
 721 592 l 1
 611 630 611 630 465 630 c 0
 382 630 382 630 305.5 609.5 c 0
 229 589 229 589 167 550 c 0
 105 511 105 511 67.5 448 c 0
 30 385 30 385 30 308 c 0
520 326 m 0
 520 369 520 369 551 403.5 c 0
 582 438 582 438 625 438 c 0
 647 438 647 438 671.5 433 c 0
 696 428 696 428 710 422 c 2
 724 417 l 1
 724 270 l 1
 720 265 720 265 712 257.5 c 0
 704 250 704 250 676 237 c 0
 648 224 648 224 616 224 c 0
 572 224 572 224 546 252.5 c 0
 520 281 520 281 520 326 c 0
505 1601 m 1
 232 1224 l 1
 386 1123 l 1
 641 1368 l 1
 896 1123 l 1
 1050 1224 l 1
 776 1600 l 1
 505 1601 l 1
EndSplineSet
EndChar

StartChar: acute
Encoding: 180 180 69
Width: 1016
VWidth: 0
Flags: W
LayerCount: 2
Fore
SplineSet
667 1708 m 1
 193 1271 l 1
 297 1130 l 1
 851 1443 l 1
 667 1708 l 1
EndSplineSet
EndChar

StartChar: adieresis
Encoding: 228 228 70
Width: 1294
VWidth: 0
Flags: W
LayerCount: 2
Fore
SplineSet
30 308 m 0
 30 159 30 159 143.5 70.5 c 0
 257 -18 257 -18 419 -18 c 0
 501 -18 501 -18 588 18 c 0
 675 54 675 54 725 119 c 1
 775 0 l 1
 1247 0 l 1
 1247 305 l 1
 1171 305 l 1
 1171 750 l 2
 1171 819 1171 819 1145.5 874.5 c 0
 1120 930 1120 930 1082.5 965 c 0
 1045 1000 1045 1000 988.5 1025.5 c 0
 932 1051 932 1051 883.5 1063.5 c 0
 835 1076 835 1076 772.5 1083 c 0
 710 1090 710 1090 677 1091 c 0
 644 1092 644 1092 603 1092 c 0
 496 1092 496 1092 375 1074.5 c 0
 254 1057 254 1057 187 1040 c 2
 120 1022 l 1
 120 708 l 1
 295 708 l 1
 367 803 367 803 510 803 c 0
 721 803 721 803 721 637 c 2
 721 592 l 1
 611 630 611 630 465 630 c 0
 382 630 382 630 305.5 609.5 c 0
 229 589 229 589 167 550 c 0
 105 511 105 511 67.5 448 c 0
 30 385 30 385 30 308 c 0
520 326 m 0
 520 369 520 369 551 403.5 c 0
 582 438 582 438 625 438 c 0
 647 438 647 438 671.5 433 c 0
 696 428 696 428 710 422 c 2
 724 417 l 1
 724 270 l 1
 720 265 720 265 712 257.5 c 0
 704 250 704 250 676 237 c 0
 648 224 648 224 616 224 c 0
 572 224 572 224 546 252.5 c 0
 520 281 520 281 520 326 c 0
559 1342 m 0
 559 1234 559 1234 492.5 1173 c 0
 426 1112 426 1112 335 1112 c 0
 242 1112 242 1112 174.5 1173.5 c 0
 107 1235 107 1235 107 1345 c 0
 107 1452 107 1452 174 1512 c 0
 241 1572 241 1572 333 1572 c 0
 425 1572 425 1572 492 1511.5 c 0
 559 1451 559 1451 559 1342 c 0
1176 1342 m 0
 1176 1234 1176 1234 1109.5 1173 c 0
 1043 1112 1043 1112 952 1112 c 0
 859 1112 859 1112 791.5 1173.5 c 0
 724 1235 724 1235 724 1345 c 0
 724 1452 724 1452 791 1512 c 0
 858 1572 858 1572 950 1572 c 0
 1042 1572 1042 1572 1109 1511.5 c 0
 1176 1451 1176 1451 1176 1342 c 0
EndSplineSet
EndChar

StartChar: ae
Encoding: 230 230 71
Width: 1911
VWidth: 0
Flags: W
LayerCount: 2
Fore
SplineSet
30 299 m 0
 30 199 30 199 85 124 c 0
 140 49 140 49 227 11.5 c 0
 314 -26 314 -26 419 -27 c 0
 615 -29 615 -29 739.5 0 c 0
 864 29 864 29 967 105 c 1
 1110 -25 1110 -25 1299 -25 c 0
 1459 -25 1459 -25 1586.5 8 c 0
 1714 41 1714 41 1846 120 c 1
 1846 358 l 1
 1539 358 l 1
 1537 285 1537 285 1504 250 c 0
 1471 215 1471 215 1399 215 c 0
 1317 215 1317 215 1269.5 281.5 c 0
 1222 348 1222 348 1222 441 c 1
 1824 441 l 2
 1843 441 1843 441 1847.5 444.5 c 0
 1852 448 1852 448 1861 469 c 1
 1866 514 1866 514 1866 548 c 0
 1866 698 1866 698 1803.5 818 c 0
 1741 938 1741 938 1614 1011.5 c 0
 1487 1085 1487 1085 1315 1085 c 0
 1252 1085 1252 1085 1193.5 1072 c 0
 1135 1059 1135 1059 1096.5 1041 c 0
 1058 1023 1058 1023 1028 1005 c 0
 998 987 998 987 985 974 c 2
 971 961 l 1
 966 966 966 966 956 974 c 0
 946 982 946 982 911.5 1003 c 0
 877 1024 877 1024 838 1040.5 c 0
 799 1057 799 1057 735 1070 c 0
 671 1083 671 1083 603 1083 c 0
 496 1083 496 1083 375 1065.5 c 0
 254 1048 254 1048 187 1030 c 2
 120 1013 l 1
 120 699 l 1
 295 699 l 1
 367 794 367 794 510 794 c 0
 721 794 721 794 721 628 c 2
 721 583 l 1
 611 621 611 621 465 621 c 0
 382 621 382 621 305.5 600.5 c 0
 229 580 229 580 167 541 c 0
 105 502 105 502 67.5 439 c 0
 30 376 30 376 30 299 c 0
520 317 m 0
 520 360 520 360 551 394.5 c 0
 582 429 582 429 625 429 c 0
 647 429 647 429 671.5 423.5 c 0
 696 418 696 418 710 413 c 2
 724 408 l 1
 724 261 l 1
 720 256 720 256 712 248.5 c 0
 704 241 704 241 676 228 c 0
 648 215 648 215 616 215 c 0
 572 215 572 215 546 243.5 c 0
 520 272 520 272 520 317 c 0
1224 649 m 2
 1224 710 1224 710 1251 758.5 c 0
 1278 807 1278 807 1332 807 c 0
 1369 807 1369 807 1393 789.5 c 0
 1417 772 1417 772 1426 739.5 c 0
 1435 707 1435 707 1437.5 681 c 0
 1440 655 1440 655 1439 620 c 1
 1224 620 l 1
 1224 649 l 2
EndSplineSet
EndChar

StartChar: agrave
Encoding: 224 224 72
Width: 1294
VWidth: 0
Flags: W
LayerCount: 2
Fore
SplineSet
30 308 m 0
 30 159 30 159 143.5 70.5 c 0
 257 -18 257 -18 419 -18 c 0
 501 -18 501 -18 588 18 c 0
 675 54 675 54 725 119 c 1
 775 0 l 1
 1247 0 l 1
 1247 305 l 1
 1171 305 l 1
 1171 750 l 2
 1171 819 1171 819 1145.5 874.5 c 0
 1120 930 1120 930 1082.5 965 c 0
 1045 1000 1045 1000 988.5 1025.5 c 0
 932 1051 932 1051 883.5 1063.5 c 0
 835 1076 835 1076 772.5 1083 c 0
 710 1090 710 1090 677 1091 c 0
 644 1092 644 1092 603 1092 c 0
 496 1092 496 1092 375 1074.5 c 0
 254 1057 254 1057 187 1040 c 2
 120 1022 l 1
 120 708 l 1
 295 708 l 1
 367 803 367 803 510 803 c 0
 721 803 721 803 721 637 c 2
 721 592 l 1
 611 630 611 630 465 630 c 0
 382 630 382 630 305.5 609.5 c 0
 229 589 229 589 167 550 c 0
 105 511 105 511 67.5 448 c 0
 30 385 30 385 30 308 c 0
520 326 m 0
 520 369 520 369 551 403.5 c 0
 582 438 582 438 625 438 c 0
 647 438 647 438 671.5 433 c 0
 696 428 696 428 710 422 c 2
 724 417 l 1
 724 270 l 1
 720 265 720 265 712 257.5 c 0
 704 250 704 250 676 237 c 0
 648 224 648 224 616 224 c 0
 572 224 572 224 546 252.5 c 0
 520 281 520 281 520 326 c 0
496 1708 m 1
 970 1271 l 1
 866 1130 l 1
 312 1443 l 1
 496 1708 l 1
EndSplineSet
EndChar

StartChar: ampersand
Encoding: 38 38 73
Width: 1728
VWidth: 0
Flags: W
LayerCount: 2
Fore
SplineSet
1656 0 m 1
 1656 368 l 1
 1426 368 l 1
 1283 516 1283 516 1278 518 c 1
 1448 694 l 2
 1512 760 1512 760 1549 786.5 c 0
 1586 813 1586 813 1656 837 c 1
 1656 1126 l 1
 1173 1126 l 1
 1173 831 l 1
 1220 831 l 2
 1247 831 1247 831 1247 796 c 0
 1247 780 1247 780 1220 748.5 c 0
 1193 717 1193 717 1167 693 c 2
 1140 669 l 1
 961 844 l 1
 1014 891 1014 891 1041 919 c 0
 1068 947 1068 947 1091 985 c 0
 1114 1023 1114 1023 1122 1065.5 c 0
 1130 1108 1130 1108 1130 1169 c 0
 1130 1249 1130 1249 1092.5 1316.5 c 0
 1055 1384 1055 1384 994 1426.5 c 0
 933 1469 933 1469 858 1492 c 0
 783 1515 783 1515 706 1515 c 0
 608 1515 608 1515 521 1488.5 c 0
 434 1462 434 1462 368 1412 c 0
 302 1362 302 1362 263.5 1284.5 c 0
 225 1207 225 1207 225 1111 c 1
 228 936 228 936 344 809 c 1
 188 742 188 742 110.5 638 c 0
 33 534 33 534 30 380 c 1
 34 189 34 189 161.5 82 c 0
 289 -25 289 -25 483 -27 c 1
 759 -21 759 -21 944 183 c 1
 1068 49 1068 49 1117 0 c 1
 1656 0 l 1
487 487 m 0
 487 504 487 504 493.5 520.5 c 0
 500 537 500 537 508.5 549 c 0
 517 561 517 561 526 570.5 c 0
 535 580 535 580 541 584 c 2
 548 589 l 1
 755 375 l 1
 703 335 703 335 641 335 c 0
 575 335 575 335 531 378 c 0
 487 421 487 421 487 487 c 0
678 1175 m 0
 678 1214 678 1214 705.5 1243.5 c 0
 733 1273 733 1273 772 1273 c 0
 823 1273 823 1273 849.5 1238 c 0
 876 1203 876 1203 876 1152 c 0
 876 1111 876 1111 854 1084.5 c 0
 832 1058 832 1058 784 1025 c 1
 752 1050 752 1050 733 1068 c 0
 714 1086 714 1086 696 1115.5 c 0
 678 1145 678 1145 678 1175 c 0
EndSplineSet
EndChar

StartChar: approxequal
Encoding: 8776 8776 74
Width: 1707
VWidth: 0
Flags: W
LayerCount: 2
Fore
SplineSet
1090 74 m 0
 1148 74 1148 74 1194 100 c 0
 1240 126 1240 126 1274 173.5 c 0
 1308 221 1308 221 1332.5 268.5 c 0
 1357 316 1357 316 1387.5 378.5 c 0
 1418 441 1418 441 1442 477 c 1
 1313 562 l 1
 1210 438 1210 438 1169.5 403 c 0
 1129 368 1129 368 1104 368 c 0
 1060 368 1060 368 1007 388.5 c 0
 954 409 954 409 903.5 438 c 0
 853 467 853 467 801 496.5 c 0
 749 526 749 526 689.5 546.5 c 0
 630 567 630 567 575 567 c 0
 517 567 517 567 470.5 541.5 c 0
 424 516 424 516 390 468.5 c 0
 356 421 356 421 331 374.5 c 0
 306 328 306 328 275.5 265 c 0
 245 202 245 202 221 165 c 1
 352 79 l 1
 461 209 461 209 499 243 c 0
 537 277 537 277 564 277 c 0
 608 277 608 277 660.5 256 c 0
 713 235 713 235 762.5 205 c 0
 812 175 812 175 864 145.5 c 0
 916 116 916 116 975.5 95 c 0
 1035 74 1035 74 1090 74 c 0
1112 629 m 0
 1170 629 1170 629 1216 655 c 0
 1262 681 1262 681 1296 728.5 c 0
 1330 776 1330 776 1354.5 823.5 c 0
 1379 871 1379 871 1409.5 933.5 c 0
 1440 996 1440 996 1464 1032 c 1
 1335 1117 l 1
 1232 993 1232 993 1191.5 958 c 0
 1151 923 1151 923 1126 923 c 0
 1082 923 1082 923 1029 943.5 c 0
 976 964 976 964 925.5 993 c 0
 875 1022 875 1022 823 1051.5 c 0
 771 1081 771 1081 711.5 1101.5 c 0
 652 1122 652 1122 597 1122 c 0
 539 1122 539 1122 492.5 1096.5 c 0
 446 1071 446 1071 412 1023.5 c 0
 378 976 378 976 353 929.5 c 0
 328 883 328 883 297.5 820 c 0
 267 757 267 757 243 720 c 1
 374 634 l 1
 483 764 483 764 521 798 c 0
 559 832 559 832 586 832 c 0
 630 832 630 832 682.5 811 c 0
 735 790 735 790 784.5 760 c 0
 834 730 834 730 886 700.5 c 0
 938 671 938 671 997.5 650 c 0
 1057 629 1057 629 1112 629 c 0
EndSplineSet
EndChar

StartChar: aring
Encoding: 229 229 75
Width: 1294
VWidth: 0
Flags: W
LayerCount: 2
Fore
SplineSet
30 308 m 0
 30 159 30 159 143.5 70.5 c 0
 257 -18 257 -18 419 -18 c 0
 501 -18 501 -18 588 18 c 0
 675 54 675 54 725 119 c 1
 775 0 l 1
 1247 0 l 1
 1247 305 l 1
 1171 305 l 1
 1171 750 l 2
 1171 819 1171 819 1145.5 874.5 c 0
 1120 930 1120 930 1082.5 965 c 0
 1045 1000 1045 1000 988.5 1025.5 c 0
 932 1051 932 1051 883.5 1063.5 c 0
 835 1076 835 1076 772.5 1083 c 0
 710 1090 710 1090 677 1091 c 0
 644 1092 644 1092 603 1092 c 0
 496 1092 496 1092 375 1074.5 c 0
 254 1057 254 1057 187 1040 c 2
 120 1022 l 1
 120 708 l 1
 295 708 l 1
 367 803 367 803 510 803 c 0
 721 803 721 803 721 637 c 2
 721 592 l 1
 611 630 611 630 465 630 c 0
 382 630 382 630 305.5 609.5 c 0
 229 589 229 589 167 550 c 0
 105 511 105 511 67.5 448 c 0
 30 385 30 385 30 308 c 0
520 326 m 0
 520 369 520 369 551 403.5 c 0
 582 438 582 438 625 438 c 0
 647 438 647 438 671.5 433 c 0
 696 428 696 428 710 422 c 2
 724 417 l 1
 724 270 l 1
 720 265 720 265 712 257.5 c 0
 704 250 704 250 676 237 c 0
 648 224 648 224 616 224 c 0
 572 224 572 224 546 252.5 c 0
 520 281 520 281 520 326 c 0
637 1240 m 0
 562 1240 562 1240 519 1284 c 0
 476 1328 476 1328 476 1388 c 0
 476 1447 476 1447 518.5 1490 c 0
 561 1533 561 1533 637 1533 c 0
 715 1533 715 1533 758.5 1490 c 0
 802 1447 802 1447 802 1388 c 0
 802 1328 802 1328 758 1284 c 0
 714 1240 714 1240 637 1240 c 0
637 1138 m 0
 768 1138 768 1138 842.5 1213 c 0
 917 1288 917 1288 917 1389 c 0
 917 1489 917 1489 843.5 1561 c 0
 770 1633 770 1633 637 1633 c 0
 508 1633 508 1633 437 1560.5 c 0
 366 1488 366 1488 366 1389 c 0
 366 1288 366 1288 438 1213 c 0
 510 1138 510 1138 637 1138 c 0
EndSplineSet
EndChar

StartChar: asciicircum
Encoding: 94 94 76
Width: 1707
VWidth: 0
Flags: W
LayerCount: 2
Fore
SplineSet
1088 1624 m 1
 1584 909 l 1
 1119 909 l 1
 903 1242 l 1
 687 909 l 1
 222 909 l 1
 718 1624 l 1
 1088 1624 l 1
EndSplineSet
EndChar

StartChar: asciitilde
Encoding: 126 126 77
Width: 1289
VWidth: 0
Flags: W
LayerCount: 2
Fore
SplineSet
914 629 m 0
 972 629 972 629 1018 655 c 0
 1064 681 1064 681 1098 728.5 c 0
 1132 776 1132 776 1156.5 823.5 c 0
 1181 871 1181 871 1211.5 933.5 c 0
 1242 996 1242 996 1266 1032 c 1
 1137 1117 l 1
 1034 993 1034 993 993.5 958 c 0
 953 923 953 923 928 923 c 0
 884 923 884 923 831 943.5 c 0
 778 964 778 964 727.5 993 c 0
 677 1022 677 1022 625 1051.5 c 0
 573 1081 573 1081 513.5 1101.5 c 0
 454 1122 454 1122 399 1122 c 0
 341 1122 341 1122 294.5 1096.5 c 0
 248 1071 248 1071 214 1023.5 c 0
 180 976 180 976 155 929.5 c 0
 130 883 130 883 99.5 820 c 0
 69 757 69 757 45 720 c 1
 176 634 l 1
 285 764 285 764 323 798 c 0
 361 832 361 832 388 832 c 0
 432 832 432 832 484.5 811 c 0
 537 790 537 790 586.5 760 c 0
 636 730 636 730 688 700.5 c 0
 740 671 740 671 799.5 650 c 0
 859 629 859 629 914 629 c 0
EndSplineSet
EndChar

StartChar: asterisk
Encoding: 42 42 78
Width: 1347
VWidth: 0
Flags: W
LayerCount: 2
Fore
SplineSet
92 1328 m 1
 69 1294 69 1294 65.5 1253 c 0
 62 1212 62 1212 84 1169 c 0
 106 1126 106 1126 153 1095 c 0
 201 1063 201 1063 269 1037 c 0
 337 1011 337 1011 432 983 c 0
 527 955 527 955 556 945 c 1
 524 934 524 934 431.5 906.5 c 0
 339 879 339 879 270 852.5 c 0
 201 826 201 826 153 795 c 0
 106 764 106 764 84 721 c 0
 62 678 62 678 65.5 637 c 0
 69 596 69 596 92 562 c 1
 127 507 127 507 190.5 494 c 0
 254 481 254 481 331 526 c 1
 364 548 364 548 405 587 c 0
 446 626 446 626 466 648.5 c 0
 486 671 486 671 539 734.5 c 0
 592 798 592 798 597 804 c 1
 591 784 591 784 570.5 715.5 c 0
 550 647 550 647 541 611.5 c 0
 532 576 532 576 522 522.5 c 0
 512 469 512 469 512 429 c 0
 512 345 512 345 560 297 c 0
 608 249 608 249 673 249 c 0
 738 249 738 249 786 297 c 0
 834 345 834 345 834 429 c 0
 834 469 834 469 824 523.5 c 0
 814 578 814 578 805.5 610 c 0
 797 642 797 642 774.5 716.5 c 0
 752 791 752 791 748 804 c 1
 760 790 760 790 807.5 733.5 c 0
 855 677 855 677 878.5 650.5 c 0
 902 624 902 624 942 586 c 0
 982 548 982 548 1015 526 c 1
 1092 481 1092 481 1155.5 494 c 0
 1219 507 1219 507 1254 562 c 1
 1277 596 1277 596 1280.5 637 c 0
 1284 678 1284 678 1262 721 c 0
 1240 764 1240 764 1193 795 c 0
 1145 826 1145 826 1076 852.5 c 0
 1007 879 1007 879 914.5 906 c 0
 822 933 822 933 789 945 c 1
 818 955 818 955 913 983 c 0
 1008 1011 1008 1011 1076.5 1037 c 0
 1145 1063 1145 1063 1193 1095 c 0
 1240 1126 1240 1126 1262 1169 c 0
 1284 1212 1284 1212 1280.5 1253 c 0
 1277 1294 1277 1294 1254 1328 c 1
 1219 1383 1219 1383 1155.5 1396 c 0
 1092 1409 1092 1409 1015 1364 c 1
 982 1342 982 1342 942.5 1304.5 c 0
 903 1267 903 1267 878 1238.5 c 0
 853 1210 853 1210 808 1156.5 c 0
 763 1103 763 1103 748 1086 c 1
 754 1105 754 1105 769.5 1156.5 c 0
 785 1208 785 1208 793.5 1238 c 0
 802 1268 802 1268 813 1311.5 c 0
 824 1355 824 1355 829 1392 c 0
 834 1429 834 1429 834 1461 c 0
 834 1545 834 1545 786 1593 c 0
 738 1641 738 1641 673 1641 c 0
 608 1641 608 1641 560 1593 c 0
 512 1545 512 1545 512 1461 c 0
 512 1421 512 1421 522 1367 c 0
 532 1313 532 1313 541 1279 c 0
 550 1245 550 1245 571 1173.5 c 0
 592 1102 592 1102 597 1086 c 1
 587 1098 587 1098 538.5 1156 c 0
 490 1214 490 1214 467 1239.5 c 0
 444 1265 444 1265 404 1303.5 c 0
 364 1342 364 1342 331 1364 c 1
 254 1409 254 1409 190.5 1396 c 0
 127 1383 127 1383 92 1328 c 1
EndSplineSet
EndChar

StartChar: at
Encoding: 64 64 79
Width: 1899
VWidth: 0
Flags: W
LayerCount: 2
Fore
SplineSet
1398 603 m 2
 1398 676 1398 676 1380.5 735 c 0
 1363 794 1363 794 1337.5 830.5 c 0
 1312 867 1312 867 1272.5 894 c 0
 1233 921 1233 921 1200 934 c 0
 1167 947 1167 947 1123.5 954.5 c 0
 1080 962 1080 962 1057 963 c 0
 1034 964 1034 964 1005 964 c 0
 894 964 894 964 809.5 933.5 c 0
 725 903 725 903 676.5 849.5 c 0
 628 796 628 796 604 730.5 c 0
 580 665 580 665 580 588 c 0
 580 409 580 409 663.5 299.5 c 0
 747 190 747 190 866 190 c 0
 923 190 923 190 983.5 217.5 c 0
 1044 245 1044 245 1079 294 c 1
 1117 204 l 1
 1267 204 l 2
 1418 204 1418 204 1530 239 c 0
 1642 274 1642 274 1709.5 338.5 c 0
 1777 403 1777 403 1809.5 487.5 c 0
 1842 572 1842 572 1842 677 c 0
 1842 821 1842 821 1783.5 947.5 c 0
 1725 1074 1725 1074 1617.5 1168.5 c 0
 1510 1263 1510 1263 1347 1317.5 c 0
 1184 1372 1184 1372 987 1372 c 0
 776 1372 776 1372 603 1308 c 0
 430 1244 430 1244 317 1134 c 0
 204 1024 204 1024 143 878.5 c 0
 82 733 82 733 82 567 c 0
 82 409 82 409 146 270.5 c 0
 210 132 210 132 328.5 27.5 c 0
 447 -77 447 -77 630 -137.5 c 0
 813 -198 813 -198 1037 -198 c 0
 1142 -198 1142 -198 1252 -169 c 1
 1200 59 l 1
 1124 37 1124 37 1037 37 c 0
 881 37 881 37 757.5 78.5 c 0
 634 120 634 120 556 192.5 c 0
 478 265 478 265 437.5 360.5 c 0
 397 456 397 456 397 567 c 0
 397 819 397 819 550 968 c 0
 703 1117 703 1117 987 1117 c 0
 1267 1117 1267 1117 1412 997 c 0
 1557 877 1557 877 1557 677 c 0
 1557 604 1557 604 1547 550.5 c 0
 1537 497 1537 497 1522 468.5 c 0
 1507 440 1507 440 1484 423.5 c 0
 1461 407 1461 407 1442 402.5 c 0
 1423 398 1423 398 1399 398 c 1
 1398 603 l 2
923 582 m 0
 923 632 923 632 926 669 c 0
 929 706 929 706 937 742 c 0
 945 778 945 778 961.5 797.5 c 0
 978 817 978 817 1003 817 c 0
 1045 817 1045 817 1062 785.5 c 0
 1079 754 1079 754 1079 671 c 2
 1079 409 l 1
 1051 374 1051 374 996 374 c 0
 963 374 963 374 943 431.5 c 0
 923 489 923 489 923 582 c 0
EndSplineSet
EndChar

StartChar: atilde
Encoding: 227 227 80
Width: 1294
VWidth: 0
Flags: W
LayerCount: 2
Fore
SplineSet
30 308 m 0
 30 159 30 159 143.5 70.5 c 0
 257 -18 257 -18 419 -18 c 0
 501 -18 501 -18 588 18 c 0
 675 54 675 54 725 119 c 1
 775 0 l 1
 1247 0 l 1
 1247 305 l 1
 1171 305 l 1
 1171 750 l 2
 1171 819 1171 819 1145.5 874.5 c 0
 1120 930 1120 930 1082.5 965 c 0
 1045 1000 1045 1000 988.5 1025.5 c 0
 932 1051 932 1051 883.5 1063.5 c 0
 835 1076 835 1076 772.5 1083 c 0
 710 1090 710 1090 677 1091 c 0
 644 1092 644 1092 603 1092 c 0
 496 1092 496 1092 375 1074.5 c 0
 254 1057 254 1057 187 1040 c 2
 120 1022 l 1
 120 708 l 1
 295 708 l 1
 367 803 367 803 510 803 c 0
 721 803 721 803 721 637 c 2
 721 592 l 1
 611 630 611 630 465 630 c 0
 382 630 382 630 305.5 609.5 c 0
 229 589 229 589 167 550 c 0
 105 511 105 511 67.5 448 c 0
 30 385 30 385 30 308 c 0
520 326 m 0
 520 369 520 369 551 403.5 c 0
 582 438 582 438 625 438 c 0
 647 438 647 438 671.5 433 c 0
 696 428 696 428 710 422 c 2
 724 417 l 1
 724 270 l 1
 720 265 720 265 712 257.5 c 0
 704 250 704 250 676 237 c 0
 648 224 648 224 616 224 c 0
 572 224 572 224 546 252.5 c 0
 520 281 520 281 520 326 c 0
789 1523 m 0
 833 1523 833 1523 869 1504 c 0
 905 1485 905 1485 931 1450.5 c 0
 957 1416 957 1416 976.5 1382 c 0
 996 1348 996 1348 1019.5 1303 c 0
 1043 1258 1043 1258 1061 1232 c 1
 948 1158 l 1
 875 1228 875 1228 847.5 1247 c 0
 820 1266 820 1266 801 1266 c 0
 756 1266 756 1266 694 1236 c 0
 632 1206 632 1206 565.5 1175.5 c 0
 499 1145 499 1145 444 1145 c 0
 399 1145 399 1145 363 1163.5 c 0
 327 1182 327 1182 300.5 1216.5 c 0
 274 1251 274 1251 255 1284.5 c 0
 236 1318 236 1318 212 1363.5 c 0
 188 1409 188 1409 170 1435 c 1
 284 1510 l 1
 360 1437 360 1437 388 1417.5 c 0
 416 1398 416 1398 434 1398 c 0
 470 1398 470 1398 517 1417.5 c 0
 564 1437 564 1437 603 1460.5 c 0
 642 1484 642 1484 693 1503.5 c 0
 744 1523 744 1523 789 1523 c 0
EndSplineSet
EndChar

StartChar: b
Encoding: 98 98 81
Width: 1401
VWidth: 0
Flags: W
LayerCount: 2
Fore
SplineSet
599 1631 m 1
 33 1631 l 1
 33 1325 l 1
 117 1325 l 1
 117 0 l 1
 567 0 l 1
 607 102 l 1
 705 32 705 32 742 14 c 0
 808 -18 808 -18 883 -18 c 0
 976 -18 976 -18 1054.5 13 c 0
 1133 44 1133 44 1188 97 c 0
 1243 150 1243 150 1281.5 221 c 0
 1320 292 1320 292 1338 372 c 0
 1356 452 1356 452 1356 538 c 0
 1356 619 1356 619 1338.5 697.5 c 0
 1321 776 1321 776 1284.5 847.5 c 0
 1248 919 1248 919 1195.5 973.5 c 0
 1143 1028 1143 1028 1068 1060 c 0
 993 1092 993 1092 904 1092 c 0
 756 1092 756 1092 599 965 c 1
 599 1631 l 1
603 662 m 1
 605 666 605 666 608.5 672.5 c 0
 612 679 612 679 625 695.5 c 0
 638 712 638 712 652 724.5 c 0
 666 737 666 737 689.5 747.5 c 0
 713 758 713 758 738 758 c 0
 777 758 777 758 805.5 741 c 0
 834 724 834 724 850 700 c 0
 866 676 866 676 875.5 641.5 c 0
 885 607 885 607 887.5 578.5 c 0
 890 550 890 550 890 519 c 0
 890 427 890 427 847 377.5 c 0
 804 328 804 328 738 328 c 0
 702 328 702 328 668 345 c 0
 634 362 634 362 618 379 c 2
 603 396 l 1
 603 662 l 1
EndSplineSet
EndChar

StartChar: backslash
Encoding: 92 92 82
Width: 1031
VWidth: 0
Flags: W
LayerCount: 2
Fore
SplineSet
400 0 m 1
 58 1623 l 1
 632 1623 l 1
 973 0 l 1
 400 0 l 1
EndSplineSet
EndChar

StartChar: bar
Encoding: 124 124 83
Width: 685
VWidth: 0
Flags: W
LayerCount: 2
Fore
SplineSet
145 1623 m 1
 145 0 l 1
 540 0 l 1
 540 1623 l 1
 145 1623 l 1
EndSplineSet
EndChar

StartChar: braceleft
Encoding: 123 123 84
Width: 873
VWidth: 0
Flags: W
LayerCount: 2
Fore
SplineSet
169 1128 m 0
 169 1096 169 1096 163.5 1072 c 0
 158 1048 158 1048 142.5 1022.5 c 0
 127 997 127 997 92 982 c 0
 57 967 57 967 4 965 c 1
 4 722 l 1
 57 720 57 720 92 705 c 0
 127 690 127 690 142.5 664.5 c 0
 158 639 158 639 163.5 615 c 0
 169 591 169 591 169 559 c 0
 169 441 169 441 208.5 338.5 c 0
 248 236 248 236 325 155.5 c 0
 402 75 402 75 528 29 c 0
 654 -17 654 -17 815 -17 c 1
 815 314 l 1
 653 314 653 314 653 560 c 0
 653 751 653 751 402 843 c 1
 653 936 653 936 653 1127 c 0
 653 1373 653 1373 815 1373 c 1
 815 1704 l 1
 654 1704 654 1704 528 1658 c 0
 402 1612 402 1612 325 1531.5 c 0
 248 1451 248 1451 208.5 1348.5 c 0
 169 1246 169 1246 169 1128 c 0
EndSplineSet
EndChar

StartChar: braceright
Encoding: 125 125 85
Width: 872
VWidth: 0
Flags: W
LayerCount: 2
Fore
SplineSet
704 1128 m 0
 704 1096 704 1096 709.5 1072 c 0
 715 1048 715 1048 730.5 1022.5 c 0
 746 997 746 997 781 982 c 0
 816 967 816 967 869 965 c 1
 869 722 l 1
 816 720 816 720 781 705 c 0
 746 690 746 690 730.5 664.5 c 0
 715 639 715 639 709.5 615 c 0
 704 591 704 591 704 559 c 0
 704 441 704 441 664.5 338.5 c 0
 625 236 625 236 548 155.5 c 0
 471 75 471 75 345 29 c 0
 219 -17 219 -17 58 -17 c 1
 58 314 l 1
 220 314 220 314 220 560 c 0
 220 751 220 751 471 843 c 1
 220 936 220 936 220 1127 c 0
 220 1373 220 1373 58 1373 c 1
 58 1704 l 1
 219 1704 219 1704 345 1658 c 0
 471 1612 471 1612 548 1531.5 c 0
 625 1451 625 1451 664.5 1348.5 c 0
 704 1246 704 1246 704 1128 c 0
EndSplineSet
EndChar

StartChar: bracketleft
Encoding: 91 91 86
Width: 910
VWidth: 0
Flags: W
LayerCount: 2
Fore
SplineSet
145 0 m 1
 145 1623 l 1
 859 1623 l 1
 859 1322 l 1
 662 1322 l 1
 662 311 l 1
 855 311 l 1
 854 0 l 1
 145 0 l 1
EndSplineSet
EndChar

StartChar: bracketright
Encoding: 93 93 87
Width: 909
VWidth: 0
Flags: W
LayerCount: 2
Fore
SplineSet
764 0 m 1
 764 1623 l 1
 50 1623 l 1
 50 1322 l 1
 247 1322 l 1
 247 311 l 1
 54 311 l 1
 55 0 l 1
 764 0 l 1
EndSplineSet
EndChar

StartChar: breve
Encoding: 728 728 88
Width: 1707
VWidth: 0
Flags: W
LayerCount: 2
Fore
SplineSet
770 1245 m 0
 571 1245 571 1245 468.5 1345 c 0
 366 1445 366 1445 366 1622 c 1
 618 1622 l 1
 618 1546 618 1546 663 1503.5 c 0
 708 1461 708 1461 770 1461 c 0
 832 1461 832 1461 877 1503.5 c 0
 922 1546 922 1546 922 1622 c 1
 1174 1622 l 1
 1174 1446 1174 1446 1070.5 1345.5 c 0
 967 1245 967 1245 770 1245 c 0
EndSplineSet
EndChar

StartChar: brokenbar
Encoding: 166 166 89
Width: 687
VWidth: 0
Flags: W
LayerCount: 2
Fore
SplineSet
146 721 m 1
 146 0 l 1
 541 0 l 1
 541 721 l 1
 146 721 l 1
146 1623 m 1
 146 902 l 1
 541 902 l 1
 541 1623 l 1
 146 1623 l 1
EndSplineSet
EndChar

StartChar: bullet
Encoding: 8226 8226 90
Width: 935
VWidth: 0
Flags: W
LayerCount: 2
Fore
SplineSet
74 537 m 2
 74 550 l 2
 74 639 74 639 107 711 c 0
 140 783 140 783 195.5 827.5 c 0
 251 872 251 872 319.5 895.5 c 0
 388 919 388 919 463 919 c 0
 539 919 539 919 609.5 894.5 c 0
 680 870 680 870 737 824 c 0
 794 778 794 778 828.5 703.5 c 0
 863 629 863 629 863 537 c 0
 863 442 863 442 829 364.5 c 0
 795 287 795 287 738 239.5 c 0
 681 192 681 192 610.5 166.5 c 0
 540 141 540 141 464 141 c 0
 387 141 387 141 317.5 166.5 c 0
 248 192 248 192 193 239.5 c 0
 138 287 138 287 106 364 c 0
 74 441 74 441 74 537 c 2
EndSplineSet
EndChar

StartChar: c
Encoding: 99 99 91
Width: 1110
VWidth: 0
Flags: W
LayerCount: 2
Fore
SplineSet
43 546 m 0
 43 368 43 368 116.5 238.5 c 0
 190 109 190 109 313.5 45.5 c 0
 437 -18 437 -18 595 -18 c 0
 721 -18 721 -18 845 18.5 c 0
 969 55 969 55 1038 124 c 1
 1038 425 l 1
 798 425 l 1
 797 420 797 420 795.5 411 c 0
 794 402 794 402 785.5 379.5 c 0
 777 357 777 357 764.5 340 c 0
 752 323 752 323 727.5 309 c 0
 703 295 703 295 671 295 c 0
 628 295 628 295 596.5 315 c 0
 565 335 565 335 548 368 c 0
 531 401 531 401 523.5 437 c 0
 516 473 516 473 516 513 c 0
 516 648 516 648 562 713 c 0
 608 778 608 778 671 778 c 0
 722 778 722 778 758 736 c 0
 794 694 794 694 794 628 c 1
 1036 628 l 1
 1036 1072 l 1
 861 1072 l 1
 820 995 l 1
 699 1092 699 1092 562 1092 c 0
 445 1092 445 1092 346 1047.5 c 0
 247 1003 247 1003 181.5 928 c 0
 116 853 116 853 79.5 754 c 0
 43 655 43 655 43 546 c 0
EndSplineSet
EndChar

StartChar: caron
Encoding: 711 711 92
Width: 1016
VWidth: 0
Flags: W
LayerCount: 2
Fore
SplineSet
366 1149 m 1
 93 1526 l 1
 247 1627 l 1
 502 1382 l 1
 757 1627 l 1
 911 1526 l 1
 637 1150 l 1
 366 1149 l 1
EndSplineSet
EndChar

StartChar: ccedilla
Encoding: 231 231 93
Width: 1112
VWidth: 0
Flags: W
LayerCount: 2
Fore
SplineSet
44 546 m 0
 44 368 44 368 117.5 238.5 c 0
 191 109 191 109 314.5 45.5 c 0
 438 -18 438 -18 596 -18 c 0
 722 -18 722 -18 846 18.5 c 0
 970 55 970 55 1039 124 c 1
 1039 425 l 1
 799 425 l 1
 798 420 798 420 796.5 411 c 0
 795 402 795 402 786.5 379.5 c 0
 778 357 778 357 765.5 340 c 0
 753 323 753 323 728.5 309 c 0
 704 295 704 295 672 295 c 0
 629 295 629 295 597.5 315 c 0
 566 335 566 335 549 368 c 0
 532 401 532 401 524.5 437 c 0
 517 473 517 473 517 513 c 0
 517 648 517 648 563 713 c 0
 609 778 609 778 672 778 c 0
 723 778 723 778 759 736 c 0
 795 694 795 694 795 628 c 1
 1037 628 l 1
 1037 1072 l 1
 862 1072 l 1
 821 995 l 1
 700 1092 700 1092 563 1092 c 0
 446 1092 446 1092 347 1047.5 c 0
 248 1003 248 1003 182.5 928 c 0
 117 853 117 853 80.5 754 c 0
 44 655 44 655 44 546 c 0
475 -119 m 1
 521 -145 521 -145 553 -188 c 0
 585 -231 585 -231 585 -271 c 0
 585 -315 585 -315 540 -343 c 0
 495 -371 495 -371 398 -372 c 1
 398 -485 l 1
 419 -485 l 2
 571 -485 571 -485 679.5 -426 c 0
 788 -367 788 -367 788 -285 c 0
 788 -196 788 -196 655 -119 c 1
 655 0 l 1
 475 0 l 1
 475 -119 l 1
EndSplineSet
EndChar

StartChar: cedilla
Encoding: 184 184 94
Width: 502
VWidth: 0
Flags: W
LayerCount: 2
Fore
SplineSet
147 -119 m 1
 193 -145 193 -145 225 -188 c 0
 257 -231 257 -231 257 -271 c 0
 257 -315 257 -315 212 -343 c 0
 167 -371 167 -371 70 -372 c 1
 70 -485 l 1
 91 -485 l 2
 243 -485 243 -485 351.5 -426 c 0
 460 -367 460 -367 460 -285 c 0
 460 -196 460 -196 327 -119 c 1
 327 0 l 1
 147 0 l 1
 147 -119 l 1
EndSplineSet
EndChar

StartChar: cent
Encoding: 162 162 95
Width: 1149
VWidth: 0
Flags: W
LayerCount: 2
Fore
SplineSet
621 1362 m 1
 621 1089 l 1
 598 1092 598 1092 575 1092 c 0
 458 1092 458 1092 359 1047.5 c 0
 260 1003 260 1003 194.5 928 c 0
 129 853 129 853 92.5 754 c 0
 56 655 56 655 56 546 c 0
 56 368 56 368 129.5 238.5 c 0
 203 109 203 109 326.5 45.5 c 0
 450 -18 450 -18 608 -18 c 2
 621 -18 l 1
 621 -261 l 1
 733 -261 l 1
 733 -9 l 1
 948 21 948 21 1051 124 c 1
 1051 425 l 1
 811 425 l 1
 811 421 811 421 809.5 415 c 0
 808 409 808 409 803 392 c 0
 798 375 798 375 790 360 c 0
 782 345 782 345 767 329 c 0
 752 313 752 313 733 305 c 1
 733 766 l 1
 766 750 766 750 786.5 713.5 c 0
 807 677 807 677 807 628 c 1
 1049 628 l 1
 1049 1072 l 1
 874 1072 l 1
 833 995 l 1
 783 1034 783 1034 733 1057 c 1
 733 1362 l 1
 621 1362 l 1
529 513 m 0
 529 701 529 701 621 759 c 1
 621 309 l 1
 573 332 573 332 551 389 c 0
 529 446 529 446 529 513 c 0
EndSplineSet
EndChar

StartChar: circumflex
Encoding: 710 710 96
Width: 1016
VWidth: 0
Flags: W
LayerCount: 2
Fore
SplineSet
376 1601 m 1
 103 1224 l 1
 257 1123 l 1
 512 1368 l 1
 767 1123 l 1
 921 1224 l 1
 647 1600 l 1
 376 1601 l 1
EndSplineSet
EndChar

StartChar: colon
Encoding: 58 58 97
Width: 724
VWidth: 0
Flags: W
LayerCount: 2
Fore
SplineSet
357 596 m 0
 238 596 238 596 159 663.5 c 0
 80 731 80 731 80 846 c 0
 80 959 80 959 157.5 1025 c 0
 235 1091 235 1091 357 1091 c 0
 484 1091 484 1091 564 1025 c 0
 644 959 644 959 644 846 c 0
 644 731 644 731 561.5 663.5 c 0
 479 596 479 596 357 596 c 0
357 -18 m 0
 238 -18 238 -18 159 49.5 c 0
 80 117 80 117 80 232 c 0
 80 345 80 345 157.5 411 c 0
 235 477 235 477 357 477 c 0
 484 477 484 477 564 411 c 0
 644 345 644 345 644 232 c 0
 644 117 644 117 561.5 49.5 c 0
 479 -18 479 -18 357 -18 c 0
EndSplineSet
EndChar

StartChar: comma
Encoding: 44 44 98
Width: 716
VWidth: 0
Flags: W
LayerCount: 2
Fore
SplineSet
95 -448 m 1
 369 -448 369 -448 499 -318.5 c 0
 629 -189 629 -189 629 89 c 0
 629 212 629 212 605 366 c 1
 95 366 l 1
 95 0 l 1
 284 0 l 1
 284 -42 284 -42 283 -64.5 c 0
 282 -87 282 -87 276.5 -117 c 0
 271 -147 271 -147 259 -163 c 0
 247 -179 247 -179 226.5 -194.5 c 0
 206 -210 206 -210 173 -216.5 c 0
 140 -223 140 -223 95 -223 c 1
 95 -448 l 1
EndSplineSet
EndChar

StartChar: copyright
Encoding: 169 169 99
Width: 1806
VWidth: 0
Flags: W
LayerCount: 2
Fore
SplineSet
129 1106 m 0
 63 956 63 956 63 792 c 0
 63 628 63 628 129.5 478 c 0
 196 328 196 328 308.5 219.5 c 0
 421 111 421 111 576.5 46.5 c 0
 732 -18 732 -18 903 -18 c 0
 1074 -18 1074 -18 1229.5 46.5 c 0
 1385 111 1385 111 1497.5 219.5 c 0
 1610 328 1610 328 1676.5 478 c 0
 1743 628 1743 628 1743 792 c 0
 1743 956 1743 956 1676.5 1106 c 0
 1610 1256 1610 1256 1497.5 1364.5 c 0
 1385 1473 1385 1473 1229.5 1537.5 c 0
 1074 1602 1074 1602 903 1602 c 0
 732 1602 732 1602 576.5 1537.5 c 0
 421 1473 421 1473 308.5 1364.5 c 0
 196 1256 196 1256 129 1106 c 0
903 1448 m 0
 1083 1448 1083 1448 1236.5 1360 c 0
 1390 1272 1390 1272 1479.5 1121 c 0
 1569 970 1569 970 1569 792 c 0
 1569 614 1569 614 1479.5 463 c 0
 1390 312 1390 312 1236.5 224 c 0
 1083 136 1083 136 903 136 c 0
 768 136 768 136 645 188 c 0
 522 240 522 240 432.5 328 c 0
 343 416 343 416 290 537.5 c 0
 237 659 237 659 237 792 c 0
 237 925 237 925 290 1046.5 c 0
 343 1168 343 1168 432.5 1256 c 0
 522 1344 522 1344 645 1396 c 0
 768 1448 768 1448 903 1448 c 0
1275 658 m 1
 1084 658 l 1
 1082 611 1082 611 1079 598 c 0
 1069 547 1069 547 1030.5 517.5 c 0
 992 488 992 488 940 488 c 0
 914 488 914 488 893 494.5 c 0
 872 501 872 501 856.5 510.5 c 0
 841 520 841 520 829 537.5 c 0
 817 555 817 555 809 569.5 c 0
 801 584 801 584 795.5 609 c 0
 790 634 790 634 787 649.5 c 0
 784 665 784 665 783 694 c 0
 782 723 782 723 781.5 735.5 c 0
 781 748 781 748 781.5 776.5 c 0
 782 805 782 805 782 812 c 0
 782 847 782 847 783 872 c 0
 784 897 784 897 788.5 932.5 c 0
 793 968 793 968 803 992.5 c 0
 813 1017 813 1017 829 1040.5 c 0
 845 1064 845 1064 871 1076 c 0
 897 1088 897 1088 932 1088 c 0
 985 1088 985 1088 1020 1057 c 0
 1055 1026 1055 1026 1068 985 c 0
 1081 944 1081 944 1080 898 c 1
 1269 898 l 1
 1269 1299 l 1
 1072 1299 l 1
 1050 1254 l 1
 984 1318 984 1318 822 1318 c 0
 733 1318 733 1318 659 1287 c 0
 585 1256 585 1256 535.5 1204 c 0
 486 1152 486 1152 452 1082 c 0
 418 1012 418 1012 403 936 c 0
 388 860 388 860 388 780 c 0
 388 536 388 536 513.5 394 c 0
 639 252 639 252 875 252 c 0
 941 252 941 252 1007 267 c 0
 1073 282 1073 282 1119 303.5 c 0
 1165 325 1165 325 1202 346.5 c 0
 1239 368 1239 368 1257 383 c 2
 1275 398 l 1
 1275 658 l 1
EndSplineSet
EndChar

StartChar: currency
Encoding: 164 164 100
Width: 1292
VWidth: 0
Flags: W
LayerCount: 2
Fore
SplineSet
70 1097 m 0
 70 879 70 879 192 734 c 1
 118 660 l 1
 221 557 l 1
 302 638 l 1
 450 540 450 540 644 540 c 0
 842 540 842 540 993 643 c 1
 1079 557 l 1
 1182 660 l 1
 1101 741 l 1
 1218 884 1218 884 1218 1097 c 0
 1218 1302 1218 1302 1108 1444 c 1
 1182 1518 l 1
 1079 1621 l 1
 1002 1544 l 1
 849 1654 849 1654 644 1654 c 0
 445 1654 445 1654 292 1549 c 1
 221 1621 l 1
 118 1518 l 1
 185 1450 l 1
 70 1307 70 1307 70 1097 c 0
991 1269 m 1
 1024 1192 1024 1192 1024 1097 c 0
 1024 1002 1024 1002 991.5 924.5 c 0
 959 847 959 847 904.5 799.5 c 0
 850 752 850 752 783 726.5 c 0
 716 701 716 701 644 701 c 0
 572 701 572 701 505 726.5 c 0
 438 752 438 752 383.5 799.5 c 0
 329 847 329 847 296.5 924.5 c 0
 264 1002 264 1002 264 1097 c 0
 264 1192 264 1192 296.5 1269.5 c 0
 329 1347 329 1347 383.5 1394.5 c 0
 438 1442 438 1442 505 1467.5 c 0
 572 1493 572 1493 644 1493 c 0
 716 1493 716 1493 783 1467.5 c 0
 850 1442 850 1442 904.5 1394.5 c 0
 959 1347 959 1347 991 1269 c 1
EndSplineSet
EndChar

StartChar: d
Encoding: 100 100 101
Width: 1442
VWidth: 0
Flags: W
LayerCount: 2
Fore
SplineSet
1370 305 m 1
 1293 305 l 1
 1292 1640 l 1
 707 1640 l 1
 707 1335 l 1
 797 1335 l 1
 797 960 l 1
 729 1029 729 1029 659.5 1059.5 c 0
 590 1090 590 1090 498 1090 c 0
 395 1090 395 1090 307.5 1043 c 0
 220 996 220 996 163 919 c 0
 106 842 106 842 74.5 746 c 0
 43 650 43 650 43 550 c 0
 43 445 43 445 72 346 c 0
 101 247 101 247 156 164.5 c 0
 211 82 211 82 302 31.5 c 0
 393 -19 393 -19 506 -19 c 1
 596 -18 596 -18 673 21 c 0
 750 60 750 60 801 128 c 1
 801 0 l 1
 1370 0 l 1
 1370 305 l 1
801 415 m 1
 799 411 799 411 795.5 404.5 c 0
 792 398 792 398 779 381.5 c 0
 766 365 766 365 752 352.5 c 0
 738 340 738 340 714.5 329.5 c 0
 691 319 691 319 666 319 c 0
 627 319 627 319 598.5 336 c 0
 570 353 570 353 554 377 c 0
 538 401 538 401 528.5 435.5 c 0
 519 470 519 470 516.5 498.5 c 0
 514 527 514 527 514 558 c 0
 514 650 514 650 557 699.5 c 0
 600 749 600 749 666 749 c 0
 702 749 702 749 736 732 c 0
 770 715 770 715 786 698 c 2
 801 681 l 1
 801 415 l 1
EndSplineSet
EndChar

StartChar: dagger
Encoding: 8224 8224 102
Width: 916
VWidth: 0
Flags: W
LayerCount: 2
Fore
SplineSet
61 991 m 1
 303 991 l 1
 303 0 l 1
 618 0 l 1
 618 991 l 1
 853 991 l 1
 853 1286 l 1
 618 1286 l 1
 618 1623 l 1
 303 1623 l 1
 303 1286 l 1
 61 1286 l 1
 61 991 l 1
EndSplineSet
EndChar

StartChar: daggerdbl
Encoding: 8225 8225 103
Width: 935
VWidth: 0
Flags: W
LayerCount: 2
Fore
SplineSet
71 991 m 1
 313 991 l 1
 313 681 l 1
 71 681 l 1
 71 386 l 1
 313 386 l 1
 313 0 l 1
 628 0 l 1
 628 386 l 1
 863 386 l 1
 863 681 l 1
 628 681 l 1
 628 991 l 1
 863 991 l 1
 863 1286 l 1
 628 1286 l 1
 628 1623 l 1
 313 1623 l 1
 313 1286 l 1
 71 1286 l 1
 71 991 l 1
EndSplineSet
EndChar

StartChar: degree
Encoding: 176 176 104
Width: 781
VWidth: 0
Flags: W
LayerCount: 2
Fore
SplineSet
385 1092 m 0
 292 1092 292 1092 238 1153 c 0
 184 1214 184 1214 184 1296 c 0
 184 1377 184 1377 237 1436 c 0
 290 1495 290 1495 385 1495 c 0
 483 1495 483 1495 538 1436 c 0
 593 1377 593 1377 593 1296 c 0
 593 1213 593 1213 537.5 1152.5 c 0
 482 1092 482 1092 385 1092 c 0
385 951 m 0
 472 951 472 951 543 980.5 c 0
 614 1010 614 1010 658.5 1059.5 c 0
 703 1109 703 1109 727 1170 c 0
 751 1231 751 1231 751 1297 c 0
 751 1362 751 1362 727.5 1421 c 0
 704 1480 704 1480 660 1528 c 0
 616 1576 616 1576 545 1604.5 c 0
 474 1633 474 1633 385 1633 c 0
 300 1633 300 1633 231 1604.5 c 0
 162 1576 162 1576 119.5 1528 c 0
 77 1480 77 1480 54.5 1420.5 c 0
 32 1361 32 1361 32 1297 c 0
 32 1231 32 1231 55 1170 c 0
 78 1109 78 1109 121 1059.5 c 0
 164 1010 164 1010 232.5 980.5 c 0
 301 951 301 951 385 951 c 0
EndSplineSet
EndChar

StartChar: dieresis
Encoding: 168 168 105
Width: 1707
VWidth: 0
Flags: W
LayerCount: 2
Fore
SplineSet
720 1342 m 0
 720 1234 720 1234 653.5 1173 c 0
 587 1112 587 1112 496 1112 c 0
 403 1112 403 1112 335.5 1173.5 c 0
 268 1235 268 1235 268 1345 c 0
 268 1452 268 1452 335 1512 c 0
 402 1572 402 1572 494 1572 c 0
 586 1572 586 1572 653 1511.5 c 0
 720 1451 720 1451 720 1342 c 0
1337 1342 m 0
 1337 1234 1337 1234 1270.5 1173 c 0
 1204 1112 1204 1112 1113 1112 c 0
 1020 1112 1020 1112 952.5 1173.5 c 0
 885 1235 885 1235 885 1345 c 0
 885 1452 885 1452 952 1512 c 0
 1019 1572 1019 1572 1111 1572 c 0
 1203 1572 1203 1572 1270 1511.5 c 0
 1337 1451 1337 1451 1337 1342 c 0
EndSplineSet
EndChar

StartChar: divide
Encoding: 247 247 106
Width: 920
VWidth: 0
Flags: W
LayerCount: 2
Fore
SplineSet
68 761 m 1
 68 538 l 1
 842 538 l 1
 842 761 l 1
 68 761 l 1
471 -18 m 0
 373 -18 373 -18 308 37.5 c 0
 243 93 243 93 243 188 c 0
 243 280 243 280 306.5 334.5 c 0
 370 389 370 389 471 389 c 0
 575 389 575 389 641 334.5 c 0
 707 280 707 280 707 188 c 0
 707 93 707 93 639 37.5 c 0
 571 -18 571 -18 471 -18 c 0
471 886 m 0
 373 886 373 886 308 941.5 c 0
 243 997 243 997 243 1092 c 0
 243 1184 243 1184 306.5 1238.5 c 0
 370 1293 370 1293 471 1293 c 0
 575 1293 575 1293 641 1238.5 c 0
 707 1184 707 1184 707 1092 c 0
 707 997 707 997 639 941.5 c 0
 571 886 571 886 471 886 c 0
EndSplineSet
EndChar

StartChar: dollar
Encoding: 36 36 107
Width: 1358
VWidth: 0
Flags: W
LayerCount: 2
Fore
SplineSet
95 66 m 1
 290 66 l 1
 334 128 l 1
 446 76 446 76 585 48 c 1
 585 -166 l 1
 816 -166 l 1
 816 35 l 1
 947 41 947 41 1058 106.5 c 0
 1169 172 1169 172 1233 281.5 c 0
 1297 391 1297 391 1294 518 c 0
 1292 603 1292 603 1265 672.5 c 0
 1238 742 1238 742 1195.5 791 c 0
 1153 840 1153 840 1090 879.5 c 0
 1027 919 1027 919 962.5 944 c 0
 898 969 898 969 816 991 c 1
 816 1219 l 2
 816 1225 816 1225 827 1225 c 0
 837 1225 837 1225 847 1214 c 1
 931 1136 931 1136 954 1040 c 1
 964 1030 l 1
 990 1028 990 1028 1001 1028 c 0
 1008 1028 1008 1028 1032.5 1029 c 0
 1057 1030 1057 1030 1058 1030 c 2
 1179 1034 l 1
 1185 1040 l 1
 1185 1466 l 2
 1185 1467 1185 1467 1184 1468 c 0
 1183 1469 1183 1469 1181.5 1470.5 c 0
 1180 1472 1180 1472 1179 1473 c 0
 1178 1473 1178 1473 1171 1475 c 0
 1164 1477 1164 1477 1162 1477 c 2
 1005 1477 l 1
 978 1450 l 1
 962 1434 l 1
 870 1476 870 1476 818 1494 c 1
 818 1704 l 1
 591 1704 l 1
 591 1513 l 1
 364 1501 364 1501 226.5 1380.5 c 0
 89 1260 89 1260 89 1053 c 0
 89 989 89 989 103 934.5 c 0
 117 880 117 880 139.5 839.5 c 0
 162 799 162 799 200 764 c 0
 238 729 238 729 276 704.5 c 0
 314 680 314 680 369.5 657 c 0
 425 634 425 634 472 619 c 0
 519 604 519 604 585 586 c 1
 585 298 l 1
 512 298 512 298 430.5 379 c 0
 349 460 349 460 342 545 c 1
 95 545 l 1
 95 66 l 1
916 399 m 1
 916 365 916 365 884.5 336 c 0
 853 307 853 307 816 307 c 1
 816 527 l 1
 871 519 871 519 896 480 c 0
 921 441 921 441 916 399 c 1
475 1180 m 0
 475 1217 475 1217 510.5 1244.5 c 0
 546 1272 546 1272 589 1270 c 1
 589 1059 l 1
 538 1070 538 1070 506.5 1103 c 0
 475 1136 475 1136 475 1180 c 0
EndSplineSet
EndChar

StartChar: dotaccent
Encoding: 729 729 108
Width: 1090
VWidth: 0
Flags: W
LayerCount: 2
Fore
SplineSet
557 1145 m 0
 438 1145 438 1145 359 1212.5 c 0
 280 1280 280 1280 280 1395 c 0
 280 1508 280 1508 357.5 1574 c 0
 435 1640 435 1640 557 1640 c 0
 684 1640 684 1640 764 1574 c 0
 844 1508 844 1508 844 1395 c 0
 844 1280 844 1280 761.5 1212.5 c 0
 679 1145 679 1145 557 1145 c 0
EndSplineSet
EndChar

StartChar: dotlessi
Encoding: 305 305 109
Width: 814
VWidth: 0
Flags: W
LayerCount: 2
Fore
SplineSet
661 1072 m 1
 91 1072 l 1
 91 747 l 1
 180 747 l 1
 180 299 l 1
 98 299 l 1
 98 0 l 1
 745 0 l 1
 745 299 l 1
 661 299 l 1
 661 1072 l 1
EndSplineSet
EndChar

StartChar: e
Encoding: 101 101 110
Width: 1224
VWidth: 0
Flags: W
LayerCount: 2
Fore
SplineSet
611 -18 m 0
 771 -18 771 -18 898.5 15 c 0
 1026 48 1026 48 1158 127 c 1
 1158 365 l 1
 851 365 l 1
 849 292 849 292 816 257 c 0
 783 222 783 222 711 222 c 0
 629 222 629 222 581.5 288.5 c 0
 534 355 534 355 534 448 c 1
 1136 448 l 2
 1155 448 1155 448 1159.5 451.5 c 0
 1164 455 1164 455 1173 476 c 1
 1178 521 1178 521 1178 555 c 0
 1178 705 1178 705 1115.5 825 c 0
 1053 945 1053 945 926 1018.5 c 0
 799 1092 799 1092 627 1092 c 0
 447 1092 447 1092 312.5 1017.5 c 0
 178 943 178 943 109 814.5 c 0
 40 686 40 686 40 521 c 0
 40 374 40 374 113 251 c 0
 186 128 186 128 317.5 55 c 0
 449 -18 449 -18 611 -18 c 0
536 656 m 2
 536 717 536 717 563 765.5 c 0
 590 814 590 814 644 814 c 0
 681 814 681 814 705 796.5 c 0
 729 779 729 779 738 746.5 c 0
 747 714 747 714 749.5 688 c 0
 752 662 752 662 751 627 c 1
 536 627 l 1
 536 656 l 2
EndSplineSet
EndChar

StartChar: eacute
Encoding: 233 233 111
Width: 1224
VWidth: 0
Flags: W
LayerCount: 2
Fore
SplineSet
611 -18 m 0
 771 -18 771 -18 898.5 15 c 0
 1026 48 1026 48 1158 127 c 1
 1158 365 l 1
 851 365 l 1
 849 292 849 292 816 257 c 0
 783 222 783 222 711 222 c 0
 629 222 629 222 581.5 288.5 c 0
 534 355 534 355 534 448 c 1
 1136 448 l 2
 1155 448 1155 448 1159.5 451.5 c 0
 1164 455 1164 455 1173 476 c 1
 1178 521 1178 521 1178 555 c 0
 1178 705 1178 705 1115.5 825 c 0
 1053 945 1053 945 926 1018.5 c 0
 799 1092 799 1092 627 1092 c 0
 447 1092 447 1092 312.5 1017.5 c 0
 178 943 178 943 109 814.5 c 0
 40 686 40 686 40 521 c 0
 40 374 40 374 113 251 c 0
 186 128 186 128 317.5 55 c 0
 449 -18 449 -18 611 -18 c 0
536 656 m 2
 536 717 536 717 563 765.5 c 0
 590 814 590 814 644 814 c 0
 681 814 681 814 705 796.5 c 0
 729 779 729 779 738 746.5 c 0
 747 714 747 714 749.5 688 c 0
 752 662 752 662 751 627 c 1
 536 627 l 1
 536 656 l 2
750 1708 m 1
 276 1271 l 1
 380 1130 l 1
 934 1443 l 1
 750 1708 l 1
EndSplineSet
EndChar

StartChar: ecircumflex
Encoding: 234 234 112
Width: 1224
VWidth: 0
Flags: W
LayerCount: 2
Fore
SplineSet
611 -18 m 0
 771 -18 771 -18 898.5 15 c 0
 1026 48 1026 48 1158 127 c 1
 1158 365 l 1
 851 365 l 1
 849 292 849 292 816 257 c 0
 783 222 783 222 711 222 c 0
 629 222 629 222 581.5 288.5 c 0
 534 355 534 355 534 448 c 1
 1136 448 l 2
 1155 448 1155 448 1159.5 451.5 c 0
 1164 455 1164 455 1173 476 c 1
 1178 521 1178 521 1178 555 c 0
 1178 705 1178 705 1115.5 825 c 0
 1053 945 1053 945 926 1018.5 c 0
 799 1092 799 1092 627 1092 c 0
 447 1092 447 1092 312.5 1017.5 c 0
 178 943 178 943 109 814.5 c 0
 40 686 40 686 40 521 c 0
 40 374 40 374 113 251 c 0
 186 128 186 128 317.5 55 c 0
 449 -18 449 -18 611 -18 c 0
536 656 m 2
 536 717 536 717 563 765.5 c 0
 590 814 590 814 644 814 c 0
 681 814 681 814 705 796.5 c 0
 729 779 729 779 738 746.5 c 0
 747 714 747 714 749.5 688 c 0
 752 662 752 662 751 627 c 1
 536 627 l 1
 536 656 l 2
469 1601 m 1
 196 1224 l 1
 350 1123 l 1
 605 1368 l 1
 860 1123 l 1
 1014 1224 l 1
 740 1600 l 1
 469 1601 l 1
EndSplineSet
EndChar

StartChar: edieresis
Encoding: 235 235 113
Width: 1224
VWidth: 0
Flags: W
LayerCount: 2
Fore
SplineSet
611 -18 m 0
 771 -18 771 -18 898.5 15 c 0
 1026 48 1026 48 1158 127 c 1
 1158 365 l 1
 851 365 l 1
 849 292 849 292 816 257 c 0
 783 222 783 222 711 222 c 0
 629 222 629 222 581.5 288.5 c 0
 534 355 534 355 534 448 c 1
 1136 448 l 2
 1155 448 1155 448 1159.5 451.5 c 0
 1164 455 1164 455 1173 476 c 1
 1178 521 1178 521 1178 555 c 0
 1178 705 1178 705 1115.5 825 c 0
 1053 945 1053 945 926 1018.5 c 0
 799 1092 799 1092 627 1092 c 0
 447 1092 447 1092 312.5 1017.5 c 0
 178 943 178 943 109 814.5 c 0
 40 686 40 686 40 521 c 0
 40 374 40 374 113 251 c 0
 186 128 186 128 317.5 55 c 0
 449 -18 449 -18 611 -18 c 0
536 656 m 2
 536 717 536 717 563 765.5 c 0
 590 814 590 814 644 814 c 0
 681 814 681 814 705 796.5 c 0
 729 779 729 779 738 746.5 c 0
 747 714 747 714 749.5 688 c 0
 752 662 752 662 751 627 c 1
 536 627 l 1
 536 656 l 2
523 1342 m 0
 523 1234 523 1234 456.5 1173 c 0
 390 1112 390 1112 299 1112 c 0
 206 1112 206 1112 138.5 1173.5 c 0
 71 1235 71 1235 71 1345 c 0
 71 1452 71 1452 138 1512 c 0
 205 1572 205 1572 297 1572 c 0
 389 1572 389 1572 456 1511.5 c 0
 523 1451 523 1451 523 1342 c 0
1140 1342 m 0
 1140 1234 1140 1234 1073.5 1173 c 0
 1007 1112 1007 1112 916 1112 c 0
 823 1112 823 1112 755.5 1173.5 c 0
 688 1235 688 1235 688 1345 c 0
 688 1452 688 1452 755 1512 c 0
 822 1572 822 1572 914 1572 c 0
 1006 1572 1006 1572 1073 1511.5 c 0
 1140 1451 1140 1451 1140 1342 c 0
EndSplineSet
EndChar

StartChar: egrave
Encoding: 232 232 114
Width: 1224
VWidth: 0
Flags: W
LayerCount: 2
Fore
SplineSet
611 -18 m 0
 771 -18 771 -18 898.5 15 c 0
 1026 48 1026 48 1158 127 c 1
 1158 365 l 1
 851 365 l 1
 849 292 849 292 816 257 c 0
 783 222 783 222 711 222 c 0
 629 222 629 222 581.5 288.5 c 0
 534 355 534 355 534 448 c 1
 1136 448 l 2
 1155 448 1155 448 1159.5 451.5 c 0
 1164 455 1164 455 1173 476 c 1
 1178 521 1178 521 1178 555 c 0
 1178 705 1178 705 1115.5 825 c 0
 1053 945 1053 945 926 1018.5 c 0
 799 1092 799 1092 627 1092 c 0
 447 1092 447 1092 312.5 1017.5 c 0
 178 943 178 943 109 814.5 c 0
 40 686 40 686 40 521 c 0
 40 374 40 374 113 251 c 0
 186 128 186 128 317.5 55 c 0
 449 -18 449 -18 611 -18 c 0
536 656 m 2
 536 717 536 717 563 765.5 c 0
 590 814 590 814 644 814 c 0
 681 814 681 814 705 796.5 c 0
 729 779 729 779 738 746.5 c 0
 747 714 747 714 749.5 688 c 0
 752 662 752 662 751 627 c 1
 536 627 l 1
 536 656 l 2
460 1708 m 1
 934 1271 l 1
 830 1130 l 1
 276 1443 l 1
 460 1708 l 1
EndSplineSet
EndChar

StartChar: eight
Encoding: 56 56 115
Width: 1322
VWidth: 0
Flags: W
LayerCount: 2
Fore
SplineSet
61 375 m 0
 61 630 61 630 322 730 c 1
 235 763 235 763 186.5 837 c 0
 138 911 138 911 138 1010 c 0
 138 1096 138 1096 174 1163 c 0
 210 1230 210 1230 264.5 1269.5 c 0
 319 1309 319 1309 392 1334 c 0
 465 1359 465 1359 530 1368 c 0
 595 1377 595 1377 661 1377 c 0
 727 1377 727 1377 792 1368 c 0
 857 1359 857 1359 930 1334 c 0
 1003 1309 1003 1309 1057.5 1269.5 c 0
 1112 1230 1112 1230 1148 1163 c 0
 1184 1096 1184 1096 1184 1010 c 0
 1184 911 1184 911 1135.5 837 c 0
 1087 763 1087 763 1000 730 c 1
 1261 630 1261 630 1261 375 c 0
 1261 282 1261 282 1221 210 c 0
 1181 138 1181 138 1120.5 96 c 0
 1060 54 1060 54 976.5 27 c 0
 893 0 893 0 817.5 -9 c 0
 742 -18 742 -18 661 -18 c 0
 580 -18 580 -18 504.5 -9 c 0
 429 0 429 0 345.5 27 c 0
 262 54 262 54 201.5 96 c 0
 141 138 141 138 101 210 c 0
 61 282 61 282 61 375 c 0
581 406 m 0
 581 240 581 240 661 240 c 0
 741 240 741 240 741 406 c 0
 741 578 741 578 661 578 c 0
 581 578 581 578 581 406 c 0
581 986 m 0
 581 824 581 824 661 824 c 0
 741 824 741 824 741 986 c 0
 741 1014 741 1014 738.5 1033.5 c 0
 736 1053 736 1053 729 1075.5 c 0
 722 1098 722 1098 704.5 1109.5 c 0
 687 1121 687 1121 661 1121 c 0
 635 1121 635 1121 617.5 1109.5 c 0
 600 1098 600 1098 593 1075.5 c 0
 586 1053 586 1053 583.5 1033.5 c 0
 581 1014 581 1014 581 986 c 0
EndSplineSet
EndChar

StartChar: ellipsis
Encoding: 8230 8230 116
Width: 2158
VWidth: 0
Flags: W
LayerCount: 2
Fore
SplineSet
1815 -27 m 0
 1696 -27 1696 -27 1617 40.5 c 0
 1538 108 1538 108 1538 223 c 0
 1538 336 1538 336 1615.5 402 c 0
 1693 468 1693 468 1815 468 c 0
 1942 468 1942 468 2022 402 c 0
 2102 336 2102 336 2102 223 c 0
 2102 108 2102 108 2019.5 40.5 c 0
 1937 -27 1937 -27 1815 -27 c 0
1074 -27 m 0
 955 -27 955 -27 876 40.5 c 0
 797 108 797 108 797 223 c 0
 797 336 797 336 874.5 402 c 0
 952 468 952 468 1074 468 c 0
 1201 468 1201 468 1281 402 c 0
 1361 336 1361 336 1361 223 c 0
 1361 108 1361 108 1278.5 40.5 c 0
 1196 -27 1196 -27 1074 -27 c 0
334 -27 m 0
 215 -27 215 -27 136 40.5 c 0
 57 108 57 108 57 223 c 0
 57 336 57 336 134.5 402 c 0
 212 468 212 468 334 468 c 0
 461 468 461 468 541 402 c 0
 621 336 621 336 621 223 c 0
 621 108 621 108 538.5 40.5 c 0
 456 -27 456 -27 334 -27 c 0
EndSplineSet
EndChar

StartChar: emdash
Encoding: 8212 8212 117
Width: 1360
VWidth: 0
Flags: W
LayerCount: 2
Fore
SplineSet
95 836 m 1
 95 537 l 1
 1265 537 l 1
 1265 836 l 1
 95 836 l 1
EndSplineSet
EndChar

StartChar: endash
Encoding: 8211 8211 118
Width: 838
VWidth: 0
Flags: W
LayerCount: 2
Fore
SplineSet
95 836 m 1
 95 537 l 1
 742 537 l 1
 742 836 l 1
 95 836 l 1
EndSplineSet
EndChar

StartChar: equal
Encoding: 61 61 119
Width: 844
VWidth: 0
Flags: W
LayerCount: 2
Fore
SplineSet
99 392 m 1
 99 169 l 1
 746 169 l 1
 746 392 l 1
 99 392 l 1
99 761 m 1
 99 538 l 1
 746 538 l 1
 746 761 l 1
 99 761 l 1
EndSplineSet
EndChar

StartChar: eth
Encoding: 240 240 120
Width: 1337
VWidth: 0
Flags: W
LayerCount: 2
Fore
SplineSet
1206 1585 m 1
 1269 1428 l 1
 1112 1365 l 1
 1264 1142 1264 1142 1283 751 c 0
 1284 731 1284 731 1284 691 c 0
 1284 574 1284 574 1261.5 470.5 c 0
 1239 367 1239 367 1189.5 277 c 0
 1140 187 1140 187 1067 122 c 0
 994 57 994 57 886.5 19.5 c 0
 779 -18 779 -18 646 -18 c 0
 504 -18 504 -18 386 30.5 c 0
 268 79 268 79 193.5 159 c 0
 119 239 119 239 78.5 337.5 c 0
 38 436 38 436 38 540 c 0
 38 616 38 616 60.5 687 c 0
 83 758 83 758 131 820.5 c 0
 179 883 179 883 248.5 929 c 0
 318 975 318 975 418 1002 c 0
 518 1029 518 1029 637 1029 c 2
 670 1029 l 1
 646 1121 646 1121 622 1169 c 1
 371 1068 l 1
 308 1225 l 1
 488 1297 l 1
 426 1321 426 1321 342 1321 c 0
 264 1321 264 1321 217 1310 c 1
 217 1621 l 1
 372 1654 372 1654 511 1654 c 0
 807 1654 807 1654 992 1499 c 1
 1206 1585 l 1
557 568 m 0
 557 338 557 338 668 338 c 0
 698 338 698 338 719 364 c 0
 740 390 740 390 748.5 430.5 c 0
 757 471 757 471 760.5 502 c 0
 764 533 764 533 764 560 c 0
 764 777 764 777 666 777 c 0
 557 777 557 777 557 568 c 0
EndSplineSet
EndChar

StartChar: exclam
Encoding: 33 33 121
Width: 802
VWidth: 0
Flags: W
LayerCount: 2
Fore
SplineSet
610 558 m 1
 189 556 l 1
 107 1331 l 1
 107 1630 l 1
 694 1630 l 1
 694 1331 l 1
 610 558 l 1
399 463 m 0
 280 463 280 463 201 395.5 c 0
 122 328 122 328 122 213 c 0
 122 100 122 100 199.5 34 c 0
 277 -32 277 -32 399 -32 c 0
 526 -32 526 -32 606 34 c 0
 686 100 686 100 686 213 c 0
 686 328 686 328 603.5 395.5 c 0
 521 463 521 463 399 463 c 0
EndSplineSet
EndChar

StartChar: exclamdown
Encoding: 161 161 122
Width: 804
VWidth: 0
Flags: W
LayerCount: 2
Fore
SplineSet
611 1072 m 1
 190 1074 l 1
 108 299 l 1
 108 0 l 1
 695 0 l 1
 695 299 l 1
 611 1072 l 1
400 1158 m 0
 281 1158 281 1158 202 1225.5 c 0
 123 1293 123 1293 123 1408 c 0
 123 1521 123 1521 200.5 1587 c 0
 278 1653 278 1653 400 1653 c 0
 527 1653 527 1653 607 1587 c 0
 687 1521 687 1521 687 1408 c 0
 687 1293 687 1293 604.5 1225.5 c 0
 522 1158 522 1158 400 1158 c 0
EndSplineSet
EndChar

StartChar: f
Encoding: 102 102 123
Width: 875
VWidth: 0
Flags: W
LayerCount: 2
Fore
SplineSet
175 1207 m 1
 177 1075 177 1075 177 1072 c 1
 94 1072 l 1
 94 761 l 1
 178 761 l 1
 178 305 l 1
 94 305 l 1
 94 0 l 1
 774 0 l 1
 774 305 l 1
 664 305 l 1
 664 761 l 1
 836 761 l 1
 836 1072 l 1
 657 1072 l 1
 651 1180 651 1180 677.5 1222.5 c 0
 704 1265 704 1265 767 1265 c 0
 805 1265 805 1265 863 1252 c 1
 863 1563 l 1
 849 1568 849 1568 822.5 1576 c 0
 796 1584 796 1584 715.5 1597 c 0
 635 1610 635 1610 555 1610 c 0
 175 1610 175 1610 175 1207 c 1
EndSplineSet
EndChar

StartChar: five
Encoding: 53 53 124
Width: 1167
VWidth: 0
Flags: W
LayerCount: 2
Fore
SplineSet
113 75 m 1
 159 30 159 30 269 6 c 0
 379 -18 379 -18 478 -18 c 0
 580 -18 580 -18 671.5 1 c 0
 763 20 763 20 842.5 62 c 0
 922 104 922 104 979.5 165 c 0
 1037 226 1037 226 1070 315 c 0
 1103 404 1103 404 1103 513 c 0
 1103 697 1103 697 965.5 819 c 0
 828 941 828 941 628 941 c 0
 572 941 572 941 519.5 936.5 c 0
 467 932 467 932 442 928 c 2
 417 924 l 1
 417 1063 l 1
 1028 1063 l 1
 1028 1360 l 1
 112 1360 l 1
 112 566 l 1
 124 555 l 1
 210 619 210 619 302 619 c 0
 361 619 361 619 416 603 c 0
 471 587 471 587 512.5 546 c 0
 554 505 554 505 554 446 c 0
 554 398 554 398 528 363 c 0
 502 328 502 328 462.5 311.5 c 0
 423 295 423 295 388.5 288 c 0
 354 281 354 281 325 281 c 0
 291 281 291 281 238 297.5 c 0
 185 314 185 314 149 330 c 2
 113 347 l 1
 113 75 l 1
EndSplineSet
EndChar

StartChar: florin
Encoding: 402 402 125
Width: 891
VWidth: 0
Flags: W
LayerCount: 2
Fore
SplineSet
682 761 m 1
 854 761 l 1
 854 1072 l 1
 675 1072 l 1
 669 1180 669 1180 695.5 1222.5 c 0
 722 1265 722 1265 785 1265 c 0
 823 1265 823 1265 881 1252 c 1
 881 1563 l 1
 867 1568 867 1568 840.5 1576 c 0
 814 1584 814 1584 733.5 1597 c 0
 653 1610 653 1610 573 1610 c 0
 193 1610 193 1610 193 1207 c 1
 195 1075 195 1075 195 1072 c 1
 112 1072 l 1
 112 761 l 1
 196 761 l 1
 196 299 l 2
 196 189 196 189 172 147.5 c 0
 148 106 148 106 86 106 c 0
 49 106 49 106 -10 119 c 1
 -10 -192 l 1
 4 -197 4 -197 30.5 -205 c 0
 57 -213 57 -213 137.5 -226 c 0
 218 -239 218 -239 298 -239 c 0
 493 -239 493 -239 588.5 -135.5 c 0
 684 -32 684 -32 684 164 c 1
 682 297 682 297 682 761 c 1
EndSplineSet
EndChar

StartChar: four
Encoding: 52 52 126
Width: 1281
VWidth: 0
Flags: W
LayerCount: 2
Fore
SplineSet
1000 420 m 1
 1228 420 l 1
 1228 677 l 1
 1001 675 l 1
 1001 1341 l 1
 562 1342 l 1
 11 688 l 1
 11 419 l 1
 544 420 l 1
 544 288 l 1
 417 288 l 1
 417 0 l 1
 1122 0 l 1
 1122 288 l 1
 1000 288 l 1
 1000 420 l 1
355 678 m 1
 544 911 l 1
 544 677 l 1
 355 678 l 1
EndSplineSet
EndChar

StartChar: fraction
Encoding: 8260 8260 127
Width: 962
VWidth: 0
Flags: W
LayerCount: 2
Fore
SplineSet
597 0 m 1
 939 1623 l 1
 365 1623 l 1
 24 0 l 1
 597 0 l 1
EndSplineSet
EndChar

StartChar: g
Encoding: 103 103 128
Width: 1414
VWidth: 0
Flags: W
LayerCount: 2
Fore
SplineSet
564 -389 m 0
 1258 -389 1258 -389 1258 135 c 2
 1258 761 l 1
 1345 761 l 1
 1345 1072 l 1
 892 1072 l 1
 859 997 l 1
 686 1090 686 1090 534 1090 c 0
 395 1090 395 1090 281.5 1011.5 c 0
 168 933 168 933 106.5 809.5 c 0
 45 686 45 686 45 548 c 0
 45 445 45 445 76.5 352 c 0
 108 259 108 259 167 186.5 c 0
 226 114 226 114 318 71 c 0
 410 28 410 28 522 28 c 0
 599 28 599 28 675 51.5 c 0
 751 75 751 75 809 117 c 1
 809 53 809 53 792 12 c 0
 775 -29 775 -29 737.5 -50.5 c 0
 700 -72 700 -72 654.5 -79.5 c 0
 609 -87 609 -87 540 -87 c 0
 362 -87 362 -87 176 -19 c 1
 176 -328 l 1
 189 -335 189 -335 216.5 -345 c 0
 244 -355 244 -355 344.5 -372 c 0
 445 -389 445 -389 564 -389 c 0
528 532 m 0
 528 593 528 593 539.5 641.5 c 0
 551 690 551 690 583 725 c 0
 615 760 615 760 665 760 c 0
 713 760 713 760 747 721.5 c 0
 781 683 781 683 794.5 631.5 c 0
 808 580 808 580 808 523 c 0
 808 486 808 486 800.5 449 c 0
 793 412 793 412 778 377.5 c 0
 763 343 763 343 735.5 321 c 0
 708 299 708 299 673 299 c 0
 620 299 620 299 586 336 c 0
 552 373 552 373 540 422.5 c 0
 528 472 528 472 528 532 c 0
EndSplineSet
EndChar

StartChar: germandbls
Encoding: 223 223 129
Width: 1633
VWidth: 0
Flags: W
LayerCount: 2
Fore
SplineSet
803 1623 m 0
 683 1623 683 1623 588.5 1607 c 0
 494 1591 494 1591 413 1553 c 0
 332 1515 332 1515 278.5 1454.5 c 0
 225 1394 225 1394 195.5 1303 c 0
 166 1212 166 1212 166 1092 c 2
 166 369 l 1
 -6 369 l 1
 -6 0 l 1
 845 0 l 1
 845 350 l 1
 820 349 820 349 694 349 c 1
 693 1131 l 2
 693 1206 693 1206 733 1240.5 c 0
 773 1275 773 1275 834 1275 c 0
 908 1275 908 1275 944 1233.5 c 0
 980 1192 980 1192 980 1124 c 0
 980 1045 980 1045 916.5 973 c 0
 853 901 853 901 765 901 c 1
 768 750 l 1
 943 750 943 750 1034 687.5 c 0
 1125 625 1125 625 1125 533 c 0
 1125 431 1125 431 980 349 c 1
 981 -18 l 1
 1135 -18 1135 -18 1257 19 c 0
 1379 56 1379 56 1454.5 118.5 c 0
 1530 181 1530 181 1569.5 260.5 c 0
 1609 340 1609 340 1609 429 c 0
 1609 577 1609 577 1503.5 707 c 0
 1398 837 1398 837 1207 898 c 1
 1313 958 1313 958 1373 1049 c 0
 1433 1140 1433 1140 1433 1236 c 0
 1433 1296 1433 1296 1410.5 1351.5 c 0
 1388 1407 1388 1407 1339 1457 c 0
 1290 1507 1290 1507 1217.5 1543.5 c 0
 1145 1580 1145 1580 1038.5 1601.5 c 0
 932 1623 932 1623 803 1623 c 0
EndSplineSet
EndChar

StartChar: grave
Encoding: 96 96 130
Width: 1016
VWidth: 0
Flags: W
LayerCount: 2
Fore
SplineSet
281 1708 m 1
 755 1271 l 1
 651 1130 l 1
 97 1443 l 1
 281 1708 l 1
EndSplineSet
EndChar

StartChar: greater
Encoding: 62 62 131
Width: 909
VWidth: 0
Flags: W
LayerCount: 2
Fore
SplineSet
852 946 m 1
 137 1542 l 1
 137 1077 l 1
 470 761 l 1
 137 445 l 1
 137 -20 l 1
 852 576 l 1
 852 946 l 1
EndSplineSet
EndChar

StartChar: greaterequal
Encoding: 8805 8805 132
Width: 456
VWidth: 0
Flags: W
LayerCount: 2
Fore
SplineSet
586 1182 m 1
 -129 1778 l 1
 -129 1313 l 1
 204 997 l 1
 -129 681 l 1
 -129 216 l 1
 586 812 l 1
 586 1182 l 1
-95 224 m 1
 -95 0 l 1
 552 0 l 1
 552 224 l 1
 -95 224 l 1
EndSplineSet
EndChar

StartChar: guillemotleft
Encoding: 171 171 133
Width: 1306
VWidth: 0
Flags: W
LayerCount: 2
Fore
SplineSet
643 399 m 1
 1069 -5 l 1
 1260 219 l 1
 945 534 l 1
 1260 849 l 1
 1069 1073 l 1
 643 669 l 1
 643 399 l 1
33 399 m 1
 459 -5 l 1
 650 219 l 1
 335 534 l 1
 650 849 l 1
 459 1073 l 1
 33 669 l 1
 33 399 l 1
EndSplineSet
EndChar

StartChar: guillemotright
Encoding: 187 187 134
Width: 1306
VWidth: 0
Flags: W
LayerCount: 2
Fore
SplineSet
663 399 m 1
 237 -5 l 1
 46 219 l 1
 361 534 l 1
 46 849 l 1
 237 1073 l 1
 663 669 l 1
 663 399 l 1
1273 399 m 1
 847 -5 l 1
 656 219 l 1
 971 534 l 1
 656 849 l 1
 847 1073 l 1
 1273 669 l 1
 1273 399 l 1
EndSplineSet
EndChar

StartChar: guilsinglleft
Encoding: 8249 8249 135
Width: 696
VWidth: 0
Flags: W
LayerCount: 2
Fore
SplineSet
33 399 m 1
 459 -5 l 1
 650 219 l 1
 335 534 l 1
 650 849 l 1
 459 1073 l 1
 33 669 l 1
 33 399 l 1
EndSplineSet
EndChar

StartChar: guilsinglright
Encoding: 8250 8250 136
Width: 696
VWidth: 0
Flags: W
LayerCount: 2
Fore
SplineSet
663 399 m 1
 237 -5 l 1
 46 219 l 1
 361 534 l 1
 46 849 l 1
 237 1073 l 1
 663 669 l 1
 663 399 l 1
EndSplineSet
EndChar

StartChar: h
Encoding: 104 104 137
Width: 1451
VWidth: 0
Flags: W
LayerCount: 2
Fore
SplineSet
71 0 m 1
 724 0 l 1
 724 305 l 1
 644 305 l 1
 644 626 l 2
 644 744 644 744 745 744 c 0
 827 744 827 744 828 619 c 1
 828 0 l 1
 1404 0 l 1
 1404 305 l 1
 1318 305 l 1
 1318 702 l 2
 1318 891 1318 891 1224 990.5 c 0
 1130 1090 1130 1090 960 1090 c 0
 925 1090 925 1090 892.5 1084 c 0
 860 1078 860 1078 837.5 1071.5 c 0
 815 1065 815 1065 787.5 1048 c 0
 760 1031 760 1031 747 1022 c 0
 734 1013 734 1013 708 987.5 c 0
 682 962 682 962 674.5 954 c 0
 667 946 667 946 640 916 c 1
 640 1640 l 1
 67 1640 l 1
 67 1332 l 1
 151 1332 l 1
 151 305 l 1
 72 305 l 1
 71 0 l 1
EndSplineSet
EndChar

StartChar: hungarumlaut
Encoding: 733 733 138
Width: 1478
VWidth: 0
Flags: W
LayerCount: 2
Fore
SplineSet
483 1814 m 1
 330 1188 l 1
 495 1128 l 1
 783 1695 l 1
 483 1814 l 1
1083 1795 m 1
 776 1228 l 1
 920 1129 l 1
 1343 1604 l 1
 1083 1795 l 1
EndSplineSet
EndChar

StartChar: hyphen
Encoding: 45 45 139
Width: 838
VWidth: 0
Flags: W
LayerCount: 2
Fore
SplineSet
95 836 m 1
 95 537 l 1
 742 537 l 1
 742 836 l 1
 95 836 l 1
EndSplineSet
EndChar

StartChar: i
Encoding: 105 105 140
Width: 814
VWidth: 0
Flags: W
LayerCount: 2
Fore
SplineSet
661 1072 m 1
 91 1072 l 1
 91 761 l 1
 180 761 l 1
 180 305 l 1
 98 305 l 1
 98 0 l 1
 745 0 l 1
 745 305 l 1
 661 305 l 1
 661 1072 l 1
380 1135 m 0
 261 1135 261 1135 182 1202.5 c 0
 103 1270 103 1270 103 1385 c 0
 103 1498 103 1498 180.5 1564 c 0
 258 1630 258 1630 380 1630 c 0
 507 1630 507 1630 587 1564 c 0
 667 1498 667 1498 667 1385 c 0
 667 1270 667 1270 584.5 1202.5 c 0
 502 1135 502 1135 380 1135 c 0
EndSplineSet
EndChar

StartChar: iacute
Encoding: 237 237 141
Width: 814
VWidth: 0
Flags: W
LayerCount: 2
Fore
SplineSet
560 1708 m 1
 86 1271 l 1
 190 1130 l 1
 744 1443 l 1
 560 1708 l 1
661 1072 m 1
 91 1072 l 1
 91 747 l 1
 180 747 l 1
 180 299 l 1
 98 299 l 1
 98 0 l 1
 745 0 l 1
 745 299 l 1
 661 299 l 1
 661 1072 l 1
EndSplineSet
EndChar

StartChar: icircumflex
Encoding: 238 238 142
Width: 813
VWidth: 0
Flags: W
LayerCount: 2
Fore
SplineSet
279 1601 m 1
 6 1224 l 1
 160 1123 l 1
 415 1368 l 1
 670 1123 l 1
 824 1224 l 1
 550 1600 l 1
 279 1601 l 1
661 1072 m 1
 91 1072 l 1
 91 747 l 1
 180 747 l 1
 180 299 l 1
 98 299 l 1
 98 0 l 1
 745 0 l 1
 745 299 l 1
 661 299 l 1
 661 1072 l 1
EndSplineSet
EndChar

StartChar: idieresis
Encoding: 239 239 143
Width: 815
VWidth: 0
Flags: W
LayerCount: 2
Fore
SplineSet
334 1342 m 0
 334 1234 334 1234 267.5 1173 c 0
 201 1112 201 1112 110 1112 c 0
 17 1112 17 1112 -50.5 1173.5 c 0
 -118 1235 -118 1235 -118 1345 c 0
 -118 1452 -118 1452 -51 1512 c 0
 16 1572 16 1572 108 1572 c 0
 200 1572 200 1572 267 1511.5 c 0
 334 1451 334 1451 334 1342 c 0
951 1342 m 0
 951 1234 951 1234 884.5 1173 c 0
 818 1112 818 1112 727 1112 c 0
 634 1112 634 1112 566.5 1173.5 c 0
 499 1235 499 1235 499 1345 c 0
 499 1452 499 1452 566 1512 c 0
 633 1572 633 1572 725 1572 c 0
 817 1572 817 1572 884 1511.5 c 0
 951 1451 951 1451 951 1342 c 0
662 1072 m 1
 92 1072 l 1
 92 747 l 1
 181 747 l 1
 181 299 l 1
 99 299 l 1
 99 0 l 1
 746 0 l 1
 746 299 l 1
 662 299 l 1
 662 1072 l 1
EndSplineSet
EndChar

StartChar: igrave
Encoding: 236 236 144
Width: 814
VWidth: 0
Flags: W
LayerCount: 2
Fore
SplineSet
270 1708 m 1
 744 1271 l 1
 640 1130 l 1
 86 1443 l 1
 270 1708 l 1
661 1072 m 1
 91 1072 l 1
 91 747 l 1
 180 747 l 1
 180 299 l 1
 98 299 l 1
 98 0 l 1
 745 0 l 1
 745 299 l 1
 661 299 l 1
 661 1072 l 1
EndSplineSet
EndChar

StartChar: infinity
Encoding: 8734 8734 145
Width: 1337
VWidth: 0
Flags: W
LayerCount: 2
Fore
SplineSet
621 391 m 1
 617 386 617 386 609.5 377.5 c 0
 602 369 602 369 575.5 347.5 c 0
 549 326 549 326 519 310 c 0
 489 294 489 294 441 280.5 c 0
 393 267 393 267 341 267 c 0
 255 267 255 267 187.5 295 c 0
 120 323 120 323 81 365.5 c 0
 42 408 42 408 17 464.5 c 0
 -8 521 -8 521 -17 570.5 c 0
 -26 620 -26 620 -26 670 c 0
 -26 720 -26 720 -17 769.5 c 0
 -8 819 -8 819 17 875.5 c 0
 42 932 42 932 81 974.5 c 0
 120 1017 120 1017 187.5 1045 c 0
 255 1073 255 1073 341 1073 c 0
 393 1073 393 1073 440.5 1059 c 0
 488 1045 488 1045 519.5 1025.5 c 0
 551 1006 551 1006 575 986.5 c 0
 599 967 599 967 610 953 c 2
 621 939 l 1
 625 944 625 944 633 953.5 c 0
 641 963 641 963 668.5 986 c 0
 696 1009 696 1009 726 1026.5 c 0
 756 1044 756 1044 803.5 1058.5 c 0
 851 1073 851 1073 901 1073 c 0
 987 1073 987 1073 1054.5 1045 c 0
 1122 1017 1122 1017 1161 974.5 c 0
 1200 932 1200 932 1225 875.5 c 0
 1250 819 1250 819 1259 769.5 c 0
 1268 720 1268 720 1268 670 c 0
 1268 620 1268 620 1259 570.5 c 0
 1250 521 1250 521 1225 464.5 c 0
 1200 408 1200 408 1161 365.5 c 0
 1122 323 1122 323 1054.5 295 c 0
 987 267 987 267 901 267 c 0
 851 267 851 267 804 280 c 0
 757 293 757 293 725.5 311 c 0
 694 329 694 329 669 347 c 0
 644 365 644 365 632 378 c 2
 621 391 l 1
345 590 m 0
 372 590 372 590 417.5 610 c 0
 463 630 463 630 495 650 c 2
 527 670 l 1
 405 750 405 750 345 750 c 0
 321 750 321 750 304.5 747.5 c 0
 288 745 288 745 269 738 c 0
 250 731 250 731 240 713.5 c 0
 230 696 230 696 230 670 c 0
 230 644 230 644 240 626.5 c 0
 250 609 250 609 269 602 c 0
 288 595 288 595 304.5 592.5 c 0
 321 590 321 590 345 590 c 0
897 750 m 0
 870 750 870 750 824.5 730 c 0
 779 710 779 710 747 690 c 2
 715 670 l 1
 837 590 837 590 897 590 c 0
 921 590 921 590 937.5 592.5 c 0
 954 595 954 595 973 602 c 0
 992 609 992 609 1002 626.5 c 0
 1012 644 1012 644 1012 670 c 0
 1012 696 1012 696 1002 713.5 c 0
 992 731 992 731 973 738 c 0
 954 745 954 745 937.5 747.5 c 0
 921 750 921 750 897 750 c 0
EndSplineSet
EndChar

StartChar: integral
Encoding: 8747 8747 146
Width: 864
VWidth: 0
Flags: W
LayerCount: 2
Fore
SplineSet
616 1072 m 1
 610 1180 610 1180 636.5 1222.5 c 0
 663 1265 663 1265 726 1265 c 0
 764 1265 764 1265 822 1252 c 1
 822 1563 l 1
 808 1568 808 1568 781.5 1576 c 0
 755 1584 755 1584 674.5 1597 c 0
 594 1610 594 1610 514 1610 c 0
 134 1610 134 1610 134 1207 c 2
 134 299 l 2
 134 188 134 188 111 147 c 0
 88 106 88 106 27 106 c 0
 -10 106 -10 106 -69 119 c 1
 -69 -192 l 1
 -55 -197 -55 -197 -28.5 -205 c 0
 -2 -213 -2 -213 78.5 -226 c 0
 159 -239 159 -239 239 -239 c 0
 616 -239 616 -239 616 164 c 1
 623 298 623 298 616 1072 c 1
EndSplineSet
EndChar

StartChar: invertedbreve
Encoding: 65537 -1 147
Width: 1707
VWidth: 0
Flags: W
LayerCount: 2
Fore
SplineSet
366 1152 m 1
 618 1152 l 1
 618 1228 618 1228 663 1270.5 c 0
 708 1313 708 1313 770 1313 c 0
 832 1313 832 1313 877 1270.5 c 0
 922 1228 922 1228 922 1152 c 1
 1174 1152 l 1
 1174 1235 1174 1235 1139.5 1302 c 0
 1105 1369 1105 1369 1047.5 1410.5 c 0
 990 1452 990 1452 918.5 1474 c 0
 847 1496 847 1496 770 1496 c 0
 693 1496 693 1496 621.5 1474 c 0
 550 1452 550 1452 492.5 1410.5 c 0
 435 1369 435 1369 400.5 1302 c 0
 366 1235 366 1235 366 1152 c 1
EndSplineSet
EndChar

StartChar: j
Encoding: 106 106 148
Width: 772
VWidth: 0
Flags: W
LayerCount: 2
Fore
SplineSet
49 -72 m 1
 51 -398 l 1
 224 -398 224 -398 341.5 -366 c 0
 459 -334 459 -334 528 -266 c 0
 597 -198 597 -198 626 -103 c 0
 655 -8 655 -8 655 129 c 2
 655 1072 l 1
 66 1072 l 1
 66 760 l 1
 156 760 l 1
 156 -9 l 2
 156 -46 156 -46 120.5 -61 c 0
 85 -76 85 -76 49 -72 c 1
371 1135 m 0
 252 1135 252 1135 173 1202.5 c 0
 94 1270 94 1270 94 1385 c 0
 94 1498 94 1498 171.5 1564 c 0
 249 1630 249 1630 371 1630 c 0
 498 1630 498 1630 578 1564 c 0
 658 1498 658 1498 658 1385 c 0
 658 1270 658 1270 575.5 1202.5 c 0
 493 1135 493 1135 371 1135 c 0
EndSplineSet
EndChar

StartChar: k
Encoding: 107 107 149
Width: 1413
VWidth: 0
Flags: W
LayerCount: 2
Fore
SplineSet
931 0 m 1
 1384 0 l 1
 1384 305 l 1
 1269 305 l 1
 1042 618 l 1
 1042 644 l 1
 1185 761 l 1
 1336 761 l 1
 1336 1072 l 1
 752 1072 l 1
 752 761 l 1
 847 761 l 1
 646 587 l 1
 646 1634 l 1
 68 1634 l 1
 68 1330 l 1
 152 1330 l 1
 152 305 l 1
 69 305 l 1
 69 0 l 1
 646 0 l 1
 646 438 l 1
 931 0 l 1
EndSplineSet
EndChar

StartChar: l
Encoding: 108 108 150
Width: 794
VWidth: 0
Flags: W
LayerCount: 2
Fore
SplineSet
644 1630 m 1
 65 1630 l 1
 65 1317 l 1
 149 1317 l 1
 149 305 l 1
 75 305 l 1
 75 0 l 1
 722 0 l 1
 722 305 l 1
 644 305 l 1
 644 1630 l 1
EndSplineSet
EndChar

StartChar: less
Encoding: 60 60 151
Width: 909
VWidth: 0
Flags: W
LayerCount: 2
Fore
SplineSet
57 946 m 1
 772 1542 l 1
 772 1077 l 1
 439 761 l 1
 772 445 l 1
 772 -20 l 1
 57 576 l 1
 57 946 l 1
EndSplineSet
EndChar

StartChar: lessequal
Encoding: 8804 8804 152
Width: 456
VWidth: 0
Flags: W
LayerCount: 2
Fore
SplineSet
-129 1182 m 1
 586 1778 l 1
 586 1313 l 1
 253 997 l 1
 586 681 l 1
 586 216 l 1
 -129 812 l 1
 -129 1182 l 1
-95 224 m 1
 -95 0 l 1
 552 0 l 1
 552 224 l 1
 -95 224 l 1
EndSplineSet
EndChar

StartChar: logicalnot
Encoding: 172 172 153
Width: 1195
VWidth: 0
Flags: W
LayerCount: 2
Fore
SplineSet
78 1092 m 1
 1089 1092 l 1
 1089 542 l 1
 858 542 l 1
 858 761 l 1
 79 761 l 1
 78 1092 l 1
EndSplineSet
EndChar

StartChar: lozenge
Encoding: 9674 9674 154
Width: 1432
VWidth: 0
Flags: W
LayerCount: 2
Fore
SplineSet
137 762 m 1
 457 1525 l 1
 930 1525 l 1
 1221 762 l 1
 930 -1 l 1
 457 -1 l 1
 137 762 l 1
496 762 m 1
 705 267 l 1
 876 762 l 1
 705 1257 l 1
 496 762 l 1
EndSplineSet
EndChar

StartChar: lslash
Encoding: 322 322 155
Width: 794
VWidth: 0
Flags: W
LayerCount: 2
Fore
SplineSet
644 1630 m 1
 65 1630 l 1
 65 1317 l 1
 149 1317 l 1
 149 305 l 1
 75 305 l 1
 75 0 l 1
 722 0 l 1
 722 305 l 1
 644 305 l 1
 644 1630 l 1
-27 718 m 1
 73 540 l 1
 824 974 l 1
 725 1153 l 1
 -27 718 l 1
EndSplineSet
EndChar

StartChar: m
Encoding: 109 109 156
Width: 2073
VWidth: 0
Flags: W
LayerCount: 2
Fore
SplineSet
1379 0 m 1
 1379 305 l 1
 1294 305 l 1
 1294 579 l 2
 1294 603 1294 603 1294.5 616 c 0
 1295 629 1295 629 1297 652 c 0
 1299 675 1299 675 1304.5 688 c 0
 1310 701 1310 701 1318.5 715.5 c 0
 1327 730 1327 730 1342 736.5 c 0
 1357 743 1357 743 1377 743 c 0
 1413 743 1413 743 1433 716 c 0
 1453 689 1453 689 1455 662 c 2
 1457 635 l 1
 1457 0 l 1
 2016 0 l 1
 2016 305 l 1
 1942 305 l 1
 1942 729 l 2
 1942 824 1942 824 1914 895.5 c 0
 1886 967 1886 967 1836.5 1009 c 0
 1787 1051 1787 1051 1725.5 1071.5 c 0
 1664 1092 1664 1092 1592 1092 c 0
 1395 1092 1395 1092 1273 891 c 1
 1226 988 1226 988 1146.5 1040 c 0
 1067 1092 1067 1092 975 1092 c 0
 886 1092 886 1092 801.5 1044 c 0
 717 996 717 996 654 902 c 1
 654 1072 l 1
 94 1072 l 1
 94 761 l 1
 168 761 l 1
 168 299 l 1
 95 299 l 1
 95 0 l 1
 732 0 l 1
 732 303 l 1
 652 303 l 1
 652 541 l 2
 652 639 652 639 661 671 c 0
 678 738 678 738 738 738 c 0
 816 738 816 738 816 638 c 2
 816 0 l 1
 1379 0 l 1
EndSplineSet
EndChar

StartChar: minus
Encoding: 8722 8722 157
Width: 844
VWidth: 0
Flags: W
LayerCount: 2
Fore
SplineSet
99 539 m 1
 99 315 l 1
 746 315 l 1
 746 539 l 1
 99 539 l 1
EndSplineSet
EndChar

StartChar: mu
Encoding: 181 181 158
Width: 1468
VWidth: 0
Flags: W
LayerCount: 2
Fore
SplineSet
827 0 m 1
 1397 0 l 1
 1397 305 l 1
 1321 305 l 1
 1321 1072 l 1
 746 1072 l 1
 746 761 l 1
 827 761 l 1
 827 438 l 2
 827 387 827 387 798.5 352.5 c 0
 770 318 770 318 723 318 c 0
 687 318 687 318 660 351.5 c 0
 633 385 633 385 633 438 c 2
 633 1072 l 1
 59 1072 l 1
 59 761 l 1
 139 761 l 1
 139 385 l 2
 139 -18 139 -18 469 -18 c 0
 587 -18 587 -18 679.5 26.5 c 0
 772 71 772 71 827 156 c 1
 827 0 l 1
EndSplineSet
EndChar

StartChar: multiply
Encoding: 215 215 159
Width: 902
VWidth: 0
Flags: W
LayerCount: 2
Fore
SplineSet
451 467 m 1
 259 274 l 1
 86 447 l 1
 278 640 l 1
 74 844 l 1
 254 1024 l 1
 451 820 l 1
 648 1024 l 1
 828 844 l 1
 624 640 l 1
 816 447 l 1
 643 274 l 1
 451 467 l 1
EndSplineSet
EndChar

StartChar: n
Encoding: 110 110 160
Width: 1483
VWidth: 0
Flags: W
LayerCount: 2
Fore
SplineSet
661 1072 m 1
 98 1072 l 1
 98 761 l 1
 174 761 l 1
 174 305 l 1
 91 305 l 1
 91 0 l 1
 749 0 l 1
 749 305 l 1
 661 305 l 1
 661 624 l 2
 661 671 661 671 689.5 704 c 0
 718 737 718 737 765 737 c 0
 801 737 801 737 828 706 c 0
 855 675 855 675 855 627 c 2
 855 0 l 1
 1429 0 l 1
 1429 305 l 1
 1349 305 l 1
 1349 680 l 2
 1349 1092 1349 1092 1019 1092 c 0
 901 1092 901 1092 808.5 1046.5 c 0
 716 1001 716 1001 661 916 c 1
 661 1072 l 1
EndSplineSet
EndChar

StartChar: nine
Encoding: 57 57 161
Width: 1357
VWidth: 0
Flags: W
LayerCount: 2
Fore
SplineSet
235 0 m 1
 772 0 l 1
 794 23 794 23 842.5 72 c 0
 891 121 891 121 927 157.5 c 0
 963 194 963 194 1014 250 c 0
 1065 306 1065 306 1102 353 c 0
 1139 400 1139 400 1179.5 461 c 0
 1220 522 1220 522 1245.5 576 c 0
 1271 630 1271 630 1287.5 692.5 c 0
 1304 755 1304 755 1304 813 c 0
 1304 971 1304 971 1224.5 1098 c 0
 1145 1225 1145 1225 1005.5 1296.5 c 0
 866 1368 866 1368 694 1368 c 0
 412 1368 412 1368 232.5 1202 c 0
 53 1036 53 1036 53 782 c 0
 53 586 53 586 192 453.5 c 0
 331 321 331 321 538 321 c 1
 497 269 497 269 421 189 c 0
 345 109 345 109 290 54 c 2
 235 0 l 1
575 782 m 0
 575 1012 575 1012 686 1012 c 0
 716 1012 716 1012 737 986 c 0
 758 960 758 960 766.5 919.5 c 0
 775 879 775 879 778.5 848 c 0
 782 817 782 817 782 790 c 0
 782 573 782 573 684 573 c 0
 575 573 575 573 575 782 c 0
EndSplineSet
EndChar

StartChar: notequal
Encoding: 8800 8800 162
Width: 774
VWidth: 0
Flags: W
LayerCount: 2
Fore
SplineSet
70 392 m 1
 70 169 l 1
 717 169 l 1
 717 392 l 1
 70 392 l 1
70 761 m 1
 70 538 l 1
 717 538 l 1
 717 761 l 1
 70 761 l 1
EndSplineSet
EndChar

StartChar: ntilde
Encoding: 241 241 163
Width: 1482
VWidth: 0
Flags: W
LayerCount: 2
Fore
SplineSet
661 1072 m 1
 98 1072 l 1
 98 761 l 1
 174 761 l 1
 174 305 l 1
 91 305 l 1
 91 0 l 1
 749 0 l 1
 749 305 l 1
 661 305 l 1
 661 624 l 2
 661 671 661 671 689.5 704 c 0
 718 737 718 737 765 737 c 0
 801 737 801 737 828 706 c 0
 855 675 855 675 855 627 c 2
 855 0 l 1
 1429 0 l 1
 1429 305 l 1
 1349 305 l 1
 1349 680 l 2
 1349 1092 1349 1092 1019 1092 c 0
 901 1092 901 1092 808.5 1046.5 c 0
 716 1001 716 1001 661 916 c 1
 661 1072 l 1
889 1523 m 0
 933 1523 933 1523 969 1504 c 0
 1005 1485 1005 1485 1031 1450.5 c 0
 1057 1416 1057 1416 1076.5 1382 c 0
 1096 1348 1096 1348 1119.5 1303 c 0
 1143 1258 1143 1258 1161 1232 c 1
 1048 1158 l 1
 975 1228 975 1228 947.5 1247 c 0
 920 1266 920 1266 901 1266 c 0
 856 1266 856 1266 794 1236 c 0
 732 1206 732 1206 665.5 1175.5 c 0
 599 1145 599 1145 544 1145 c 0
 499 1145 499 1145 463 1163.5 c 0
 427 1182 427 1182 400.5 1216.5 c 0
 374 1251 374 1251 355 1284.5 c 0
 336 1318 336 1318 312 1363.5 c 0
 288 1409 288 1409 270 1435 c 1
 384 1510 l 1
 460 1437 460 1437 488 1417.5 c 0
 516 1398 516 1398 534 1398 c 0
 570 1398 570 1398 617 1417.5 c 0
 664 1437 664 1437 703 1460.5 c 0
 742 1484 742 1484 793 1503.5 c 0
 844 1523 844 1523 889 1523 c 0
EndSplineSet
EndChar

StartChar: numbersign
Encoding: 35 35 164
Width: 1413
VWidth: 0
Flags: W
LayerCount: 2
Fore
SplineSet
269 1246 m 1
 206 947 l 1
 342 947 l 1
 262 585 l 1
 122 585 l 1
 59 286 l 1
 195 286 l 1
 132 0 l 1
 445 0 l 1
 510 286 l 1
 674 286 l 1
 611 0 l 1
 924 0 l 1
 989 286 l 1
 1139 286 l 1
 1202 585 l 1
 1058 585 l 1
 1141 947 l 1
 1286 947 l 1
 1349 1246 l 1
 1209 1246 l 1
 1296 1623 l 1
 972 1623 l 1
 888 1246 l 1
 730 1246 l 1
 817 1623 l 1
 493 1623 l 1
 409 1246 l 1
 269 1246 l 1
662 947 m 1
 821 947 l 1
 741 585 l 1
 579 585 l 1
 662 947 l 1
EndSplineSet
EndChar

StartChar: o
Encoding: 111 111 165
Width: 1290
VWidth: 0
Flags: W
LayerCount: 2
Fore
SplineSet
43 547 m 0
 43 807 43 807 204 949 c 0
 365 1091 365 1091 645 1091 c 0
 925 1091 925 1091 1086 949 c 0
 1247 807 1247 807 1247 547 c 0
 1247 372 1247 372 1170.5 243 c 0
 1094 114 1094 114 958.5 48 c 0
 823 -18 823 -18 645 -18 c 0
 467 -18 467 -18 331.5 48 c 0
 196 114 196 114 119.5 243 c 0
 43 372 43 372 43 547 c 0
508 545 m 0
 508 294 508 294 645 294 c 0
 782 294 782 294 782 545 c 0
 782 596 782 596 777.5 631.5 c 0
 773 667 773 667 760 704 c 0
 747 741 747 741 718 760 c 0
 689 779 689 779 645 779 c 0
 601 779 601 779 572 760 c 0
 543 741 543 741 530 704 c 0
 517 667 517 667 512.5 631.5 c 0
 508 596 508 596 508 545 c 0
EndSplineSet
EndChar

StartChar: oacute
Encoding: 243 243 166
Width: 1290
VWidth: 0
Flags: W
LayerCount: 2
Fore
SplineSet
43 547 m 0
 43 807 43 807 204 949 c 0
 365 1091 365 1091 645 1091 c 0
 925 1091 925 1091 1086 949 c 0
 1247 807 1247 807 1247 547 c 0
 1247 372 1247 372 1170.5 243 c 0
 1094 114 1094 114 958.5 48 c 0
 823 -18 823 -18 645 -18 c 0
 467 -18 467 -18 331.5 48 c 0
 196 114 196 114 119.5 243 c 0
 43 372 43 372 43 547 c 0
508 545 m 0
 508 294 508 294 645 294 c 0
 782 294 782 294 782 545 c 0
 782 596 782 596 777.5 631.5 c 0
 773 667 773 667 760 704 c 0
 747 741 747 741 718 760 c 0
 689 779 689 779 645 779 c 0
 601 779 601 779 572 760 c 0
 543 741 543 741 530 704 c 0
 517 667 517 667 512.5 631.5 c 0
 508 596 508 596 508 545 c 0
785 1708 m 1
 311 1271 l 1
 415 1130 l 1
 969 1443 l 1
 785 1708 l 1
EndSplineSet
EndChar

StartChar: ocircumflex
Encoding: 244 244 167
Width: 1290
VWidth: 0
Flags: W
LayerCount: 2
Fore
SplineSet
43 547 m 0
 43 807 43 807 204 949 c 0
 365 1091 365 1091 645 1091 c 0
 925 1091 925 1091 1086 949 c 0
 1247 807 1247 807 1247 547 c 0
 1247 372 1247 372 1170.5 243 c 0
 1094 114 1094 114 958.5 48 c 0
 823 -18 823 -18 645 -18 c 0
 467 -18 467 -18 331.5 48 c 0
 196 114 196 114 119.5 243 c 0
 43 372 43 372 43 547 c 0
508 545 m 0
 508 294 508 294 645 294 c 0
 782 294 782 294 782 545 c 0
 782 596 782 596 777.5 631.5 c 0
 773 667 773 667 760 704 c 0
 747 741 747 741 718 760 c 0
 689 779 689 779 645 779 c 0
 601 779 601 779 572 760 c 0
 543 741 543 741 530 704 c 0
 517 667 517 667 512.5 631.5 c 0
 508 596 508 596 508 545 c 0
504 1601 m 1
 231 1224 l 1
 385 1123 l 1
 640 1368 l 1
 895 1123 l 1
 1049 1224 l 1
 775 1600 l 1
 504 1601 l 1
EndSplineSet
EndChar

StartChar: odieresis
Encoding: 246 246 168
Width: 1290
VWidth: 0
Flags: W
LayerCount: 2
Fore
SplineSet
43 547 m 0
 43 807 43 807 204 949 c 0
 365 1091 365 1091 645 1091 c 0
 925 1091 925 1091 1086 949 c 0
 1247 807 1247 807 1247 547 c 0
 1247 372 1247 372 1170.5 243 c 0
 1094 114 1094 114 958.5 48 c 0
 823 -18 823 -18 645 -18 c 0
 467 -18 467 -18 331.5 48 c 0
 196 114 196 114 119.5 243 c 0
 43 372 43 372 43 547 c 0
508 545 m 0
 508 294 508 294 645 294 c 0
 782 294 782 294 782 545 c 0
 782 596 782 596 777.5 631.5 c 0
 773 667 773 667 760 704 c 0
 747 741 747 741 718 760 c 0
 689 779 689 779 645 779 c 0
 601 779 601 779 572 760 c 0
 543 741 543 741 530 704 c 0
 517 667 517 667 512.5 631.5 c 0
 508 596 508 596 508 545 c 0
558 1342 m 0
 558 1234 558 1234 491.5 1173 c 0
 425 1112 425 1112 334 1112 c 0
 241 1112 241 1112 173.5 1173.5 c 0
 106 1235 106 1235 106 1345 c 0
 106 1452 106 1452 173 1512 c 0
 240 1572 240 1572 332 1572 c 0
 424 1572 424 1572 491 1511.5 c 0
 558 1451 558 1451 558 1342 c 0
1175 1342 m 0
 1175 1234 1175 1234 1108.5 1173 c 0
 1042 1112 1042 1112 951 1112 c 0
 858 1112 858 1112 790.5 1173.5 c 0
 723 1235 723 1235 723 1345 c 0
 723 1452 723 1452 790 1512 c 0
 857 1572 857 1572 949 1572 c 0
 1041 1572 1041 1572 1108 1511.5 c 0
 1175 1451 1175 1451 1175 1342 c 0
EndSplineSet
EndChar

StartChar: oe
Encoding: 339 339 169
Width: 1927
VWidth: 0
Flags: W
LayerCount: 2
Fore
SplineSet
646 -26 m 0
 468 -26 468 -26 332.5 40 c 0
 197 106 197 106 120.5 235 c 0
 44 364 44 364 44 539 c 0
 44 799 44 799 205 941 c 0
 366 1083 366 1083 646 1083 c 0
 712 1083 712 1083 773 1070 c 0
 834 1057 834 1057 873.5 1039 c 0
 913 1021 913 1021 943.5 1003 c 0
 974 985 974 985 988 972 c 2
 1002 959 l 1
 1006 964 1006 964 1014 972.5 c 0
 1022 981 1022 981 1051 1002.5 c 0
 1080 1024 1080 1024 1114.5 1040 c 0
 1149 1056 1149 1056 1207 1069.5 c 0
 1265 1083 1265 1083 1330 1083 c 0
 1502 1083 1502 1083 1629 1009.5 c 0
 1756 936 1756 936 1818.5 816 c 0
 1881 696 1881 696 1881 546 c 0
 1881 512 1881 512 1876 467 c 1
 1866 444 1866 444 1860 441 c 0
 1855 439 1855 439 1839 439 c 2
 1237 439 l 1
 1237 346 1237 346 1284.5 279.5 c 0
 1332 213 1332 213 1414 213 c 0
 1486 213 1486 213 1519 248 c 0
 1552 283 1552 283 1554 356 c 1
 1861 356 l 1
 1861 118 l 1
 1728 38 1728 38 1601 5 c 0
 1474 -28 1474 -28 1314 -27 c 0
 1255 -27 1255 -27 1200.5 -12.5 c 0
 1146 2 1146 2 1110.5 22.5 c 0
 1075 43 1075 43 1048 63.5 c 0
 1021 84 1021 84 1008 98 c 1
 996 113 l 1
 991 107 991 107 982 98 c 0
 973 89 973 89 940.5 65 c 0
 908 41 908 41 870.5 22.5 c 0
 833 4 833 4 772.5 -11 c 0
 712 -26 712 -26 646 -26 c 0
509 537 m 0
 509 326 509 326 646 326 c 0
 783 326 783 326 783 537 c 0
 783 579 783 579 778.5 608.5 c 0
 774 638 774 638 761 668.5 c 0
 748 699 748 699 719 715 c 0
 690 731 690 731 646 731 c 0
 602 731 602 731 573 715 c 0
 544 699 544 699 531 668.5 c 0
 518 638 518 638 513.5 608.5 c 0
 509 579 509 579 509 537 c 0
1239 647 m 2
 1239 618 l 1
 1454 618 l 1
 1455 653 1455 653 1452.5 679 c 0
 1450 705 1450 705 1441 737.5 c 0
 1432 770 1432 770 1408 787.5 c 0
 1384 805 1384 805 1347 805 c 0
 1293 805 1293 805 1266 756.5 c 0
 1239 708 1239 708 1239 647 c 2
EndSplineSet
EndChar

StartChar: ogonek
Encoding: 731 731 170
Width: 1707
VWidth: 0
Flags: W
LayerCount: 2
Fore
SplineSet
871 0 m 1
 842 -60 842 -60 804 -121 c 0
 766 -182 766 -182 748.5 -214.5 c 0
 731 -247 731 -247 731 -271 c 0
 731 -315 731 -315 776 -343 c 0
 821 -371 821 -371 918 -372 c 1
 918 -485 l 1
 897 -485 l 2
 745 -485 745 -485 636.5 -426 c 0
 528 -367 528 -367 528 -285 c 0
 528 -269 528 -269 533 -253 c 0
 538 -237 538 -237 554 -209 c 0
 570 -181 570 -181 583 -161 c 0
 596 -141 596 -141 631.5 -89 c 0
 667 -37 667 -37 691 0 c 1
 871 0 l 1
EndSplineSet
EndChar

StartChar: ograve
Encoding: 242 242 171
Width: 1290
VWidth: 0
Flags: W
LayerCount: 2
Fore
SplineSet
43 547 m 0
 43 807 43 807 204 949 c 0
 365 1091 365 1091 645 1091 c 0
 925 1091 925 1091 1086 949 c 0
 1247 807 1247 807 1247 547 c 0
 1247 372 1247 372 1170.5 243 c 0
 1094 114 1094 114 958.5 48 c 0
 823 -18 823 -18 645 -18 c 0
 467 -18 467 -18 331.5 48 c 0
 196 114 196 114 119.5 243 c 0
 43 372 43 372 43 547 c 0
508 545 m 0
 508 294 508 294 645 294 c 0
 782 294 782 294 782 545 c 0
 782 596 782 596 777.5 631.5 c 0
 773 667 773 667 760 704 c 0
 747 741 747 741 718 760 c 0
 689 779 689 779 645 779 c 0
 601 779 601 779 572 760 c 0
 543 741 543 741 530 704 c 0
 517 667 517 667 512.5 631.5 c 0
 508 596 508 596 508 545 c 0
495 1708 m 1
 969 1271 l 1
 865 1130 l 1
 311 1443 l 1
 495 1708 l 1
EndSplineSet
EndChar

StartChar: one
Encoding: 49 49 172
Width: 924
VWidth: 0
Flags: W
LayerCount: 2
Fore
SplineSet
826 0 m 1
 826 324 l 1
 730 324 l 1
 724 1375 l 1
 62 1208 l 1
 62 950 l 1
 226 951 l 1
 226 324 l 1
 136 325 l 1
 137 0 l 1
 826 0 l 1
EndSplineSet
EndChar

StartChar: onehalf
Encoding: 189 189 173
Width: 1784
VWidth: 0
Flags: W
LayerCount: 2
Fore
SplineSet
510 818 m 1
 510 1008 l 1
 454 1008 l 1
 450 1623 l 1
 63 1525 l 1
 63 1374 l 1
 159 1375 l 1
 159 1008 l 1
 106 1008 l 1
 107 818 l 1
 510 818 l 1
705 0 m 1
 1207 1623 l 1
 843 1623 l 1
 352 0 l 1
 705 0 l 1
1730 -1 m 1
 1730 283 l 1
 1626 283 l 1
 1626 232 1626 232 1591.5 214 c 0
 1557 196 1557 196 1496 194 c 1
 1399 194 l 1
 1564 318 1564 318 1615 384 c 0
 1679 465 1679 465 1679 558 c 0
 1679 684 1679 684 1590 756.5 c 0
 1501 829 1501 829 1365 834 c 0
 1282 837 1282 837 1204 808.5 c 0
 1126 780 1126 780 1072.5 717 c 0
 1019 654 1019 654 1019 571 c 1
 1016 434 1016 434 1108 352 c 1
 1245 457 l 1
 1207 492 1207 492 1207 534 c 0
 1207 571 1207 571 1228.5 595.5 c 0
 1250 620 1250 620 1289 620 c 0
 1320 620 1320 620 1344 591 c 0
 1368 562 1368 562 1371 516 c 1
 1371 467 1371 467 1350 423.5 c 0
 1329 380 1329 380 1305.5 355.5 c 0
 1282 331 1282 331 1236 292 c 0
 1158 227 1158 227 1042 181 c 1
 1042 -1 l 1
 1730 -1 l 1
EndSplineSet
EndChar

StartChar: onequarter
Encoding: 188 188 174
Width: 1721
VWidth: 0
Flags: W
LayerCount: 2
Fore
SplineSet
514 818 m 1
 514 1008 l 1
 458 1008 l 1
 454 1623 l 1
 67 1525 l 1
 67 1374 l 1
 163 1375 l 1
 163 1008 l 1
 110 1008 l 1
 111 818 l 1
 514 818 l 1
701 0 m 1
 1203 1623 l 1
 839 1623 l 1
 348 0 l 1
 701 0 l 1
1536 247 m 1
 1670 247 l 1
 1670 398 l 1
 1537 397 l 1
 1537 788 l 1
 1279 789 l 1
 955 405 l 1
 955 247 l 1
 1268 247 l 1
 1268 170 l 1
 1194 170 l 1
 1194 1 l 1
 1608 1 l 1
 1608 170 l 1
 1536 170 l 1
 1536 247 l 1
1157 399 m 1
 1268 536 l 1
 1268 398 l 1
 1157 399 l 1
EndSplineSet
EndChar

StartChar: onesuperior
Encoding: 185 185 175
Width: 615
VWidth: 0
Flags: W
LayerCount: 2
Fore
SplineSet
520 286 m 1
 520 476 l 1
 464 476 l 1
 460 1091 l 1
 73 993 l 1
 73 842 l 1
 169 843 l 1
 169 476 l 1
 116 476 l 1
 117 286 l 1
 520 286 l 1
EndSplineSet
EndChar

StartChar: ordfeminine
Encoding: 170 170 176
Width: 999
VWidth: 0
Flags: W
LayerCount: 2
Fore
SplineSet
37 1046 m 0
 37 936 37 936 121 871 c 0
 205 806 205 806 324 806 c 0
 385 806 385 806 449 832.5 c 0
 513 859 513 859 550 907 c 1
 587 819 l 1
 935 819 l 1
 935 1044 l 1
 879 1044 l 1
 879 1372 l 2
 879 1423 879 1423 860 1464 c 0
 841 1505 841 1505 813.5 1531 c 0
 786 1557 786 1557 744.5 1575.5 c 0
 703 1594 703 1594 667 1603.5 c 0
 631 1613 631 1613 585 1618 c 0
 539 1623 539 1623 514.5 1624 c 0
 490 1625 490 1625 460 1625 c 0
 381 1625 381 1625 291.5 1612 c 0
 202 1599 202 1599 153 1586 c 2
 103 1573 l 1
 103 1341 l 1
 233 1341 l 1
 286 1411 286 1411 391 1411 c 0
 547 1411 547 1411 547 1289 c 2
 547 1256 l 1
 466 1284 466 1284 358 1284 c 0
 297 1284 297 1284 240.5 1269 c 0
 184 1254 184 1254 138 1225 c 0
 92 1196 92 1196 64.5 1149.5 c 0
 37 1103 37 1103 37 1046 c 0
399 1060 m 0
 399 1091 399 1091 421.5 1116.5 c 0
 444 1142 444 1142 476 1142 c 0
 492 1142 492 1142 510 1138.5 c 0
 528 1135 528 1135 539 1131 c 2
 549 1127 l 1
 549 1018 l 1
 546 1015 546 1015 540 1009 c 0
 534 1003 534 1003 513.5 993.5 c 0
 493 984 493 984 469 984 c 0
 437 984 437 984 418 1005 c 0
 399 1026 399 1026 399 1060 c 0
EndSplineSet
EndChar

StartChar: ordmasculine
Encoding: 186 186 177
Width: 1032
VWidth: 0
Flags: W
LayerCount: 2
Fore
SplineSet
70 688 m 0
 70 881 70 881 189.5 986 c 0
 309 1091 309 1091 516 1091 c 0
 724 1091 724 1091 843 986 c 0
 962 881 962 881 962 688 c 0
 962 493 962 493 839.5 381.5 c 0
 717 270 717 270 516 270 c 0
 315 270 315 270 192.5 381.5 c 0
 70 493 70 493 70 688 c 0
415 686 m 0
 415 501 415 501 516 501 c 0
 618 501 618 501 618 686 c 0
 618 724 618 724 614.5 750.5 c 0
 611 777 611 777 601.5 804.5 c 0
 592 832 592 832 570.5 846 c 0
 549 860 549 860 516 860 c 0
 483 860 483 860 462 846 c 0
 441 832 441 832 431 804.5 c 0
 421 777 421 777 418 750.5 c 0
 415 724 415 724 415 686 c 0
EndSplineSet
EndChar

StartChar: oslash
Encoding: 248 248 178
Width: 1288
VWidth: 0
Flags: W
LayerCount: 2
Fore
SplineSet
43 547 m 0
 43 807 43 807 204 949 c 0
 365 1091 365 1091 645 1091 c 0
 925 1091 925 1091 1086 949 c 0
 1247 807 1247 807 1247 547 c 0
 1247 372 1247 372 1170.5 243 c 0
 1094 114 1094 114 958.5 48 c 0
 823 -18 823 -18 645 -18 c 0
 467 -18 467 -18 331.5 48 c 0
 196 114 196 114 119.5 243 c 0
 43 372 43 372 43 547 c 0
508 545 m 0
 508 294 508 294 645 294 c 0
 782 294 782 294 782 545 c 0
 782 596 782 596 777.5 631.5 c 0
 773 667 773 667 760 704 c 0
 747 741 747 741 718 760 c 0
 689 779 689 779 645 779 c 0
 601 779 601 779 572 760 c 0
 543 741 543 741 530 704 c 0
 517 667 517 667 512.5 631.5 c 0
 508 596 508 596 508 545 c 0
246 -54 m 1
 947 1192 l 1
 1034 1142 l 1
 333 -104 l 1
 246 -54 l 1
EndSplineSet
EndChar

StartChar: otilde
Encoding: 245 245 179
Width: 1290
VWidth: 0
Flags: W
LayerCount: 2
Fore
SplineSet
43 547 m 0
 43 807 43 807 204 949 c 0
 365 1091 365 1091 645 1091 c 0
 925 1091 925 1091 1086 949 c 0
 1247 807 1247 807 1247 547 c 0
 1247 372 1247 372 1170.5 243 c 0
 1094 114 1094 114 958.5 48 c 0
 823 -18 823 -18 645 -18 c 0
 467 -18 467 -18 331.5 48 c 0
 196 114 196 114 119.5 243 c 0
 43 372 43 372 43 547 c 0
508 545 m 0
 508 294 508 294 645 294 c 0
 782 294 782 294 782 545 c 0
 782 596 782 596 777.5 631.5 c 0
 773 667 773 667 760 704 c 0
 747 741 747 741 718 760 c 0
 689 779 689 779 645 779 c 0
 601 779 601 779 572 760 c 0
 543 741 543 741 530 704 c 0
 517 667 517 667 512.5 631.5 c 0
 508 596 508 596 508 545 c 0
813 1523 m 0
 857 1523 857 1523 893 1504 c 0
 929 1485 929 1485 955 1450.5 c 0
 981 1416 981 1416 1000.5 1382 c 0
 1020 1348 1020 1348 1043.5 1303 c 0
 1067 1258 1067 1258 1085 1232 c 1
 972 1158 l 1
 899 1228 899 1228 871.5 1247 c 0
 844 1266 844 1266 825 1266 c 0
 780 1266 780 1266 718 1236 c 0
 656 1206 656 1206 589.5 1175.5 c 0
 523 1145 523 1145 468 1145 c 0
 423 1145 423 1145 387 1163.5 c 0
 351 1182 351 1182 324.5 1216.5 c 0
 298 1251 298 1251 279 1284.5 c 0
 260 1318 260 1318 236 1363.5 c 0
 212 1409 212 1409 194 1435 c 1
 308 1510 l 1
 384 1437 384 1437 412 1417.5 c 0
 440 1398 440 1398 458 1398 c 0
 494 1398 494 1398 541 1417.5 c 0
 588 1437 588 1437 627 1460.5 c 0
 666 1484 666 1484 717 1503.5 c 0
 768 1523 768 1523 813 1523 c 0
EndSplineSet
EndChar

StartChar: overscore
Encoding: 175 175 180
Width: 774
VWidth: 0
Flags: W
LayerCount: 2
Fore
SplineSet
70 1433 m 1
 70 1164 l 1
 717 1164 l 1
 717 1433 l 1
 70 1433 l 1
EndSplineSet
EndChar

StartChar: p
Encoding: 112 112 181
Width: 1438
VWidth: 0
Flags: W
LayerCount: 2
Fore
SplineSet
740 -397 m 1
 740 -96 l 1
 629 -96 l 1
 629 119 l 1
 670 86 670 86 690 71.5 c 0
 710 57 710 57 753.5 31.5 c 0
 797 6 797 6 842.5 -5.5 c 0
 888 -17 888 -17 940 -17 c 0
 1049 -17 1049 -17 1137.5 30.5 c 0
 1226 78 1226 78 1280.5 157.5 c 0
 1335 237 1335 237 1364 335.5 c 0
 1393 434 1393 434 1393 541 c 0
 1393 649 1393 649 1363 748 c 0
 1333 847 1333 847 1277.5 924 c 0
 1222 1001 1222 1001 1135 1047 c 0
 1048 1093 1048 1093 942 1093 c 0
 849 1093 849 1093 781.5 1060.5 c 0
 714 1028 714 1028 650 956 c 1
 640 956 l 1
 640 1072 l 1
 76 1072 l 1
 76 761 l 1
 150 761 l 1
 150 -94 l 1
 66 -94 l 1
 66 -398 l 1
 740 -397 l 1
629 417 m 1
 629 645 l 1
 630 649 630 649 632 655 c 0
 634 661 634 661 644 677.5 c 0
 654 694 654 694 667.5 706.5 c 0
 681 719 681 719 705.5 729 c 0
 730 739 730 739 761 739 c 0
 924 739 924 739 924 545 c 0
 924 501 924 501 916.5 462.5 c 0
 909 424 909 424 891.5 388 c 0
 874 352 874 352 840 331 c 0
 806 310 806 310 758 310 c 0
 726 310 726 310 701 321 c 0
 676 332 676 332 663 348 c 0
 650 364 650 364 641.5 379.5 c 0
 633 395 633 395 631 406 c 2
 629 417 l 1
EndSplineSet
EndChar

StartChar: paragraph
Encoding: 182 182 182
Width: 1555
VWidth: 0
Flags: W
LayerCount: 2
Fore
SplineSet
624 739 m 1
 491 739 491 739 389.5 761 c 0
 288 783 288 783 210 832 c 0
 132 881 132 881 92 965 c 0
 52 1049 52 1049 54 1166 c 0
 55 1241 55 1241 70.5 1303 c 0
 86 1365 86 1365 113.5 1409.5 c 0
 141 1454 141 1454 179 1489.5 c 0
 217 1525 217 1525 263.5 1546.5 c 0
 310 1568 310 1568 363.5 1584.5 c 0
 417 1601 417 1601 476 1607.5 c 0
 535 1614 535 1614 598 1619 c 0
 661 1624 661 1624 726 1623 c 0
 791 1622 791 1622 857 1623 c 0
 901 1623 901 1623 923 1623 c 2
 1424 1623 l 1
 1424 1268 l 1
 1273 1268 l 1
 1273 363 l 1
 1429 363 l 1
 1429 0 l 1
 1020 0 l 1
 1020 1270 l 1
 895 1270 l 1
 895 0 l 1
 478 0 l 1
 478 363 l 1
 624 363 l 1
 624 739 l 1
EndSplineSet
EndChar

StartChar: parenleft
Encoding: 40 40 183
Width: 966
VWidth: 0
Flags: W
LayerCount: 2
Fore
SplineSet
912 1321 m 1
 835 1319 835 1319 775 1298.5 c 0
 715 1278 715 1278 677 1239.5 c 0
 639 1201 639 1201 613.5 1156.5 c 0
 588 1112 588 1112 575.5 1051.5 c 0
 563 991 563 991 558.5 938.5 c 0
 554 886 554 886 554 820 c 0
 554 742 554 742 562.5 675 c 0
 571 608 571 608 594.5 539.5 c 0
 618 471 618 471 656 423 c 0
 694 375 694 375 758 344.5 c 0
 822 314 822 314 906 314 c 1
 906 -17 l 1
 733 -17 733 -17 590.5 28 c 0
 448 73 448 73 349 151 c 0
 250 229 250 229 181.5 335.5 c 0
 113 442 113 442 81.5 563.5 c 0
 50 685 50 685 50 819 c 0
 50 1026 50 1026 98 1178.5 c 0
 146 1331 146 1331 248.5 1438.5 c 0
 351 1546 351 1546 516.5 1599.5 c 0
 682 1653 682 1653 912 1653 c 1
 912 1321 l 1
EndSplineSet
EndChar

StartChar: parenright
Encoding: 41 41 184
Width: 966
VWidth: 0
Flags: W
LayerCount: 2
Fore
SplineSet
54 1321 m 1
 131 1319 131 1319 191 1298.5 c 0
 251 1278 251 1278 289 1239.5 c 0
 327 1201 327 1201 352.5 1156.5 c 0
 378 1112 378 1112 390.5 1051.5 c 0
 403 991 403 991 407.5 938.5 c 0
 412 886 412 886 412 820 c 0
 412 742 412 742 403.5 675 c 0
 395 608 395 608 371.5 539.5 c 0
 348 471 348 471 310 423 c 0
 272 375 272 375 208 344.5 c 0
 144 314 144 314 60 314 c 1
 60 -17 l 1
 233 -17 233 -17 375.5 28 c 0
 518 73 518 73 617 151 c 0
 716 229 716 229 784.5 335.5 c 0
 853 442 853 442 884.5 563.5 c 0
 916 685 916 685 916 819 c 0
 916 1026 916 1026 868 1178.5 c 0
 820 1331 820 1331 717.5 1438.5 c 0
 615 1546 615 1546 449.5 1599.5 c 0
 284 1653 284 1653 54 1653 c 1
 54 1321 l 1
EndSplineSet
EndChar

StartChar: partialdiff
Encoding: 8706 8706 185
Width: 1354
VWidth: 0
Flags: W
LayerCount: 2
Fore
SplineSet
768 1345 m 1
 782 1331 782 1331 822.5 1292 c 0
 863 1253 863 1253 887.5 1229 c 0
 912 1205 912 1205 955.5 1160 c 0
 999 1115 999 1115 1028 1082.5 c 0
 1057 1050 1057 1050 1096.5 1001.5 c 0
 1136 953 1136 953 1162 913 c 0
 1188 873 1188 873 1216.5 822.5 c 0
 1245 772 1245 772 1262 727 c 0
 1279 682 1279 682 1290 632 c 0
 1301 582 1301 582 1301 534 c 0
 1301 370 1301 370 1216.5 243 c 0
 1132 116 1132 116 990 49 c 0
 848 -18 848 -18 674 -18 c 0
 512 -18 512 -18 370.5 54 c 0
 229 126 229 126 142 256 c 0
 55 386 55 386 54 544 c 0
 52 755 52 755 181.5 883.5 c 0
 311 1012 311 1012 527 1023 c 1
 517 1050 517 1050 444.5 1128.5 c 0
 372 1207 372 1207 302 1275.5 c 0
 232 1344 232 1344 232 1345 c 1
 768 1345 l 1
785 550 m 0
 785 588 785 588 784 612 c 0
 783 636 783 636 776.5 670 c 0
 770 704 770 704 758.5 724 c 0
 747 744 747 744 724 759 c 0
 701 774 701 774 668 775 c 0
 638 775 638 775 616.5 756 c 0
 595 737 595 737 585.5 714 c 0
 576 691 576 691 570.5 652 c 0
 565 613 565 613 564.5 594.5 c 0
 564 576 564 576 564 544 c 0
 564 327 564 327 680 327 c 0
 714 327 714 327 736.5 351.5 c 0
 759 376 759 376 768.5 415.5 c 0
 778 455 778 455 781.5 486 c 0
 785 517 785 517 785 550 c 0
EndSplineSet
EndChar

StartChar: percent
Encoding: 37 37 186
Width: 2728
VWidth: 0
Flags: W
LayerCount: 2
Fore
SplineSet
1675 521 m 0
 1675 273 1675 273 1811 127.5 c 0
 1947 -18 1947 -18 2193 -18 c 0
 2310 -18 2310 -18 2403 30 c 0
 2496 78 2496 78 2553 159 c 0
 2610 240 2610 240 2640 341 c 0
 2670 442 2670 442 2670 555 c 0
 2670 800 2670 800 2541 948 c 0
 2412 1096 2412 1096 2169 1096 c 0
 2021 1096 2021 1096 1907 1017.5 c 0
 1793 939 1793 939 1734 809 c 0
 1675 679 1675 679 1675 521 c 0
2175 755 m 1
 2198 753 2198 753 2215 742 c 0
 2232 731 2232 731 2242 710.5 c 0
 2252 690 2252 690 2258.5 671.5 c 0
 2265 653 2265 653 2267 624 c 0
 2269 595 2269 595 2269.5 580.5 c 0
 2270 566 2270 566 2269 540 c 1
 2269 513 l 2
 2269 491 2269 491 2268 474 c 0
 2267 457 2267 457 2264.5 434 c 0
 2262 411 2262 411 2255 394.5 c 0
 2248 378 2248 378 2238 363 c 0
 2228 348 2228 348 2211 340 c 0
 2194 332 2194 332 2172 332 c 0
 2079 332 2079 332 2079 540 c 0
 2079 651 2079 651 2095 693 c 1
 2119 752 2119 752 2175 755 c 1
1441 0 m 1
 1783 1623 l 1
 1279 1623 l 1
 938 0 l 1
 1441 0 l 1
56 1078 m 0
 56 830 56 830 192 684.5 c 0
 328 539 328 539 574 539 c 0
 691 539 691 539 784 587 c 0
 877 635 877 635 934 716 c 0
 991 797 991 797 1021 898 c 0
 1051 999 1051 999 1051 1112 c 0
 1051 1357 1051 1357 922 1505 c 0
 793 1653 793 1653 550 1653 c 0
 402 1653 402 1653 288 1574.5 c 0
 174 1496 174 1496 115 1366 c 0
 56 1236 56 1236 56 1078 c 0
556 1312 m 1
 579 1310 579 1310 596 1299 c 0
 613 1288 613 1288 623 1267.5 c 0
 633 1247 633 1247 639.5 1228.5 c 0
 646 1210 646 1210 648 1181 c 0
 650 1152 650 1152 650.5 1137.5 c 0
 651 1123 651 1123 651 1096 c 1
 650 1070 l 2
 650 1048 650 1048 649 1031 c 0
 648 1014 648 1014 645.5 991 c 0
 643 968 643 968 636 951.5 c 0
 629 935 629 935 619 920 c 0
 609 905 609 905 592 897 c 0
 575 889 575 889 553 889 c 0
 460 889 460 889 460 1097 c 0
 460 1208 460 1208 476 1250 c 0
 499 1310 499 1310 556 1312 c 1
EndSplineSet
EndChar

StartChar: period
Encoding: 46 46 187
Width: 678
VWidth: 0
Flags: W
LayerCount: 2
Fore
SplineSet
335 -27 m 0
 216 -27 216 -27 137 40.5 c 0
 58 108 58 108 58 223 c 0
 58 336 58 336 135.5 402 c 0
 213 468 213 468 335 468 c 0
 462 468 462 468 542 402 c 0
 622 336 622 336 622 223 c 0
 622 108 622 108 539.5 40.5 c 0
 457 -27 457 -27 335 -27 c 0
EndSplineSet
EndChar

StartChar: periodcentered
Encoding: 183 183 188
Width: 682
VWidth: 0
Flags: W
LayerCount: 2
Fore
SplineSet
337 514 m 0
 218 514 218 514 139 581.5 c 0
 60 649 60 649 60 764 c 0
 60 877 60 877 137.5 943 c 0
 215 1009 215 1009 337 1009 c 0
 464 1009 464 1009 544 943 c 0
 624 877 624 877 624 764 c 0
 624 649 624 649 541.5 581.5 c 0
 459 514 459 514 337 514 c 0
EndSplineSet
EndChar

StartChar: perthousand
Encoding: 8240 8240 189
Width: 3811
VWidth: 0
Flags: W
LayerCount: 2
Fore
SplineSet
2760 521 m 0
 2760 273 2760 273 2896 127.5 c 0
 3032 -18 3032 -18 3278 -18 c 0
 3395 -18 3395 -18 3488 30 c 0
 3581 78 3581 78 3638 159 c 0
 3695 240 3695 240 3725 341 c 0
 3755 442 3755 442 3755 555 c 0
 3755 800 3755 800 3626 948 c 0
 3497 1096 3497 1096 3254 1096 c 0
 3106 1096 3106 1096 2992 1017.5 c 0
 2878 939 2878 939 2819 809 c 0
 2760 679 2760 679 2760 521 c 0
3260 755 m 1
 3283 753 3283 753 3300 742 c 0
 3317 731 3317 731 3327 710.5 c 0
 3337 690 3337 690 3343.5 671.5 c 0
 3350 653 3350 653 3352 624 c 0
 3354 595 3354 595 3354.5 580.5 c 0
 3355 566 3355 566 3355 540 c 2
 3354 513 l 2
 3354 491 3354 491 3353 474 c 0
 3352 457 3352 457 3349.5 434 c 0
 3347 411 3347 411 3340 394.5 c 0
 3333 378 3333 378 3323 363 c 0
 3313 348 3313 348 3296 340 c 0
 3279 332 3279 332 3257 332 c 0
 3164 332 3164 332 3164 540 c 0
 3164 651 3164 651 3180 693 c 1
 3204 752 3204 752 3260 755 c 1
1440 0 m 1
 1782 1623 l 1
 1278 1623 l 1
 937 0 l 1
 1440 0 l 1
56 1078 m 0
 56 830 56 830 192 684.5 c 0
 328 539 328 539 574 539 c 0
 691 539 691 539 784 587 c 0
 877 635 877 635 934 716 c 0
 991 797 991 797 1021 898 c 0
 1051 999 1051 999 1051 1112 c 0
 1051 1357 1051 1357 922 1505 c 0
 793 1653 793 1653 550 1653 c 0
 402 1653 402 1653 288 1574.5 c 0
 174 1496 174 1496 115 1366 c 0
 56 1236 56 1236 56 1078 c 0
556 1312 m 1
 579 1310 579 1310 596 1299 c 0
 613 1288 613 1288 623 1267.5 c 0
 633 1247 633 1247 639.5 1228.5 c 0
 646 1210 646 1210 648 1181 c 0
 650 1152 650 1152 650.5 1137.5 c 0
 651 1123 651 1123 651 1096 c 1
 650 1070 l 2
 650 1048 650 1048 649 1031 c 0
 648 1014 648 1014 645.5 991 c 0
 643 968 643 968 636 951.5 c 0
 629 935 629 935 619 920 c 0
 609 905 609 905 592 897 c 0
 575 889 575 889 553 889 c 0
 460 889 460 889 460 1097 c 0
 460 1208 460 1208 476 1250 c 0
 499 1310 499 1310 556 1312 c 1
1675 521 m 0
 1675 273 1675 273 1811 127.5 c 0
 1947 -18 1947 -18 2193 -18 c 0
 2310 -18 2310 -18 2403 30 c 0
 2496 78 2496 78 2553 159 c 0
 2610 240 2610 240 2640 341 c 0
 2670 442 2670 442 2670 555 c 0
 2670 800 2670 800 2541 948 c 0
 2412 1096 2412 1096 2169 1096 c 0
 2021 1096 2021 1096 1907 1017.5 c 0
 1793 939 1793 939 1734 809 c 0
 1675 679 1675 679 1675 521 c 0
2175 755 m 1
 2198 753 2198 753 2215 742 c 0
 2232 731 2232 731 2242 710.5 c 0
 2252 690 2252 690 2258.5 671.5 c 0
 2265 653 2265 653 2267 624 c 0
 2269 595 2269 595 2269.5 580.5 c 0
 2270 566 2270 566 2269 540 c 1
 2269 513 l 2
 2269 491 2269 491 2268 474 c 0
 2267 457 2267 457 2264.5 434 c 0
 2262 411 2262 411 2255 394.5 c 0
 2248 378 2248 378 2238 363 c 0
 2228 348 2228 348 2211 340 c 0
 2194 332 2194 332 2172 332 c 0
 2079 332 2079 332 2079 540 c 0
 2079 651 2079 651 2095 693 c 1
 2119 752 2119 752 2175 755 c 1
EndSplineSet
EndChar

StartChar: pi
Encoding: 960 960 190
Width: 1537
VWidth: 0
Flags: W
LayerCount: 2
Fore
SplineSet
151 0 m 1
 712 0 l 1
 713 761 l 1
 871 761 l 1
 871 388 l 2
 871 327 871 327 876 278 c 0
 881 229 881 229 895 190 c 0
 909 151 909 151 922 121 c 0
 935 91 935 91 964.5 69.5 c 0
 994 48 994 48 1014 33 c 0
 1034 18 1034 18 1079 8 c 0
 1124 -2 1124 -2 1152 -7 c 0
 1180 -12 1180 -12 1240 -14.5 c 0
 1300 -17 1300 -17 1335.5 -17.5 c 0
 1371 -18 1371 -18 1445 -18 c 1
 1445 287 l 1
 1335 287 1335 287 1315 352.5 c 0
 1295 418 1295 418 1295 744 c 0
 1295 755 1295 755 1295 761 c 1
 1444 761 l 1
 1444 1072 l 1
 498 1072 l 2
 411 1072 411 1072 348.5 1069 c 0
 286 1066 286 1066 235.5 1053.5 c 0
 185 1041 185 1041 153 1030 c 0
 121 1019 121 1019 97.5 989 c 0
 74 959 74 959 62.5 935.5 c 0
 51 912 51 912 44.5 860.5 c 0
 38 809 38 809 37 768.5 c 0
 36 728 36 728 36 651 c 1
 94 651 l 1
 94 700 94 700 144 730.5 c 0
 194 761 194 761 298 761 c 1
 151 0 l 1
EndSplineSet
EndChar

StartChar: plus
Encoding: 43 43 191
Width: 910
VWidth: 0
Flags: W
LayerCount: 2
Fore
SplineSet
59 517 m 1
 331 517 l 1
 331 238 l 1
 586 238 l 1
 586 517 l 1
 851 517 l 1
 851 762 l 1
 586 762 l 1
 586 1051 l 1
 331 1051 l 1
 331 762 l 1
 59 762 l 1
 59 517 l 1
EndSplineSet
EndChar

StartChar: plusminus
Encoding: 177 177 192
Width: 849
VWidth: 0
Flags: W
LayerCount: 2
Fore
SplineSet
99 223 m 1
 99 -1 l 1
 746 -1 l 1
 746 223 l 1
 99 223 l 1
69 517 m 1
 301 517 l 1
 301 278 l 1
 556 278 l 1
 556 517 l 1
 781 517 l 1
 781 762 l 1
 556 762 l 1
 556 1031 l 1
 301 1031 l 1
 301 762 l 1
 69 762 l 1
 69 517 l 1
EndSplineSet
EndChar

StartChar: product
Encoding: 8719 8719 193
Width: 1837
VWidth: 0
Flags: W
LayerCount: 2
Fore
SplineSet
1763 1623 m 1
 70 1623 l 1
 70 1247 l 1
 217 1247 l 1
 217 351 l 1
 70 351 l 1
 70 0 l 1
 879 0 l 1
 880 351 l 1
 784 351 l 1
 784 1272 l 1
 1053 1272 l 1
 1053 351 l 1
 969 351 l 1
 969 0 l 1
 1769 0 l 1
 1769 351 l 1
 1622 351 l 1
 1622 1247 l 1
 1763 1247 l 1
 1763 1623 l 1
EndSplineSet
EndChar

StartChar: q
Encoding: 113 113 194
Width: 1438
VWidth: 0
Flags: W
LayerCount: 2
Fore
SplineSet
698 -397 m 1
 698 -96 l 1
 809 -96 l 1
 809 128 l 1
 776 100 776 100 762 88.5 c 0
 748 77 748 77 712 52 c 0
 676 27 676 27 649 15.5 c 0
 622 4 622 4 581 -6.5 c 0
 540 -17 540 -17 498 -17 c 0
 406 -17 406 -17 330 16 c 0
 254 49 254 49 202 105.5 c 0
 150 162 150 162 114 238 c 0
 78 314 78 314 61.5 397.5 c 0
 45 481 45 481 45 571 c 0
 45 673 45 673 77.5 767 c 0
 110 861 110 861 168 933.5 c 0
 226 1006 226 1006 314 1049 c 0
 402 1092 402 1092 506 1092 c 0
 603 1092 603 1092 670.5 1067 c 0
 738 1042 738 1042 808 985 c 1
 818 985 l 1
 882 1072 l 1
 1362 1072 l 1
 1362 761 l 1
 1288 761 l 1
 1288 -94 l 1
 1372 -94 l 1
 1372 -398 l 1
 698 -397 l 1
809 526 m 1
 815 557 815 557 809.5 599 c 0
 804 641 804 641 793 678.5 c 0
 782 716 782 716 751.5 742 c 0
 721 768 721 768 677 768 c 0
 534 768 534 768 534 554 c 0
 534 496 534 496 545 449 c 0
 556 402 556 402 590.5 365.5 c 0
 625 329 625 329 680 329 c 0
 724 329 724 329 754.5 362 c 0
 785 395 785 395 797 438 c 0
 809 481 809 481 809 526 c 1
EndSplineSet
EndChar

StartChar: question
Encoding: 63 63 195
Width: 1311
VWidth: 0
Flags: W
LayerCount: 2
Fore
SplineSet
350 539 m 1
 697 539 l 1
 697 726 l 1
 758 747 758 747 804.5 765.5 c 0
 851 784 851 784 912.5 813.5 c 0
 974 843 974 843 1019.5 873 c 0
 1065 903 1065 903 1112.5 946 c 0
 1160 989 1160 989 1190 1035.5 c 0
 1220 1082 1220 1082 1239.5 1143 c 0
 1259 1204 1259 1204 1259 1272 c 0
 1259 1404 1259 1404 1181 1510.5 c 0
 1103 1617 1103 1617 965.5 1677 c 0
 828 1737 828 1737 659 1737 c 0
 402 1737 402 1737 232.5 1591 c 0
 63 1445 63 1445 49 1219 c 1
 521 1219 l 1
 531 1381 531 1381 651 1381 c 0
 681 1381 681 1381 702 1365.5 c 0
 723 1350 723 1350 731.5 1326 c 0
 740 1302 740 1302 743.5 1283.5 c 0
 747 1265 747 1265 747 1249 c 0
 747 1070 747 1070 351 891 c 1
 350 539 l 1
530 -27 m 0
 411 -27 411 -27 332 40.5 c 0
 253 108 253 108 253 223 c 0
 253 336 253 336 330.5 402 c 0
 408 468 408 468 530 468 c 0
 657 468 657 468 737 402 c 0
 817 336 817 336 817 223 c 0
 817 108 817 108 734.5 40.5 c 0
 652 -27 652 -27 530 -27 c 0
EndSplineSet
EndChar

StartChar: questiondown
Encoding: 191 191 196
Width: 1312
VWidth: 0
Flags: W
LayerCount: 2
Fore
SplineSet
962 1180 m 1
 615 1180 l 1
 615 993 l 1
 554 972 554 972 507.5 953.5 c 0
 461 935 461 935 399.5 905.5 c 0
 338 876 338 876 292.5 846 c 0
 247 816 247 816 199.5 773 c 0
 152 730 152 730 122 683.5 c 0
 92 637 92 637 72.5 576 c 0
 53 515 53 515 53 447 c 0
 53 315 53 315 131 208.5 c 0
 209 102 209 102 346.5 42 c 0
 484 -18 484 -18 653 -18 c 0
 910 -18 910 -18 1079.5 128 c 0
 1249 274 1249 274 1263 500 c 1
 791 500 l 1
 781 338 781 338 661 338 c 0
 631 338 631 338 610 353.5 c 0
 589 369 589 369 580.5 393 c 0
 572 417 572 417 568.5 435.5 c 0
 565 454 565 454 565 470 c 0
 565 649 565 649 961 828 c 1
 962 1180 l 1
782 1746 m 0
 901 1746 901 1746 980 1678.5 c 0
 1059 1611 1059 1611 1059 1496 c 0
 1059 1383 1059 1383 981.5 1317 c 0
 904 1251 904 1251 782 1251 c 0
 655 1251 655 1251 575 1317 c 0
 495 1383 495 1383 495 1496 c 0
 495 1611 495 1611 577.5 1678.5 c 0
 660 1746 660 1746 782 1746 c 0
EndSplineSet
EndChar

StartChar: quotedbl
Encoding: 34 34 197
Width: 1147
VWidth: 0
Flags: W
LayerCount: 2
Fore
SplineSet
124 945 m 1
 424 945 l 1
 524 1624 l 1
 44 1624 l 1
 124 945 l 1
711 945 m 1
 1011 945 l 1
 1111 1624 l 1
 631 1624 l 1
 711 945 l 1
EndSplineSet
EndChar

StartChar: quotedblbase
Encoding: 8222 8222 198
Width: 1350
VWidth: 0
Flags: W
LayerCount: 2
Fore
SplineSet
730 -448 m 1
 1004 -448 1004 -448 1134 -318.5 c 0
 1264 -189 1264 -189 1264 89 c 0
 1264 212 1264 212 1240 366 c 1
 730 366 l 1
 730 0 l 1
 919 0 l 1
 919 -42 919 -42 918 -64.5 c 0
 917 -87 917 -87 911.5 -117 c 0
 906 -147 906 -147 894 -163 c 0
 882 -179 882 -179 861.5 -194.5 c 0
 841 -210 841 -210 808 -216.5 c 0
 775 -223 775 -223 730 -223 c 1
 730 -448 l 1
95 -448 m 1
 369 -448 369 -448 499 -318.5 c 0
 629 -189 629 -189 629 89 c 0
 629 212 629 212 605 366 c 1
 95 366 l 1
 95 0 l 1
 284 0 l 1
 284 -42 284 -42 283 -64.5 c 0
 282 -87 282 -87 276.5 -117 c 0
 271 -147 271 -147 259 -163 c 0
 247 -179 247 -179 226.5 -194.5 c 0
 206 -210 206 -210 173 -216.5 c 0
 140 -223 140 -223 95 -223 c 1
 95 -448 l 1
EndSplineSet
EndChar

StartChar: quotedblleft
Encoding: 8220 8220 199
Width: 1315
VWidth: 0
Flags: W
LayerCount: 2
Fore
SplineSet
1233 1653 m 1
 959 1653 959 1653 829 1523.5 c 0
 699 1394 699 1394 699 1116 c 0
 699 993 699 993 723 839 c 1
 1233 839 l 1
 1233 1205 l 1
 1044 1205 l 1
 1044 1247 1044 1247 1045 1269.5 c 0
 1046 1292 1046 1292 1051.5 1322 c 0
 1057 1352 1057 1352 1069 1368 c 0
 1081 1384 1081 1384 1101.5 1399.5 c 0
 1122 1415 1122 1415 1155 1421.5 c 0
 1188 1428 1188 1428 1233 1428 c 1
 1233 1653 l 1
602 1653 m 1
 328 1653 328 1653 198 1523.5 c 0
 68 1394 68 1394 68 1116 c 0
 68 993 68 993 92 839 c 1
 602 839 l 1
 602 1205 l 1
 413 1205 l 1
 413 1247 413 1247 414 1269.5 c 0
 415 1292 415 1292 420.5 1322 c 0
 426 1352 426 1352 438 1368 c 0
 450 1384 450 1384 470.5 1399.5 c 0
 491 1415 491 1415 524 1421.5 c 0
 557 1428 557 1428 602 1428 c 1
 602 1653 l 1
EndSplineSet
EndChar

StartChar: quotedblright
Encoding: 8221 8221 200
Width: 1317
VWidth: 0
Flags: W
LayerCount: 2
Fore
SplineSet
738 809 m 1
 1012 809 1012 809 1142 938.5 c 0
 1272 1068 1272 1068 1272 1346 c 0
 1272 1468 1272 1468 1248 1623 c 1
 738 1623 l 1
 738 1257 l 1
 927 1257 l 1
 927 1215 927 1215 926 1192.5 c 0
 925 1170 925 1170 919.5 1140 c 0
 914 1110 914 1110 902 1094 c 0
 890 1078 890 1078 869.5 1062.5 c 0
 849 1047 849 1047 816 1040.5 c 0
 783 1034 783 1034 738 1034 c 1
 738 809 l 1
87 809 m 1
 361 809 361 809 491 938.5 c 0
 621 1068 621 1068 621 1346 c 0
 621 1468 621 1468 597 1623 c 1
 87 1623 l 1
 87 1257 l 1
 276 1257 l 1
 276 1215 276 1215 275 1192.5 c 0
 274 1170 274 1170 268.5 1140 c 0
 263 1110 263 1110 251 1094 c 0
 239 1078 239 1078 218.5 1062.5 c 0
 198 1047 198 1047 165 1040.5 c 0
 132 1034 132 1034 87 1034 c 1
 87 809 l 1
EndSplineSet
EndChar

StartChar: quoteleft
Encoding: 8216 8216 201
Width: 683
VWidth: 0
Flags: W
LayerCount: 2
Fore
SplineSet
601 1653 m 1
 327 1653 327 1653 197 1523.5 c 0
 67 1394 67 1394 67 1116 c 0
 67 993 67 993 91 839 c 1
 601 839 l 1
 601 1205 l 1
 412 1205 l 1
 412 1247 412 1247 413 1269.5 c 0
 414 1292 414 1292 419.5 1322 c 0
 425 1352 425 1352 437 1368 c 0
 449 1384 449 1384 469.5 1399.5 c 0
 490 1415 490 1415 523 1421.5 c 0
 556 1428 556 1428 601 1428 c 1
 601 1653 l 1
EndSplineSet
EndChar

StartChar: quoteright
Encoding: 8217 8217 202
Width: 667
VWidth: 0
Flags: W
LayerCount: 2
Fore
SplineSet
87 809 m 1
 361 809 361 809 491 938.5 c 0
 621 1068 621 1068 621 1346 c 0
 621 1468 621 1468 597 1623 c 1
 87 1623 l 1
 87 1257 l 1
 276 1257 l 1
 276 1215 276 1215 275 1192.5 c 0
 274 1170 274 1170 268.5 1140 c 0
 263 1110 263 1110 251 1094 c 0
 239 1078 239 1078 218.5 1062.5 c 0
 198 1047 198 1047 165 1040.5 c 0
 132 1034 132 1034 87 1034 c 1
 87 809 l 1
EndSplineSet
EndChar

StartChar: quotesinglbase
Encoding: 8218 8218 203
Width: 716
VWidth: 0
Flags: W
LayerCount: 2
Fore
SplineSet
95 -448 m 1
 369 -448 369 -448 499 -318.5 c 0
 629 -189 629 -189 629 89 c 0
 629 212 629 212 605 366 c 1
 95 366 l 1
 95 0 l 1
 284 0 l 1
 284 -42 284 -42 283 -64.5 c 0
 282 -87 282 -87 276.5 -117 c 0
 271 -147 271 -147 259 -163 c 0
 247 -179 247 -179 226.5 -194.5 c 0
 206 -210 206 -210 173 -216.5 c 0
 140 -223 140 -223 95 -223 c 1
 95 -448 l 1
EndSplineSet
EndChar

StartChar: quotesingle
Encoding: 39 39 204
Width: 559
VWidth: 0
Flags: W
LayerCount: 2
Fore
SplineSet
124 945 m 1
 424 945 l 1
 524 1624 l 1
 44 1624 l 1
 124 945 l 1
EndSplineSet
EndChar

StartChar: r
Encoding: 114 114 205
Width: 1000
VWidth: 0
Flags: W
LayerCount: 2
Fore
SplineSet
94 761 m 1
 173 761 l 1
 173 305 l 1
 94 305 l 1
 94 0 l 1
 768 0 l 1
 768 305 l 1
 631 305 l 1
 631 426 l 2
 631 547 631 547 694 610.5 c 0
 757 674 757 674 867 674 c 1
 973 667 l 1
 973 1083 l 1
 874 1083 874 1083 782 1036 c 0
 690 989 690 989 641 905 c 1
 637 909 l 1
 637 1072 l 1
 94 1072 l 1
 94 761 l 1
EndSplineSet
EndChar

StartChar: radical
Encoding: 8730 8730 206
Width: 2486
VWidth: 0
Flags: W
LayerCount: 2
Fore
SplineSet
79 978 m 1
 560 977 l 1
 752 218 l 1
 1062 1622 l 1
 1876 1622 l 1
 1876 1249 l 1
 1223 1249 l 1
 930 0 l 1
 457 0 l 1
 322 588 l 1
 289 644 289 644 249.5 655.5 c 0
 210 667 210 667 79 667 c 1
 79 978 l 1
EndSplineSet
EndChar

StartChar: registered
Encoding: 174 174 207
Width: 1806
VWidth: 0
Flags: W
LayerCount: 2
Fore
SplineSet
129 1106 m 0
 63 956 63 956 63 792 c 0
 63 628 63 628 129.5 478 c 0
 196 328 196 328 308.5 219.5 c 0
 421 111 421 111 576.5 46.5 c 0
 732 -18 732 -18 903 -18 c 0
 1074 -18 1074 -18 1229.5 46.5 c 0
 1385 111 1385 111 1497.5 219.5 c 0
 1610 328 1610 328 1676.5 478 c 0
 1743 628 1743 628 1743 792 c 0
 1743 956 1743 956 1676.5 1106 c 0
 1610 1256 1610 1256 1497.5 1364.5 c 0
 1385 1473 1385 1473 1229.5 1537.5 c 0
 1074 1602 1074 1602 903 1602 c 0
 732 1602 732 1602 576.5 1537.5 c 0
 421 1473 421 1473 308.5 1364.5 c 0
 196 1256 196 1256 129 1106 c 0
903 1448 m 0
 1083 1448 1083 1448 1236.5 1360 c 0
 1390 1272 1390 1272 1479.5 1121 c 0
 1569 970 1569 970 1569 792 c 0
 1569 614 1569 614 1479.5 463 c 0
 1390 312 1390 312 1236.5 224 c 0
 1083 136 1083 136 903 136 c 0
 768 136 768 136 645 188 c 0
 522 240 522 240 432.5 328 c 0
 343 416 343 416 290 537.5 c 0
 237 659 237 659 237 792 c 0
 237 925 237 925 290 1046.5 c 0
 343 1168 343 1168 432.5 1256 c 0
 522 1344 522 1344 645 1396 c 0
 768 1448 768 1448 903 1448 c 0
923 568 m 1
 856 568 l 1
 856 749 l 1
 910 749 l 2
 973 749 973 749 993.5 715 c 0
 1014 681 1014 681 1014 614 c 2
 1014 505 l 2
 1014 464 1014 464 1028 436 c 0
 1042 408 1042 408 1060 394 c 0
 1078 380 1078 380 1112 372.5 c 0
 1146 365 1146 365 1168 364 c 0
 1190 363 1190 363 1230 363 c 2
 1376 363 l 1
 1376 562 l 1
 1318 562 1318 562 1301.5 575.5 c 0
 1285 589 1285 589 1285 622 c 2
 1285 674 l 2
 1285 725 1285 725 1249 759 c 0
 1213 793 1213 793 1131 812 c 1
 1227 829 1227 829 1279 881 c 0
 1331 933 1331 933 1331 1014 c 0
 1331 1147 1331 1147 1254.5 1206 c 0
 1178 1265 1178 1265 1036 1265 c 2
 472 1265 l 1
 472 1061 l 1
 558 1061 l 1
 558 565 l 1
 473 565 l 1
 473 362 l 1
 776 363 776 363 923 363 c 1
 923 568 l 1
852 875 m 1
 852 1071 l 1
 920 1071 l 2
 969 1071 969 1071 997 1043.5 c 0
 1025 1016 1025 1016 1025 972 c 0
 1025 875 1025 875 886 875 c 2
 852 875 l 1
EndSplineSet
EndChar

StartChar: ring
Encoding: 730 730 208
Width: 1707
VWidth: 0
Flags: W
LayerCount: 2
Fore
SplineSet
697 1240 m 0
 622 1240 622 1240 579 1284 c 0
 536 1328 536 1328 536 1388 c 0
 536 1447 536 1447 578.5 1490 c 0
 621 1533 621 1533 697 1533 c 0
 775 1533 775 1533 818.5 1490 c 0
 862 1447 862 1447 862 1388 c 0
 862 1328 862 1328 818 1284 c 0
 774 1240 774 1240 697 1240 c 0
697 1138 m 0
 828 1138 828 1138 902.5 1213 c 0
 977 1288 977 1288 977 1389 c 0
 977 1489 977 1489 903.5 1561 c 0
 830 1633 830 1633 697 1633 c 0
 568 1633 568 1633 497 1560.5 c 0
 426 1488 426 1488 426 1389 c 0
 426 1288 426 1288 498 1213 c 0
 570 1138 570 1138 697 1138 c 0
EndSplineSet
EndChar

StartChar: s
Encoding: 115 115 209
Width: 1055
VWidth: 0
Flags: W
LayerCount: 2
Fore
SplineSet
976 761 m 1
 976 1081 l 1
 808 1081 l 1
 781 1033 l 1
 771 1040 771 1040 751 1049.5 c 0
 731 1059 731 1059 655 1075.5 c 0
 579 1092 579 1092 487 1092 c 0
 366 1092 366 1092 275.5 1057 c 0
 185 1022 185 1022 130 942.5 c 0
 75 863 75 863 75 746 c 0
 75 669 75 669 102.5 611 c 0
 130 553 130 553 173.5 519 c 0
 217 485 217 485 269.5 460.5 c 0
 322 436 322 436 375 419 c 0
 428 402 428 402 471.5 386 c 0
 515 370 515 370 542.5 345.5 c 0
 570 321 570 321 570 287 c 0
 570 249 570 249 536.5 229 c 0
 503 209 503 209 462 209 c 0
 396 209 396 209 350 263.5 c 0
 304 318 304 318 292 387 c 1
 71 387 l 1
 64 9 l 1
 241 9 l 1
 277 76 l 1
 377 -18 377 -18 585 -18 c 0
 788 -18 788 -18 892 87 c 0
 996 192 996 192 996 395 c 0
 996 621 996 621 755 719 c 0
 741 724 741 724 694 736 c 0
 647 748 647 748 612 759 c 0
 577 770 577 770 547 793 c 0
 517 816 517 816 517 846 c 0
 517 881 517 881 544.5 900.5 c 0
 572 920 572 920 609 920 c 0
 643 920 643 920 678 902 c 0
 713 884 713 884 732 856 c 0
 736 851 736 851 747 827 c 0
 758 803 758 803 767 782 c 2
 775 761 l 1
 976 761 l 1
EndSplineSet
EndChar

StartChar: scaron
Encoding: 353 353 210
Width: 1055
VWidth: 0
Flags: W
LayerCount: 2
Fore
SplineSet
976 761 m 1
 976 1081 l 1
 808 1081 l 1
 781 1033 l 1
 771 1040 771 1040 751 1049.5 c 0
 731 1059 731 1059 655 1075.5 c 0
 579 1092 579 1092 487 1092 c 0
 366 1092 366 1092 275.5 1057 c 0
 185 1022 185 1022 130 942.5 c 0
 75 863 75 863 75 746 c 0
 75 669 75 669 102.5 611 c 0
 130 553 130 553 173.5 519 c 0
 217 485 217 485 269.5 460.5 c 0
 322 436 322 436 375 419 c 0
 428 402 428 402 471.5 386 c 0
 515 370 515 370 542.5 345.5 c 0
 570 321 570 321 570 287 c 0
 570 249 570 249 536.5 229 c 0
 503 209 503 209 462 209 c 0
 396 209 396 209 350 263.5 c 0
 304 318 304 318 292 387 c 1
 71 387 l 1
 64 9 l 1
 241 9 l 1
 277 76 l 1
 377 -18 377 -18 585 -18 c 0
 788 -18 788 -18 892 87 c 0
 996 192 996 192 996 395 c 0
 996 621 996 621 755 719 c 0
 741 724 741 724 694 736 c 0
 647 748 647 748 612 759 c 0
 577 770 577 770 547 793 c 0
 517 816 517 816 517 846 c 0
 517 881 517 881 544.5 900.5 c 0
 572 920 572 920 609 920 c 0
 643 920 643 920 678 902 c 0
 713 884 713 884 732 856 c 0
 736 851 736 851 747 827 c 0
 758 803 758 803 767 782 c 2
 775 761 l 1
 976 761 l 1
394 1149 m 1
 121 1526 l 1
 275 1627 l 1
 530 1382 l 1
 785 1627 l 1
 939 1526 l 1
 665 1150 l 1
 394 1149 l 1
EndSplineSet
EndChar

StartChar: scommaaccent
Encoding: 537 537 211
Width: 1055
VWidth: 0
Flags: W
LayerCount: 2
Fore
SplineSet
244 -899 m 1
 518 -899 518 -899 648 -769.5 c 0
 778 -640 778 -640 778 -362 c 0
 778 -239 778 -239 754 -85 c 1
 244 -85 l 1
 244 -451 l 1
 433 -451 l 1
 433 -493 433 -493 432 -515.5 c 0
 431 -538 431 -538 425.5 -568 c 0
 420 -598 420 -598 408 -614 c 0
 396 -630 396 -630 375.5 -645.5 c 0
 355 -661 355 -661 322 -667.5 c 0
 289 -674 289 -674 244 -674 c 1
 244 -899 l 1
976 761 m 1
 976 1081 l 1
 808 1081 l 1
 781 1033 l 1
 771 1040 771 1040 751 1049.5 c 0
 731 1059 731 1059 655 1075.5 c 0
 579 1092 579 1092 487 1092 c 0
 366 1092 366 1092 275.5 1057 c 0
 185 1022 185 1022 130 942.5 c 0
 75 863 75 863 75 746 c 0
 75 669 75 669 102.5 611 c 0
 130 553 130 553 173.5 519 c 0
 217 485 217 485 269.5 460.5 c 0
 322 436 322 436 375 419 c 0
 428 402 428 402 471.5 386 c 0
 515 370 515 370 542.5 345.5 c 0
 570 321 570 321 570 287 c 0
 570 249 570 249 536.5 229 c 0
 503 209 503 209 462 209 c 0
 396 209 396 209 350 263.5 c 0
 304 318 304 318 292 387 c 1
 71 387 l 1
 64 9 l 1
 241 9 l 1
 277 76 l 1
 377 -18 377 -18 585 -18 c 0
 788 -18 788 -18 892 87 c 0
 996 192 996 192 996 395 c 0
 996 621 996 621 755 719 c 0
 741 724 741 724 694 736 c 0
 647 748 647 748 612 759 c 0
 577 770 577 770 547 793 c 0
 517 816 517 816 517 846 c 0
 517 881 517 881 544.5 900.5 c 0
 572 920 572 920 609 920 c 0
 643 920 643 920 678 902 c 0
 713 884 713 884 732 856 c 0
 736 851 736 851 747 827 c 0
 758 803 758 803 766 782 c 2
 775 761 l 1
 976 761 l 1
EndSplineSet
EndChar

StartChar: section
Encoding: 167 167 212
Width: 1080
VWidth: 0
Flags: W
LayerCount: 2
Fore
SplineSet
76 837 m 0
 76 779 76 779 105 726 c 0
 134 673 134 673 180.5 633 c 0
 227 593 227 593 282.5 556.5 c 0
 338 520 338 520 394 488 c 0
 450 456 450 456 496.5 425 c 0
 543 394 543 394 572 358.5 c 0
 601 323 601 323 601 287 c 0
 601 249 601 249 574 229 c 0
 547 209 547 209 513 209 c 0
 443 209 443 209 394 260 c 0
 345 311 345 311 333 379 c 1
 112 379 l 1
 112 1 l 1
 282 1 l 1
 318 68 l 1
 370 15 370 15 440.5 -1.5 c 0
 511 -18 511 -18 606 -18 c 0
 756 -18 756 -18 859 78.5 c 0
 962 175 962 175 962 296 c 0
 962 457 962 457 801 555 c 1
 901 585 901 585 957 668 c 0
 1013 751 1013 751 1013 855 c 0
 1013 915 1013 915 984.5 969.5 c 0
 956 1024 956 1024 910 1064.5 c 0
 864 1105 864 1105 809 1141 c 0
 754 1177 754 1177 699 1207 c 0
 644 1237 644 1237 598 1264 c 0
 552 1291 552 1291 523.5 1320 c 0
 495 1349 495 1349 495 1377 c 0
 495 1419 495 1419 520.5 1442.5 c 0
 546 1466 546 1466 578 1466 c 0
 607 1466 607 1466 635.5 1446.5 c 0
 664 1427 664 1427 681 1395 c 1
 724 1300 l 1
 925 1300 l 1
 925 1623 l 1
 757 1623 l 1
 730 1572 l 1
 727 1575 727 1575 720.5 1579.5 c 0
 714 1584 714 1584 690.5 1595 c 0
 667 1606 667 1606 639.5 1615 c 0
 612 1624 612 1624 565 1631 c 0
 518 1638 518 1638 466 1638 c 0
 318 1638 318 1638 216.5 1556 c 0
 115 1474 115 1474 115 1356 c 0
 115 1216 115 1216 280 1097 c 1
 188 1064 188 1064 132 993 c 0
 76 922 76 922 76 837 c 0
497 988 m 1
 591 960 591 960 657.5 915 c 0
 724 870 724 870 724 821 c 0
 724 744 724 744 638 689 c 1
 532 732 532 732 463.5 781 c 0
 395 830 395 830 395 878 c 0
 395 938 395 938 497 988 c 1
EndSplineSet
EndChar

StartChar: semicolon
Encoding: 59 59 213
Width: 720
VWidth: 0
Flags: W
LayerCount: 2
Fore
SplineSet
105 -448 m 1
 379 -448 379 -448 509 -318.5 c 0
 639 -189 639 -189 639 89 c 0
 639 212 639 212 615 366 c 1
 105 366 l 1
 105 0 l 1
 294 0 l 1
 294 -42 294 -42 293 -64.5 c 0
 292 -87 292 -87 286.5 -117 c 0
 281 -147 281 -147 269 -163 c 0
 257 -179 257 -179 236.5 -194.5 c 0
 216 -210 216 -210 183 -216.5 c 0
 150 -223 150 -223 105 -223 c 1
 105 -448 l 1
372 595 m 0
 253 595 253 595 174 662.5 c 0
 95 730 95 730 95 845 c 0
 95 958 95 958 172.5 1024 c 0
 250 1090 250 1090 372 1090 c 0
 499 1090 499 1090 579 1024 c 0
 659 958 659 958 659 845 c 0
 659 730 659 730 576.5 662.5 c 0
 494 595 494 595 372 595 c 0
EndSplineSet
EndChar

StartChar: seven
Encoding: 55 55 214
Width: 1232
VWidth: 0
Flags: W
LayerCount: 2
Fore
SplineSet
63 878 m 1
 281 878 l 1
 281 963 281 963 312 991.5 c 0
 343 1020 343 1020 412 1020 c 2
 653 1020 l 1
 148 0 l 1
 680 0 l 1
 1206 1067 l 1
 1206 1337 l 1
 63 1337 l 1
 63 878 l 1
EndSplineSet
EndChar

StartChar: six
Encoding: 54 54 215
Width: 1355
VWidth: 0
Flags: W
LayerCount: 2
Fore
SplineSet
588 1345 m 1
 574 1331 574 1331 533.5 1292 c 0
 493 1253 493 1253 468.5 1229 c 0
 444 1205 444 1205 400.5 1160 c 0
 357 1115 357 1115 328 1082.5 c 0
 299 1050 299 1050 259.5 1001.5 c 0
 220 953 220 953 194 913 c 0
 168 873 168 873 139.5 822.5 c 0
 111 772 111 772 94 727 c 0
 77 682 77 682 66 632 c 0
 55 582 55 582 55 534 c 0
 55 370 55 370 139.5 243 c 0
 224 116 224 116 366 49 c 0
 508 -18 508 -18 682 -18 c 0
 844 -18 844 -18 985.5 54 c 0
 1127 126 1127 126 1214 256 c 0
 1301 386 1301 386 1302 544 c 0
 1304 755 1304 755 1174.5 883.5 c 0
 1045 1012 1045 1012 829 1023 c 1
 839 1050 839 1050 911.5 1128.5 c 0
 984 1207 984 1207 1054 1275.5 c 0
 1124 1344 1124 1344 1124 1345 c 1
 588 1345 l 1
571 550 m 0
 571 588 571 588 572 612 c 0
 573 636 573 636 579.5 670 c 0
 586 704 586 704 597.5 724 c 0
 609 744 609 744 632 759 c 0
 655 774 655 774 688 775 c 0
 718 775 718 775 739.5 756 c 0
 761 737 761 737 770.5 714 c 0
 780 691 780 691 785.5 652 c 0
 791 613 791 613 791.5 594.5 c 0
 792 576 792 576 792 544 c 0
 792 327 792 327 676 327 c 0
 642 327 642 327 619.5 351.5 c 0
 597 376 597 376 587.5 415.5 c 0
 578 455 578 455 574.5 486 c 0
 571 517 571 517 571 550 c 0
EndSplineSet
EndChar

StartChar: slash
Encoding: 47 47 216
Width: 954
VWidth: 0
Flags: W
LayerCount: 2
Fore
SplineSet
405 0 m 1
 907 1623 l 1
 543 1623 l 1
 52 0 l 1
 405 0 l 1
EndSplineSet
EndChar

StartChar: sterling
Encoding: 163 163 218
Width: 1285
VWidth: 0
Flags: W
LayerCount: 2
Fore
SplineSet
745 519 m 1
 745 760 l 1
 998 760 l 1
 998 993 l 1
 745 993 l 1
 745 1117 l 2
 745 1198 745 1198 804 1231.5 c 0
 863 1265 863 1265 974 1265 c 0
 1060 1265 1060 1265 1182 1252 c 1
 1182 1563 l 1
 1050 1609 1050 1609 865 1609 c 0
 778 1609 778 1609 696 1596 c 0
 614 1583 614 1583 535.5 1552.5 c 0
 457 1522 457 1522 399.5 1477 c 0
 342 1432 342 1432 306.5 1362.5 c 0
 271 1293 271 1293 271 1207 c 2
 271 993 l 1
 147 993 l 1
 147 760 l 1
 271 760 l 1
 271 520 l 2
 271 410 271 410 247 368.5 c 0
 223 327 223 327 161 327 c 0
 123 327 123 327 65 340 c 1
 65 29 l 1
 236 -19 236 -19 348 -19 c 0
 586 -19 586 -19 690 153 c 1
 690 -18 690 -18 944 -18 c 0
 1079 -18 1079 -18 1216 29 c 1
 1216 340 l 1
 1117 331 1117 331 1041 331 c 0
 956 331 956 331 882 339.5 c 0
 808 348 808 348 776 356 c 1
 745 365 l 1
 745 519 l 1
EndSplineSet
EndChar

StartChar: summation
Encoding: 8721 8721 219
Width: 1421
VWidth: 0
Flags: W
LayerCount: 2
Fore
SplineSet
935 833 m 1
 754 1270 l 1
 997 1270 l 1
 1073 968 l 1
 1341 969 l 1
 1341 1623 l 1
 73 1623 l 1
 73 1270 l 1
 231 1270 l 1
 419 833 l 1
 231 348 l 1
 73 348 l 1
 73 0 l 1
 1352 0 l 1
 1352 687 l 1
 1079 687 l 1
 1016 420 l 1
 1003 350 l 1
 754 350 l 1
 935 833 l 1
EndSplineSet
EndChar

StartChar: t
Encoding: 116 116 220
Width: 873
VWidth: 0
Flags: W
LayerCount: 2
Fore
SplineSet
837 348 m 1
 774 334 774 334 729 334 c 0
 673 334 673 334 652 366.5 c 0
 631 399 631 399 631 438 c 2
 632 761 l 1
 784 761 l 1
 784 1072 l 1
 632 1072 l 1
 632 1406 l 1
 145 1301 l 1
 145 1072 l 1
 42 1072 l 1
 42 761 l 1
 150 761 l 1
 149 385 l 2
 147 -18 147 -18 529 -18 c 0
 609 -18 609 -18 686 -1.5 c 0
 763 15 763 15 800 32 c 2
 837 49 l 1
 837 348 l 1
EndSplineSet
EndChar

StartChar: tcommaaccent
Encoding: 355 355 221
Width: 875
VWidth: 0
Flags: W
LayerCount: 2
Fore
SplineSet
839 348 m 1
 776 334 776 334 731 334 c 0
 675 334 675 334 654 366.5 c 0
 633 399 633 399 633 438 c 2
 634 761 l 1
 786 761 l 1
 786 1072 l 1
 634 1072 l 1
 634 1406 l 1
 147 1301 l 1
 147 1072 l 1
 44 1072 l 1
 44 761 l 1
 152 761 l 1
 151 385 l 2
 149 -18 149 -18 531 -18 c 0
 611 -18 611 -18 688 -1.5 c 0
 765 15 765 15 802 32 c 2
 839 49 l 1
 839 348 l 1
240 -899 m 1
 514 -899 514 -899 644 -769.5 c 0
 774 -640 774 -640 774 -362 c 0
 774 -239 774 -239 750 -85 c 1
 240 -85 l 1
 240 -451 l 1
 429 -451 l 1
 429 -493 429 -493 428 -515.5 c 0
 427 -538 427 -538 421.5 -568 c 0
 416 -598 416 -598 404 -614 c 0
 392 -630 392 -630 371.5 -645.5 c 0
 351 -661 351 -661 318 -667.5 c 0
 285 -674 285 -674 240 -674 c 1
 240 -899 l 1
EndSplineSet
EndChar

StartChar: thorn
Encoding: 254 254 222
Width: 1405
VWidth: 0
Flags: W
LayerCount: 2
Fore
SplineSet
707 -397 m 1
 707 -96 l 1
 596 -96 l 1
 596 119 l 1
 639 66 639 66 721.5 28.5 c 0
 804 -9 804 -9 907 -9 c 0
 1016 -9 1016 -9 1104.5 38 c 0
 1193 85 1193 85 1247.5 163.5 c 0
 1302 242 1302 242 1331 339 c 0
 1360 436 1360 436 1360 541 c 0
 1360 648 1360 648 1330 744.5 c 0
 1300 841 1300 841 1244.5 917 c 0
 1189 993 1189 993 1102 1038 c 0
 1015 1083 1015 1083 909 1083 c 0
 817 1083 817 1083 749 1053 c 0
 681 1023 681 1023 617 956 c 1
 607 956 l 1
 607 1447 l 1
 43 1447 l 1
 43 1141 l 1
 117 1141 l 1
 117 -94 l 1
 33 -94 l 1
 33 -398 l 1
 707 -397 l 1
596 417 m 1
 596 645 l 1
 597 649 597 649 599 655 c 0
 601 661 601 661 611 677.5 c 0
 621 694 621 694 634.5 706.5 c 0
 648 719 648 719 672.5 729 c 0
 697 739 697 739 728 739 c 0
 891 739 891 739 891 545 c 0
 891 501 891 501 883.5 462.5 c 0
 876 424 876 424 858.5 388 c 0
 841 352 841 352 807 331 c 0
 773 310 773 310 725 310 c 0
 693 310 693 310 668 321 c 0
 643 332 643 332 630 348 c 0
 617 364 617 364 608.5 379.5 c 0
 600 395 600 395 598 406 c 2
 596 417 l 1
EndSplineSet
EndChar

StartChar: three
Encoding: 51 51 223
Width: 1274
VWidth: 0
Flags: W
LayerCount: 2
Fore
SplineSet
83 424 m 1
 83 78 l 1
 172 18 172 18 285.5 0 c 0
 399 -18 399 -18 557 -18 c 0
 857 -18 857 -18 1031.5 110 c 0
 1206 238 1206 238 1206 474 c 0
 1206 614 1206 614 1102.5 726 c 0
 999 838 999 838 855 851 c 1
 1139 1085 1139 1085 1139 1088 c 2
 1139 1352 l 1
 70 1352 l 1
 70 899 l 1
 264 898 l 1
 285 978 285 978 300 1000 c 0
 329 1041 329 1041 401 1041 c 2
 621 1041 l 1
 621 1031 l 1
 279 740 l 1
 279 582 l 1
 280 577 l 1
 286 572 286 572 300 572 c 0
 306 572 306 572 347 582 c 0
 388 592 388 592 427 592 c 0
 472 592 472 592 513 584 c 0
 554 576 554 576 592 558 c 0
 630 540 630 540 653 505.5 c 0
 676 471 676 471 676 424 c 0
 676 383 676 383 655 353.5 c 0
 634 324 634 324 599.5 308 c 0
 565 292 565 292 528.5 285 c 0
 492 278 492 278 453 278 c 0
 264 278 264 278 83 424 c 1
EndSplineSet
EndChar

StartChar: threequarters
Encoding: 190 190 224
Width: 1827
VWidth: 0
Flags: W
LayerCount: 2
Fore
SplineSet
83 1081 m 1
 83 878 l 1
 136 843 136 843 202 832.5 c 0
 268 822 268 822 361 822 c 0
 537 822 537 822 639 897 c 0
 741 972 741 972 741 1110 c 0
 741 1192 741 1192 680.5 1257.5 c 0
 620 1323 620 1323 535 1331 c 1
 702 1468 702 1468 702 1470 c 2
 702 1624 l 1
 76 1624 l 1
 76 1359 l 1
 189 1358 l 1
 196 1385 196 1385 199.5 1394.5 c 0
 203 1404 203 1404 211.5 1418.5 c 0
 220 1433 220 1433 234 1437.5 c 0
 248 1442 248 1442 270 1442 c 2
 398 1442 l 1
 398 1436 l 1
 198 1266 l 1
 198 1173 l 1
 199 1170 l 1
 202 1168 202 1168 210 1168 c 0
 214 1168 214 1168 238 1173.5 c 0
 262 1179 262 1179 285 1179 c 0
 343 1179 343 1179 387 1156 c 0
 431 1133 431 1133 431 1081 c 0
 431 1036 431 1036 391 1015.5 c 0
 351 995 351 995 300 995 c 0
 189 995 189 995 83 1081 c 1
855 0 m 1
 1357 1623 l 1
 993 1623 l 1
 502 0 l 1
 855 0 l 1
1642 245 m 1
 1776 245 l 1
 1776 396 l 1
 1643 395 l 1
 1643 786 l 1
 1385 787 l 1
 1061 403 l 1
 1061 245 l 1
 1374 245 l 1
 1374 168 l 1
 1300 168 l 1
 1300 -1 l 1
 1714 -1 l 1
 1714 168 l 1
 1642 168 l 1
 1642 245 l 1
1263 397 m 1
 1374 534 l 1
 1374 396 l 1
 1263 397 l 1
EndSplineSet
EndChar

StartChar: threesuperior
Encoding: 179 179 225
Width: 824
VWidth: 0
Flags: W
LayerCount: 2
Fore
SplineSet
87 529 m 1
 87 326 l 1
 140 291 140 291 206 280.5 c 0
 272 270 272 270 365 270 c 0
 541 270 541 270 643 345 c 0
 745 420 745 420 745 558 c 0
 745 640 745 640 684.5 705.5 c 0
 624 771 624 771 539 779 c 1
 706 916 706 916 706 918 c 2
 706 1072 l 1
 80 1072 l 1
 80 807 l 1
 193 806 l 1
 200 833 200 833 203.5 842.5 c 0
 207 852 207 852 215.5 866.5 c 0
 224 881 224 881 238 885.5 c 0
 252 890 252 890 274 890 c 2
 402 890 l 1
 402 884 l 1
 202 714 l 1
 202 621 l 1
 203 618 l 1
 214 616 l 2
 218 616 218 616 242 621.5 c 0
 266 627 266 627 289 627 c 0
 347 627 347 627 391 604 c 0
 435 581 435 581 435 529 c 0
 435 484 435 484 395 463.5 c 0
 355 443 355 443 304 443 c 0
 193 443 193 443 87 529 c 1
EndSplineSet
EndChar

StartChar: tilde
Encoding: 732 732 226
Width: 1707
VWidth: 0
Flags: W
LayerCount: 2
Fore
SplineSet
844 1523 m 0
 888 1523 888 1523 924 1504 c 0
 960 1485 960 1485 986 1450.5 c 0
 1012 1416 1012 1416 1031.5 1382 c 0
 1051 1348 1051 1348 1074.5 1303 c 0
 1098 1258 1098 1258 1116 1232 c 1
 1003 1158 l 1
 930 1228 930 1228 902.5 1247 c 0
 875 1266 875 1266 856 1266 c 0
 811 1266 811 1266 749 1236 c 0
 687 1206 687 1206 620.5 1175.5 c 0
 554 1145 554 1145 499 1145 c 0
 454 1145 454 1145 418 1163.5 c 0
 382 1182 382 1182 355.5 1216.5 c 0
 329 1251 329 1251 310 1284.5 c 0
 291 1318 291 1318 267 1363.5 c 0
 243 1409 243 1409 225 1435 c 1
 339 1510 l 1
 415 1437 415 1437 443 1417.5 c 0
 471 1398 471 1398 489 1398 c 0
 525 1398 525 1398 572 1417.5 c 0
 619 1437 619 1437 658 1460.5 c 0
 697 1484 697 1484 748 1503.5 c 0
 799 1523 799 1523 844 1523 c 0
EndSplineSet
EndChar

StartChar: trademark
Encoding: 8482 8482 227
Width: 2717
VWidth: 0
Flags: W
LayerCount: 2
Fore
SplineSet
1041 1183 m 1
 1041 1622 l 1
 66 1622 l 1
 66 1183 l 1
 254 1183 l 1
 297 1382 l 1
 364 1382 l 1
 364 778 l 1
 254 778 l 1
 254 537 l 1
 850 537 l 1
 850 778 l 1
 740 778 l 1
 740 1382 l 1
 811 1382 l 1
 853 1183 l 1
 1041 1183 l 1
1462 1205 m 1
 1741 537 l 1
 1929 537 l 1
 2158 1191 l 1
 2158 783 l 1
 2075 783 l 1
 2075 537 l 1
 2613 537 l 1
 2613 783 l 1
 2510 783 l 1
 2510 1390 l 1
 2608 1390 l 1
 2608 1623 l 1
 2083 1623 l 1
 1899 1110 l 1
 1691 1623 l 1
 1133 1623 l 1
 1133 1383 l 1
 1245 1383 l 1
 1245 944 l 2
 1245 904 1245 904 1244 885 c 0
 1243 866 1243 866 1238 840 c 0
 1233 814 1233 814 1221.5 802.5 c 0
 1210 791 1210 791 1188.5 782.5 c 0
 1167 774 1167 774 1135 774 c 1
 1135 537 l 1
 1571 537 l 1
 1571 781 l 1
 1539 781 1539 781 1517.5 788 c 0
 1496 795 1496 795 1485 803 c 0
 1474 811 1474 811 1468.5 829.5 c 0
 1463 848 1463 848 1462.5 859 c 0
 1462 870 1462 870 1462 895 c 2
 1462 1205 l 1
EndSplineSet
EndChar

StartChar: two
Encoding: 50 50 228
Width: 1330
VWidth: 0
Flags: W
LayerCount: 2
Fore
SplineSet
1257 0 m 1
 1257 471 l 1
 1084 471 l 1
 1084 426 1084 426 1067 396.5 c 0
 1050 367 1050 367 1017.5 352 c 0
 985 337 985 337 950.5 331 c 0
 916 325 916 325 868 324 c 1
 707 324 l 1
 794 389 794 389 835 420.5 c 0
 876 452 876 452 951 519 c 0
 1026 586 1026 586 1067 639 c 0
 1173 775 1173 775 1173 928 c 0
 1173 1034 1173 1034 1132 1120.5 c 0
 1091 1207 1091 1207 1019.5 1263.5 c 0
 948 1320 948 1320 854 1351.5 c 0
 760 1383 760 1383 651 1387 c 0
 570 1390 570 1390 488.5 1373.5 c 0
 407 1357 407 1357 333 1320.5 c 0
 259 1284 259 1284 201.5 1232 c 0
 144 1180 144 1180 110 1107 c 0
 76 1034 76 1034 77 950 c 1
 74 844 74 844 111.5 749 c 0
 149 654 149 654 225 586 c 1
 451 760 l 1
 444 767 444 767 433.5 778.5 c 0
 423 790 423 790 406 824 c 0
 389 858 389 858 389 889 c 0
 389 951 389 951 424 991 c 0
 459 1031 459 1031 524 1031 c 0
 577 1031 577 1031 617 983.5 c 0
 657 936 657 936 661 859 c 1
 661 796 661 796 644.5 743.5 c 0
 628 691 628 691 592 644 c 0
 556 597 556 597 524.5 566 c 0
 493 535 493 535 436 487 c 0
 307 377 307 377 114 303 c 1
 114 0 l 1
 1257 0 l 1
EndSplineSet
EndChar

StartChar: twosuperior
Encoding: 178 178 229
Width: 864
VWidth: 0
Flags: W
LayerCount: 2
Fore
SplineSet
790 286 m 1
 790 570 l 1
 686 570 l 1
 686 519 686 519 651.5 501 c 0
 617 483 617 483 556 481 c 1
 459 481 l 1
 624 605 624 605 675 671 c 0
 739 752 739 752 739 845 c 0
 739 971 739 971 650 1043.5 c 0
 561 1116 561 1116 425 1121 c 0
 342 1124 342 1124 264 1095.5 c 0
 186 1067 186 1067 132.5 1004 c 0
 79 941 79 941 79 858 c 1
 76 721 76 721 168 639 c 1
 305 744 l 1
 267 779 267 779 267 821 c 0
 267 858 267 858 288.5 882.5 c 0
 310 907 310 907 349 907 c 0
 380 907 380 907 404 878 c 0
 428 849 428 849 431 803 c 1
 431 754 431 754 410 710.5 c 0
 389 667 389 667 365.5 642.5 c 0
 342 618 342 618 296 579 c 0
 218 514 218 514 102 468 c 1
 102 286 l 1
 790 286 l 1
EndSplineSet
EndChar

StartChar: u
Encoding: 117 117 230
Width: 1465
VWidth: 0
Flags: W
LayerCount: 2
Fore
SplineSet
821 0 m 1
 1391 0 l 1
 1391 305 l 1
 1315 305 l 1
 1315 1072 l 1
 740 1072 l 1
 740 761 l 1
 821 761 l 1
 821 438 l 2
 821 387 821 387 792.5 352.5 c 0
 764 318 764 318 717 318 c 0
 681 318 681 318 654 351.5 c 0
 627 385 627 385 627 438 c 2
 627 1072 l 1
 53 1072 l 1
 53 761 l 1
 133 761 l 1
 133 385 l 2
 133 -18 133 -18 463 -18 c 0
 581 -18 581 -18 673.5 26.5 c 0
 766 71 766 71 821 156 c 1
 821 0 l 1
EndSplineSet
EndChar

StartChar: uacute
Encoding: 250 250 231
Width: 1466
VWidth: 0
Flags: W
LayerCount: 2
Fore
SplineSet
822 0 m 1
 1392 0 l 1
 1392 305 l 1
 1316 305 l 1
 1316 1072 l 1
 741 1072 l 1
 741 761 l 1
 822 761 l 1
 822 438 l 2
 822 387 822 387 793.5 352.5 c 0
 765 318 765 318 718 318 c 0
 682 318 682 318 655 351.5 c 0
 628 385 628 385 628 438 c 2
 628 1072 l 1
 54 1072 l 1
 54 761 l 1
 134 761 l 1
 134 385 l 2
 134 -18 134 -18 464 -18 c 0
 582 -18 582 -18 674.5 26.5 c 0
 767 71 767 71 822 156 c 1
 822 0 l 1
874 1708 m 1
 400 1271 l 1
 504 1130 l 1
 1058 1443 l 1
 874 1708 l 1
EndSplineSet
EndChar

